<?xml version="1.0" encoding="UTF-8"?>
<svg xmlns="http://www.w3.org/2000/svg" onmouseup="{ if(window.parent.document.onmouseup) window.parent.document.onmouseup(arguments[0]);}" width="512" viewBox="0 0 512 512" height="512" enable-background="new 0 0 512 512" id="Capa_1"><g><path data-cppathid="10000" fill="#99e6fc" d="m69.628 7.502h372.747v496.996h-372.747z"/><path data-cppathid="10001" fill="#62dbfb" d="m69.632 7.5h50v497h-50z"/><path data-cppathid="10002" fill="#f2fbff" d="m100.69 69.626h310.623v403.809h-310.623z"/><path data-cppathid="10003" fill="#dff6fd" d="m100.692 69.63h18.94v403.81h-18.94z"/><path data-cppathid="10004" fill="#dff6fd" d="m180.009 108.363h30.277v119.709h-30.277z"/><path data-cppathid="10005" fill="#ffeee6" d="m336.345 138.28h7.479c8.261 0 14.958-6.697 14.958-14.958 0-8.261-6.697-14.958-14.958-14.958h-94.101c-4.04 0-7.95 1.369-11.157 3.827-8.457 6.484-17.405 7.858-28.282 8.504v95.121c25.58 29.226 57.995 31.973 55.727 75.646-.393 7.557 5.63 13.903 13.197 13.903 5.788 0 10.935-3.757 12.624-9.293 6.865-22.503 8.582-44.836-.481-68.039h68.574c8.261 0 14.958-6.697 14.958-14.958 0-8.261-6.697-14.958-14.958-14.958h-18.609 13.544c8.261 0 14.958-6.697 14.958-14.958 0-8.261-6.697-14.958-14.958-14.958h-13.544 8.571c8.261 0 14.958-6.697 14.958-14.958 0-8.261-6.697-14.958-14.958-14.958h-13.542z"/><path data-cppathid="10006" fill="#ffdfcf" d="m295.762 280.16c-.98 5.3-2.31 10.6-3.93 15.91-.85 2.77-2.55 5.09-4.77 6.72s-4.96 2.57-7.85 2.57c-7.57 0-13.59-6.34-13.2-13.9 2.27-43.67-30.15-46.42-55.73-75.65v-95.12c10.88-.64 19.83-2.02 28.29-8.5 3.2-2.46 7.11-3.83 11.15-3.83h30c-4.04 0-7.95 1.37-11.15 3.83-8.46 6.48-17.41 7.86-28.29 8.5v95.12c23.17 26.47 51.95 31.23 55.48 64.35z"/><path data-cppathid="10007" fill="#4a80aa" d="m137.118 108.363h42.891v134.673h-42.891z"/><path data-cppathid="10008" fill="#407093" d="m137.122 108.36h20v134.68h-20z"/><path data-cppathid="10009" fill="#ee7249" d="m69.628 38.564h201.448l28.778-31.062h-230.226z"/><path data-cppathid="10010" fill="#e8442d" d="m69.632 7.5h50v31.06h-50z"/><path data-cppathid="10011" fill="#ee7249" d="m202.427 393.585 17.366-16.892c5.938-5.776 6.069-15.273.293-21.211-5.775-5.938-15.273-6.068-21.211-.293l-17.961 17.471-17.961-17.471c-5.938-5.776-15.435-5.646-21.211.293-5.776 5.938-5.645 15.435.293 21.211l17.366 16.892-17.366 16.892c-5.938 5.776-6.07 15.273-.293 21.211 2.941 3.023 6.845 4.541 10.754 4.541 3.769 0 7.542-1.412 10.458-4.248l17.961-17.471 17.961 17.471c2.916 2.836 6.688 4.248 10.458 4.248 3.908 0 7.813-1.518 10.753-4.541 5.776-5.938 5.646-15.435-.293-21.211z"/><g><path data-cppathid="10012" d="m100.692 308.87c-4.142 0-7.5 3.358-7.5 7.5v157.07c0 4.142 3.358 7.5 7.5 7.5h310.62c4.143 0 7.5-3.358 7.5-7.5v-403.81c0-4.142-3.357-7.5-7.5-7.5h-310.62c-4.142 0-7.5 3.358-7.5 7.5v214.05c0 4.142 3.358 7.5 7.5 7.5s7.5-3.358 7.5-7.5v-206.55h295.62v388.81h-295.62v-149.57c0-4.142-3.358-7.5-7.5-7.5z"/><path data-cppathid="10013" d="m374.324 355.613h-87.705c-4.143 0-7.5 3.358-7.5 7.5s3.357 7.5 7.5 7.5h87.705c4.143 0 7.5-3.358 7.5-7.5s-3.357-7.5-7.5-7.5z"/><path data-cppathid="10014" d="m374.324 386.675h-87.705c-4.143 0-7.5 3.358-7.5 7.5s3.357 7.5 7.5 7.5h87.705c4.143 0 7.5-3.358 7.5-7.5s-3.357-7.5-7.5-7.5z"/><path data-cppathid="10015" d="m374.324 417.738h-87.705c-4.143 0-7.5 3.358-7.5 7.5s3.357 7.5 7.5 7.5h87.705c4.143 0 7.5-3.358 7.5-7.5s-3.357-7.5-7.5-7.5z"/><path data-cppathid="10016" d="m210.285 100.863h-30.276-42.891c-4.142 0-7.5 3.358-7.5 7.5v134.672c0 4.142 3.358 7.5 7.5 7.5h42.891c4.142 0 7.5-3.358 7.5-7.5v-7.463h22.776c2.534 0 4.77-1.26 6.127-3.184 5.053 4.381 10.08 8.134 14.757 11.624 17.273 12.892 28.685 21.409 27.351 47.061.659 13.186 7.556 20.448 20.69 21.786 9.805-.513 16.403-5.38 19.793-14.6 7.075-23.17 7.988-43.383 2.721-62.73h58.206c12.379 0 22.45-10.076 22.45-22.46-.424-7.676-3.315-13.582-8.676-17.717 5.447-8.382 3.048-23.577-4.995-29.868 6.534-10.015 3.692-23.703-5.719-30.476 8.369-13.674-2.61-34.149-19.17-34.149h-30.12c-4.143 0-7.5 3.358-7.5 7.5s3.357 7.5 7.5 7.5h30.12c4.547.423 7.034 2.909 7.46 7.46 0 4.113-3.347 7.46-7.46 7.46h-7.48c-4.143 0-7.5 3.358-7.5 7.5s3.357 7.5 7.5 7.5h13.55c4.052 0 7.46 3.342 7.46 7.46-.243 4.324-2.73 6.81-7.46 7.46h-8.569c-4.143 0-7.5 3.358-7.5 7.5s3.357 7.5 7.5 7.5h13.54c3.895 0 7.46 3.369 7.46 7.46 0 4.108-3.347 7.45-7.46 7.45h-13.54c-4.143 0-7.5 3.358-7.5 7.5s3.357 7.5 7.5 7.5h18.609c4.543.429 7.026 2.915 7.45 7.46 0 4.113-3.342 7.46-7.45 7.46h-68.58c-5.929.95-8.258 4.36-6.986 10.229 7.492 19.184 7.585 39.241.297 63.112-.935 2.527-2.752 3.856-5.45 3.989-3.625-.368-5.528-2.372-5.71-6.011 1.749-33.654-15.305-46.382-33.36-59.857-7.475-5.579-15.184-11.333-22.356-19.058v-85.33c8.428-.948 17.077-3.126 25.357-9.468 1.91-1.468 4.246-2.276 6.58-2.276h31.29c4.143 0 7.5-3.358 7.5-7.5s-3.357-7.5-7.5-7.5h-31.29c-5.622 0-11.205 1.912-15.711 5.376-4.788 3.667-9.792 5.35-16.226 6.237v-4.11c0-4.141-3.358-7.499-7.5-7.499zm-37.776 134.673h-27.891v-119.673h27.891zm30.276-14.964h-15.276v-104.709h15.276z"/><path data-cppathid="10017" d="m442.372 356.15c4.143 0 7.5-3.358 7.5-7.5v-341.15c0-4.142-3.357-7.5-7.5-7.5h-372.74c-4.236.176-6.737 2.677-7.503 7.502v31.063c0 .023.003.045.003.068v465.867c0 4.142 3.358 7.5 7.5 7.5h372.74c4.143 0 7.5-3.358 7.5-7.5v-123.16c0-4.142-3.357-7.5-7.5-7.5s-7.5 3.358-7.5 7.5v115.66h-357.74v-450.936h193.944c2.089 0 4.082-.871 5.502-2.403l26.554-28.661h131.74v333.65c0 4.142 3.357 7.5 7.5 7.5zm-174.571-325.086h-190.669v-16.062h205.55z"/><path data-cppathid="10018" d="m335.666 46.064c4.143 0 7.5-3.358 7.5-7.5s-3.357-7.5-7.5-7.5h-4.813c-4.143 0-7.5 3.358-7.5 7.5s3.357 7.5 7.5 7.5z"/><path data-cppathid="10019" d="m373.489 46.064c4.143 0 7.5-3.358 7.5-7.5s-3.357-7.5-7.5-7.5h-4.812c-4.143 0-7.5 3.358-7.5 7.5s3.357 7.5 7.5 7.5z"/><path data-cppathid="10020" d="m411.313 31.064h-4.813c-4.143 0-7.5 3.358-7.5 7.5s3.357 7.5 7.5 7.5h4.813c4.143 0 7.5-3.358 7.5-7.5s-3.357-7.5-7.5-7.5z"/><path data-cppathid="10021" d="m225.463 350.252c-9.481-9.991-20.961-10.127-31.817-.44l-12.731 12.384-12.731-12.384c-10.806-9.437-21.931-8.687-31.817.44-9.115 8.416-8.453 23.166.44 31.817l11.839 11.516-11.839 11.516c-8.893 8.651-9.349 23.183-.44 31.817 9.886 9.582 21.151 9.079 31.817.439l12.731-12.384 12.732 12.385c10.666 8.639 23.188 9.017 31.816-.44 9.284-10.175 8.493-21.333-.439-31.817l-11.839-11.516 11.839-11.516c10.603-10.069 8.978-22.819.439-31.817zm-10.899 21.065-17.366 16.892c-3.027 3.584-3.027 7.168 0 10.752l17.366 16.892c2.964 2.884 3.03 7.642.146 10.606-3.515 2.978-7.05 3.027-10.605.147l-17.961-17.471c-3.486-2.832-6.973-2.832-10.459 0l-17.961 17.471c-3.555 2.88-7.091 2.831-10.606-.147-2.883-2.964-2.817-7.722.147-10.606l17.366-16.892c3.027-3.584 3.027-7.168 0-10.752l-17.366-16.892c-2.964-2.884-3.03-7.642-.147-10.606 3.495-2.978 7.03-3.027 10.606-.147l17.961 17.471c2.911 2.832 7.548 2.832 10.459 0l17.96-17.47c3.576-2.88 7.111-2.831 10.606.146 2.88 3.576 2.831 7.111-.146 10.606z"/></g></g></svg>