<?xml version="1.0" encoding="UTF-8"?>
<svg xmlns="http://www.w3.org/2000/svg" onmouseup="{ if(window.parent.document.onmouseup) window.parent.document.onmouseup(arguments[0]);}" data-name="Layer 1" width="512" viewBox="0 0 512 512" height="512" id="Layer_1" xmlns:xlink="http://www.w3.org/1999/xlink"><linearGradient y1="512" x2="256" x1="256" gradientUnits="userSpaceOnUse" id="linear-gradient"><stop stop-color="#e93528" offset="0"/><stop stop-color="#f8bc16" offset="1"/></linearGradient><path data-cppathid="10000" fill="url(#linear-gradient)" d="m500.841 295.65a16 16 0 0 0 -15.022-10.489h-74.34v-269.161a16 16 0 0 0 -16-16h-278.96a16 16 0 0 0 -16 16v269.161h-74.338a16 16 0 0 0 -10.347 28.2l229.819 194.839a16 16 0 0 0 20.694 0l229.819-194.835a16 16 0 0 0 4.675-17.715zm-244.841 179.374-186.2-157.863h46.724a16 16 0 0 0 16-16v-269.161h246.96v269.161a16 16 0 0 0 16 16h46.726zm66.955-307.234-111.283 111.282a16 16 0 1 1 -22.627-22.627l111.283-111.282a16 16 0 0 1 22.627 22.627zm14.977 62.41a45.153 45.153 0 1 0 13.224 31.927 44.854 44.854 0 0 0 -13.224-31.927zm-22.632 41.223a13.151 13.151 0 1 1 0-18.6 13.149 13.149 0 0 1 0 18.6zm-77.383-77.384a45.2 45.2 0 0 0 0-63.853 45.152 45.152 0 1 0 0 63.853zm-45.078-31.926a13.152 13.152 0 1 1 3.852 9.3 13.066 13.066 0 0 1 -3.848-9.3z"/></svg>