<?xml version="1.0" encoding="UTF-8"?>
<svg xmlns="http://www.w3.org/2000/svg" onmouseup="{ if(window.parent.document.onmouseup) window.parent.document.onmouseup(arguments[0]);}" width="512" viewBox="0 0 512 512" height="512" enable-background="new 0 0 512 512" id="Capa_1"><g id="XMLID_1948_"><g id="XMLID_1985_"><path data-cppathid="10000" fill="#91d9b9" d="m478 502.004h-444c-13.255 0-24-10.745-24-24v-216c0-13.255 10.745-24 24-24h444c13.255 0 24 10.745 24 24v216c0 13.255-10.745 24-24 24z" id="XMLID_3298_"/><g fill="#c4ead9"><path data-cppathid="10001" d="m34 502.004h40.995l.005-1c0-35.375-28.625-64-64-64h-1v41c0 13.255 10.745 24 24 24z" id="XMLID_3297_"/><path data-cppathid="10002" d="m478 502.004h-40.995l-.005-1c0-35.375 28.625-64 64-64h1v41c0 13.255-10.745 24-24 24z" id="XMLID_3296_"/><path data-cppathid="10003" d="m34 238.004h40.995l.005 1c0 35.375-28.625 64-64 64h-1v-41c0-13.255 10.745-24 24-24z" id="XMLID_2759_"/><path data-cppathid="10004" d="m478 238.004h-40.995l-.005 1c0 35.375 28.625 64 64 64h1v-41c0-13.255-10.745-24-24-24z" id="XMLID_2758_"/><path data-cppathid="10005" d="m256 298.004c39.764 0 72 32.236 72 72s-32.236 72-72 72-72-32.236-72-72 32.235-72 72-72z" id="XMLID_2751_"/><circle data-cppathid="10006" r="22" cy="370.004" cx="110.007" id="XMLID_2741_"/><circle data-cppathid="10007" r="22" cy="370.004" cx="401.993" id="XMLID_2738_"/></g></g><g id="XMLID_1949_"><g fill="#aae2c9"><ellipse data-cppathid="10008" transform="matrix(.707 -.707 .707 .707 49.001 229.581)" ry="30.195" rx="64" cy="55.641" cx="301.629" id="XMLID_1984_"/><ellipse data-cppathid="10009" transform="matrix(.707 -.707 .707 .707 -8.56 177.823)" ry="64" rx="30.195" cy="99.245" cx="210.371" id="XMLID_1977_"/><ellipse data-cppathid="10010" transform="matrix(.707 -.707 .707 .707 -36.601 265.038)" ry="30.195" rx="64" cy="176.7" cx="301.629" id="XMLID_1964_"/></g><g id="XMLID_16_"><path data-cppathid="10011" d="m478 228.004h-185.588c14.017-4.436 26.94-12.184 37.639-22.882 19.688-19.688 29.452-46.89 26.787-74.633-.458-4.768-4.231-8.54-8.998-8.998-27.737-2.664-54.945 7.101-74.633 26.787-2.579 2.579-4.982 5.289-7.215 8.11v-45.146c23.982-.406 46.882-10.004 64.059-27.18 19.688-19.688 29.452-46.89 26.787-74.633-.458-4.768-4.231-8.54-8.998-8.998-27.751-2.665-54.946 7.102-74.633 26.787-14.474 14.473-23.576 33.01-26.327 52.835-2.474-3.226-5.168-6.313-8.087-9.232-19.687-19.687-46.884-29.454-74.633-26.786-4.768.458-8.54 4.231-8.998 8.998-2.664 27.743 7.1 54.945 26.787 74.633 17.172 17.171 40.065 26.768 64.043 27.179v73.157h-211.992c-18.748 0-34 15.252-34 34v216c0 18.748 15.252 34 34 34h177c5.522 0 10-4.478 10-10s-4.478-10-10-10h-126.567c-4.097-33.617-30.814-60.334-64.433-64.431v-115.134c33.619-4.097 60.336-30.814 64.433-64.433h343.134c4.097 33.619 30.814 60.336 64.433 64.433v115.134c-33.619 4.097-60.336 30.814-64.433 64.433h-126.567c-5.522 0-10 4.478-10 10s4.478 10 10 10h177c18.748 0 34-15.252 34-34v-216c0-18.748-15.252-34-34-34zm-190.65-65.583c13.39-13.391 31.209-20.931 49.901-21.342-.412 18.689-7.952 36.511-21.343 49.9-13.39 13.391-31.211 20.931-49.901 21.343.412-18.69 7.952-36.511 21.343-49.901zm0-121.06c13.39-13.391 31.209-20.931 49.901-21.342-.412 18.689-7.952 36.511-21.343 49.9-13.39 13.391-31.211 20.931-49.901 21.343.412-18.69 7.952-36.511 21.343-49.901zm-91.258 72.163c-13.39-13.39-20.93-31.211-21.342-49.901 18.688.413 36.512 7.953 49.9 21.342 13.386 13.385 20.924 31.198 21.342 49.88v.021c-18.689-.413-36.512-7.953-49.9-21.342zm-131.856 378.48h-30.236c-7.72 0-14-6.28-14-14v-30.236c22.576 3.805 40.43 21.66 44.236 44.236zm-44.236-199.764v-30.236c0-7.72 6.28-14 14-14h30.236c-3.806 22.576-21.66 40.43-44.236 44.236zm427.764-44.236h30.236c7.72 0 14 6.28 14 14v30.236c-22.576-3.806-40.43-21.66-44.236-44.236zm30.236 244h-30.236c3.806-22.576 21.66-40.43 44.236-44.236v30.236c0 7.72-6.28 14-14 14z" id="XMLID_457_"/><path data-cppathid="10012" d="m338 370.004c0-45.215-36.785-82-82-82s-82 36.785-82 82 36.785 82 82 82 82-36.785 82-82zm-144 0c0-34.187 27.813-62 62-62s62 27.813 62 62-27.813 62-62 62-62-27.814-62-62z" id="XMLID_737_"/><path data-cppathid="10013" d="m78.007 370.004c0 17.645 14.355 32 32 32s32-14.355 32-32-14.355-32-32-32-32 14.355-32 32zm44 0c0 6.617-5.383 12-12 12s-12-5.383-12-12 5.383-12 12-12 12 5.383 12 12z" id="XMLID_740_"/><path data-cppathid="10014" d="m433.993 370.004c0-17.645-14.355-32-32-32s-32 14.355-32 32 14.355 32 32 32 32-14.356 32-32zm-44 0c0-6.617 5.383-12 12-12s12 5.383 12 12-5.383 12-12 12-12-5.383-12-12z" id="XMLID_743_"/><path data-cppathid="10015" d="m256 492.004c-2.63 0-5.21 1.069-7.07 2.93s-2.93 4.44-2.93 7.07 1.069 5.21 2.93 7.069c1.86 1.86 4.44 2.931 7.07 2.931s5.21-1.07 7.069-2.931c1.86-1.859 2.931-4.439 2.931-7.069s-1.07-5.21-2.931-7.07c-1.859-1.861-4.439-2.93-7.069-2.93z" id="XMLID_744_"/></g></g></g></svg>