<?xml version="1.0" encoding="UTF-8"?>
<svg xmlns="http://www.w3.org/2000/svg" onmouseup="{ if(window.parent.document.onmouseup) window.parent.document.onmouseup(arguments[0]);}" width="512" viewBox="0 0 512 512" height="512" enable-background="new 0 0 512 512" id="Layer_1"><g><g><path data-cppathid="10000" fill="#73cddc" d="m320 32h-256c-13.255 0-24 10.745-24 24v320l88 88h192c13.255 0 24-10.745 24-24v-384c0-13.255-10.745-24-24-24z"/></g><g><path data-cppathid="10001" fill="#5f78be" d="m40 376h64c13.255 0 24 10.745 24 24v64z"/></g><g><g><circle data-cppathid="10002" r="72" fill="#46508c" cy="136" cx="144"/></g><g><path data-cppathid="10003" fill="#5f78be" d="m159.091 137.924c8.914-5.2 14.909-14.859 14.909-25.924 0-16.568-13.431-30-30-30s-30 13.432-30 30c0 11.065 5.995 20.724 14.909 25.924-15.713 4.076-28.923 14.357-36.862 28.076 10.376 17.929 29.749 30 51.953 30s41.578-12.071 51.953-30c-7.939-13.719-21.149-24-36.862-28.076z"/></g></g><g><g><path data-cppathid="10004" fill="#f06423" d="m448 480h-261.333c-13.255 0-24-10.745-24-24v-144c0-13.255 10.745-24 24-24h261.333c13.255 0 24 10.745 24 24v144c0 13.255-10.745 24-24 24z"/></g><g><path data-cppathid="10005" fill="#faa51e" d="m432 480h-245.333c-13.255 0-24-10.745-24-24v-144c0-13.255 10.745-24 24-24h245.333c13.255 0 24 10.745 24 24v144c0 13.255-10.745 24-24 24z"/></g><g><path data-cppathid="10006" fill="#5f78be" d="m162.667 320h293.333v48h-293.333z"/></g><g><path data-cppathid="10007" transform="matrix(-1 0 0 -1 928 688)" fill="#46508c" d="m456 320h16v48h-16z"/></g><g><path data-cppathid="10008" fill="#f06423" d="m264 448h-48c-8.837 0-16-7.163-16-16v-16c0-8.837 7.163-16 16-16h48c8.837 0 16 7.163 16 16v16c0 8.837-7.163 16-16 16z"/></g></g><g><g><path data-cppathid="10009" fill="#f06423" d="m325.305 76.635c-1.631-2.865-4.675-4.635-7.972-4.635-3.297 0-6.341 1.77-7.972 4.635l-92.286 162.124c-2.273 3.992-1.96 8.953.797 12.628 2.178 2.905 5.597 4.614 9.228 4.614h90.232 90.232c3.631 0 7.05-1.709 9.228-4.614 2.756-3.675 3.069-8.635.797-12.628z"/></g><g><path data-cppathid="10010" fill="#d7e6f0" d="m317.333 196c-6.627 0-12-5.373-12-12v-58.667c0-6.627 5.373-12 12-12s12 5.373 12 12v58.667c0 6.627-5.373 12-12 12z"/></g><g><circle data-cppathid="10011" r="16" fill="#d7e6f0" cy="221.333" cx="317.333"/></g></g></g></svg>