<?xml version="1.0" encoding="UTF-8"?>
<svg xmlns="http://www.w3.org/2000/svg" onmouseup="{ if(window.parent.document.onmouseup) window.parent.document.onmouseup(arguments[0]);}" width="512" viewBox="0 0 60 60" height="512"><g transform="translate(-1 -1)" fill="none" id="047---Market-Fluctuation"><path data-cppathid="10000" fill="#e64c3c" d="m31 54c-.5522847 0-1-.4477153-1-1v-6c0-.5522847.4477153-1 1-1s1 .4477153 1 1v6c0 .5522847-.4477153 1-1 1z" id="Shape"/><path data-cppathid="10001" fill="#e64c3c" d="m31 54c-.265803.0015368-.5212812-.1028135-.71-.29l-3-3c-.3921222-.3921222-.3921222-1.0278778 0-1.42s1.0278778-.3921222 1.42 0l3 3c.2884599.2860905.3751619.7182668.219371 1.0934815-.155791.3752147-.5231059.6188811-.929371.6165185z" id="Shape"/><path data-cppathid="10002" fill="#e64c3c" d="m31 54c-.4062651.0023626-.77358-.2413038-.929371-.6165185-.1557909-.3752147-.0690889-.807391.219371-1.0934815l3-3c.3921222-.3921222 1.0278778-.3921222 1.42 0s.3921222 1.0278778 0 1.42l-3 3c-.1887188.1871865-.444197.2915368-.71.29z" id="Shape"/><path data-cppathid="10003" fill="#e64c3c" d="m31 10c-.5522847 0-1-.44771525-1-1v-7c0-.55228475.4477153-1 1-1s1 .44771525 1 1v7c0 .55228475-.4477153 1-1 1z" id="Shape"/><path data-cppathid="10004" fill="#e64c3c" d="m28 6c-.4062651.00236262-.77358-.24130378-.929371-.61651849-.1557909-.37521472-.0690889-.80739105.219371-1.09348151l3-3c.3921222-.39212217 1.0278778-.39212217 1.42 0s.3921222 1.02787783 0 1.42l-3 3c-.1887188.18718651-.444197.29153676-.71.29z" id="Shape"/><path data-cppathid="10005" fill="#e64c3c" d="m34 6c-.265803.00153676-.5212812-.10281349-.71-.29l-3-3c-.2536586-.25365857-.3527235-.62337399-.259878-.96987804.0928454-.34650405.3634959-.61715452.71-.71.346504-.09284548.7162194.00621947.969878.25987804l3 3c.2884599.28609046.3751619.71826679.219371 1.09348151-.155791.37521471-.5231059.61888111-.929371.61651849z" id="Shape"/><path data-cppathid="10006" fill="#e64c3c" d="m31 44c-.5522847 0-1-.4477153-1-1v-1c0-.5522847.4477153-1 1-1s1 .4477153 1 1v1c0 .5522847-.4477153 1-1 1z" id="Shape"/><path data-cppathid="10007" fill="#e64c3c" d="m31 16c-.5522847 0-1-.4477153-1-1v-2c0-.5522847.4477153-1 1-1s1 .4477153 1 1v2c0 .5522847-.4477153 1-1 1z" id="Shape"/><path data-cppathid="10008" fill="#e64c3c" d="m31 22c-.5522847 0-1-.4477153-1-1v-2c0-.5522847.4477153-1 1-1s1 .4477153 1 1v2c0 .5522847-.4477153 1-1 1z" id="Shape"/><path data-cppathid="10009" fill="#4fba6f" d="m48.21 27.61-6-7.74-2.59 5.19c-.2459531.4940809-.8456857.6954836-1.34.45-.4940809-.2459531-.6954836-.8456857-.45-1.34l3.31-6.62c.1553464-.3046744.4556187-.5088325.7960708-.5412565.3404521-.0324241.673864.1113832.8839292.3812565l6 7.67 10.26-23.46c.2209139-.50810194.811898-.74091384 1.32-.51999995.5081019.22091389.7409139.81189799.52 1.31999995l-11 25c-.1412836.3245897-.4436505.5502926-.7950158.5934428-.3513653.0431501-.6993595-.102684-.9149842-.3834428z" id="Shape"/><path data-cppathid="10010" fill="#4fba6f" d="m2 61c-.37348385-.0017214-.71488118-.2114292-.88526718-.5437871s-.14135972-.7319664.07526718-1.0362129l10-14c.1866758-.2621956.4881426-.4185117.81-.42h4.38l4.89-9.77c.2700473-.4487927.8406385-.6131719 1.3080622-.3768341s.6732882.7933069.4719378 1.2768341l-5.16 10.32c-.1694502.3362797-.5134418.5488587-.89.55h-4.49l-9.7 13.58c-.18667583.2621956-.48814263.4185117-.81.42z" id="Shape"/><g fill="#3b97d3"><path data-cppathid="10011" d="m51 61c-.5522847 0-1-.4477153-1-1v-3c0-.5522847.4477153-1 1-1s1 .4477153 1 1v3c0 .5522847-.4477153 1-1 1z" id="Shape"/><path data-cppathid="10012" d="m47 61c-.5522847 0-1-.4477153-1-1v-3c0-.5522847.4477153-1 1-1s1 .4477153 1 1v3c0 .5522847-.4477153 1-1 1z" id="Shape"/><path data-cppathid="10013" d="m43 61c-.5522847 0-1-.4477153-1-1v-3c0-.5522847.4477153-1 1-1s1 .4477153 1 1v3c0 .5522847-.4477153 1-1 1z" id="Shape"/><path data-cppathid="10014" d="m39 61c-.5522847 0-1-.4477153-1-1v-3c0-.5522847.4477153-1 1-1s1 .4477153 1 1v3c0 .5522847-.4477153 1-1 1z" id="Shape"/><path data-cppathid="10015" d="m35 61c-.5522847 0-1-.4477153-1-1v-3c0-.5522847.4477153-1 1-1s1 .4477153 1 1v3c0 .5522847-.4477153 1-1 1z" id="Shape"/><path data-cppathid="10016" d="m31 61c-.5522847 0-1-.4477153-1-1v-3c0-.5522847.4477153-1 1-1s1 .4477153 1 1v3c0 .5522847-.4477153 1-1 1z" id="Shape"/><path data-cppathid="10017" d="m27 61c-.5522847 0-1-.4477153-1-1v-3c0-.5522847.4477153-1 1-1s1 .4477153 1 1v3c0 .5522847-.4477153 1-1 1z" id="Shape"/><path data-cppathid="10018" d="m23 61c-.5522847 0-1-.4477153-1-1v-3c0-.5522847.4477153-1 1-1s1 .4477153 1 1v3c0 .5522847-.4477153 1-1 1z" id="Shape"/><path data-cppathid="10019" d="m19 61c-.5522847 0-1-.4477153-1-1v-3c0-.5522847.4477153-1 1-1s1 .4477153 1 1v3c0 .5522847-.4477153 1-1 1z" id="Shape"/><path data-cppathid="10020" d="m15 61c-.5522847 0-1-.4477153-1-1v-3c0-.5522847.4477153-1 1-1s1 .4477153 1 1v3c0 .5522847-.4477153 1-1 1z" id="Shape"/><path data-cppathid="10021" d="m5 24h-3c-.55228475 0-1-.4477153-1-1s.44771525-1 1-1h3c.55228475 0 1 .4477153 1 1s-.44771525 1-1 1z" id="Shape"/><path data-cppathid="10022" d="m5 28h-3c-.55228475 0-1-.4477153-1-1s.44771525-1 1-1h3c.55228475 0 1 .4477153 1 1s-.44771525 1-1 1z" id="Shape"/><path data-cppathid="10023" d="m5 32h-3c-.55228475 0-1-.4477153-1-1s.44771525-1 1-1h3c.55228475 0 1 .4477153 1 1s-.44771525 1-1 1z" id="Shape"/><path data-cppathid="10024" d="m5 36h-3c-.55228475 0-1-.4477153-1-1s.44771525-1 1-1h3c.55228475 0 1 .4477153 1 1s-.44771525 1-1 1z" id="Shape"/><path data-cppathid="10025" d="m5 40h-3c-.55228475 0-1-.4477153-1-1s.44771525-1 1-1h3c.55228475 0 1 .4477153 1 1s-.44771525 1-1 1z" id="Shape"/><path data-cppathid="10026" d="m5 44h-3c-.55228475 0-1-.4477153-1-1s.44771525-1 1-1h3c.55228475 0 1 .4477153 1 1s-.44771525 1-1 1z" id="Shape"/><path data-cppathid="10027" d="m5 20h-3c-.55228475 0-1-.4477153-1-1s.44771525-1 1-1h3c.55228475 0 1 .4477153 1 1s-.44771525 1-1 1z" id="Shape"/><path data-cppathid="10028" d="m5 16h-3c-.55228475 0-1-.4477153-1-1s.44771525-1 1-1h3c.55228475 0 1 .4477153 1 1s-.44771525 1-1 1z" id="Shape"/><path data-cppathid="10029" d="m5 12h-3c-.55228475 0-1-.4477153-1-1s.44771525-1 1-1h3c.55228475 0 1 .4477153 1 1s-.44771525 1-1 1z" id="Shape"/></g><circle data-cppathid="10030" r="10" fill="#f3d55b" cy="31" cx="31" id="Oval"/><path data-cppathid="10031" fill="#b19046" d="m27.43 35.57c-.2608039-.2447269-.3712364-.6100012-.2896986-.9582274.0815378-.3482263.3426584-.6265007.685-.73.3423417-.1034993.7138947-.0164995.9746986.2282274.7139499.3461687 1.5118429.4814636 2.3.39 1 0 2-.33 2-1.31s-.35-1-2.16-1.19c-1.46-.14-3.89-.37-4-3.13-.06-2.11 2-3.31 3.91-3.37 1.5280623-.130019 3.0146789.5395259 3.93 1.77.2111896.4672916.0346812 1.0186013-.408637 1.2763444-.4433181.2577431-1.0097539.1383777-1.311363-.2763444-.89-1.32-4.16-.91-4.12.51 0 .84.35 1 2.16 1.19 1.46.14 3.89.37 4 3.13.09 4.1-6.1 3.9-7.67 2.47z" id="Shape"/><path data-cppathid="10032" fill="#b19046" d="m31.18 38c-.5522847 0-1-.4477153-1-1l-.05-1.5c-.0165685-.5522847.4177153-1.0134315.97-1.03s1.0134315.4177153 1.03.97l.05 1.5c.0165573.2754504-.0814438.5454995-.2708046.746222-.1893609.2007226-.4532483.3142752-.7291954.313778z" id="Shape"/><path data-cppathid="10033" fill="#b19046" d="m30.87 27.5c-.5522847 0-1-.4477153-1-1l-.05-1.5c0-.5522847.4477153-1 1-1s1 .4477153 1 1l.05 1.5c0 .5522847-.4477153 1-1 1z" id="Shape"/><path data-cppathid="10034" fill="#f0c419" d="m31 42c-6.0315686-.0027148-10.9360171-4.8619991-10.9945312-10.8932844-.0585141-6.0312854 4.7507328-10.9848097 10.7811133-11.1045468 6.0303806-.1197371 11.0324702 4.6389769 11.2134179 10.6678312.0892644 2.9741291-1.0301333 5.8575566-3.1027876 7.9923906-2.0726544 2.134834-4.9217443 3.3389487-7.8972124 3.3376094zm0-20c-4.1072426-.000996-7.6941263 2.7787905-8.7180347 6.7563593-1.0239084 3.9775689.7749387 8.1437538 4.3721551 10.1260446 3.5972163 1.9822909 8.0801364 1.2777521 10.8958796-1.7124039 2.4615744-2.6140493 3.1338427-6.441138 1.7105137-9.7376114-1.4233289-3.2964734-4.6698868-5.4315178-8.2605137-5.4323886z" id="Shape"/><path data-cppathid="10035" fill="#2980ba" d="m60 61h-58c-.55228475 0-1-.4477153-1-1v-58c0-.55228475.44771525-1 1-1s1 .44771525 1 1v57h57c.5522847 0 1 .4477153 1 1s-.4477153 1-1 1z" id="Shape"/><path data-cppathid="10036" fill="#2980ba" d="m6 7c-.26580298.00153676-.52128117-.10281349-.71-.29l-4-4c-.39212217-.39212217-.39212217-1.02787783 0-1.42s1.02787783-.39212217 1.42 0l4 4c.28845995.28609046.37516186.71826679.21937095 1.09348151-.15579091.37521471-.52310588.61888111-.92937095.61651849z" id="Shape"/><path data-cppathid="10037" fill="#2980ba" d="m60 61c-.265803.0015368-.5212812-.1028135-.71-.29l-4-4c-.3921221-.3921222-.3921221-1.0278778 0-1.42.3921222-.3921221 1.0278778-.3921221 1.42 0l4 4c.2884599.2860905.3751619.7182668.219371 1.0934815-.155791.3752147-.5231059.6188811-.929371.6165185z" id="Shape"/></g></svg>