<?xml version="1.0" encoding="UTF-8"?>
<svg xmlns="http://www.w3.org/2000/svg" onmouseup="{ if(window.parent.document.onmouseup) window.parent.document.onmouseup(arguments[0]);}" width="512" viewBox="0 0 132 132" height="512" enable-background="new 0 0 132 132" id="Layer_1"><g><g><path data-cppathid="10000" fill="#3d9c46" d="m130 66c0 35.3-28.6 64-64 64-35.3 0-64-28.7-64-64 0-35.4 28.7-64 64-64 35.4 0 64 28.6 64 64z"/></g><g><path data-cppathid="10001" fill="#1c8141" d="m101.9 43.4-12.2.2-22.6-22.5-5 6.7 3.9 3.9c.1 4.5.2 14.3.3 25.1l-.3-.5-42.6.9 11.8 11.8-2.4.9 34.3 34.3-1.1 6.8 16.8 16.8c25.6-6.9 44.8-29.3 47-56.5z"/></g><g><g><g><g><path data-cppathid="10002" fill="#ffcd0a" d="m79.3 36.9c0 .7-.6 1.3-1.3 1.3h-11.2v-2.6h11.2c.7 0 1.3.6 1.3 1.3z"/></g></g><g><g><path data-cppathid="10003" fill="#f15f5e" d="m101.8 43.4c0 .7-.6 1.3-1.3 1.3h-33.7v-2.6h33.8c.7 0 1.2.6 1.2 1.3z"/></g></g><g><g><path data-cppathid="10004" fill="#fff" d="m86.6 49.8c0 .7-.6 1.3-1.3 1.3h-18.5v-2.6h18.5c.7 0 1.3.6 1.3 1.3z"/></g></g><g><g><path data-cppathid="10005" fill="#fff" d="m32.6 69.2c0-.7.6-1.3 1.3-1.3h31.3v2.6h-31.3c-.7 0-1.3-.6-1.3-1.3z"/></g></g><g><g><path data-cppathid="10006" fill="#f06197" d="m39.9 62.7c0-.7.6-1.3 1.3-1.3h24v2.6h-24c-.7 0-1.3-.6-1.3-1.3z"/></g></g><g><g><path data-cppathid="10007" fill="#454e5c" d="m23 56.3c0-.7.6-1.3 1.3-1.3h40.9v2.6h-40.9c-.7 0-1.3-.6-1.3-1.3z"/></g></g><g><g><path data-cppathid="10008" fill="#d9b9a9" d="m83.2 75.7c0 .7-.6 1.3-1.3 1.3h-15.1v-2.6h15.2c.7 0 1.2.5 1.2 1.3z"/></g></g><g><g><path data-cppathid="10009" fill="#5b4b57" d="m101.8 82.1c0 .7-.6 1.3-1.3 1.3h-33.7v-2.6h33.8c.7 0 1.2.6 1.2 1.3z"/></g></g><g><g><path data-cppathid="10010" fill="#d7e14a" d="m91.7 88.6c0 .7-.6 1.3-1.3 1.3h-23.6v-2.6h23.7c.7 0 1.2.6 1.2 1.3z"/></g></g><g><g><path data-cppathid="10011" fill="#49c7ef" d="m75.3 95c0 .7-.6 1.3-1.3 1.3h-7.2v-2.6h7.2c.7 0 1.3.6 1.3 1.3z"/></g></g></g><g><g><g><g><path data-cppathid="10012" fill="#fff" d="m70.4 104.8-3.3 5.6c-.4.7-1.4.7-1.8 0l-3.3-5.6c-.4-.7.1-1.5.9-1.5h1.9v-74.6h-1.9c-.8 0-1.3-.9-.9-1.5l3.3-5.6c.4-.7 1.4-.7 1.8 0l3.3 5.6c.4.7-.1 1.5-.9 1.5h-1.9v74.6h1.9c.8 0 1.2.9.9 1.5z"/></g></g></g></g></g></g></svg>