<?xml version="1.0" encoding="UTF-8"?>
<svg xmlns="http://www.w3.org/2000/svg" onmouseup="{ if(window.parent.document.onmouseup) window.parent.document.onmouseup(arguments[0]);}" width="512" viewBox="0 0 60 60" height="512"><g fill-rule="evenodd" fill="none" id="Page-1"><g fill-rule="nonzero" fill="rgb(0,0,0)" id="021---Timed-Loan"><path data-cppathid="10000" d="m56 0h-33c-2.209139 0-4 1.790861-4 4v19.22c0 .5522847.4477153 1 1 1s1-.4477153 1-1v-19.22c0-1.1045695.8954305-2 2-2h33c1.1045695 0 2 .8954305 2 2v46c0 1.1045695-.8954305 2-2 2h-21.69c-.5522847 0-1 .4477153-1 1s.4477153 1 1 1h21.69c2.209139 0 4-1.790861 4-4v-46c0-2.209139-1.790861-4-4-4z" id="Shape"/><path data-cppathid="10001" d="m24 4c-.5522847 0-1 .44771525-1 1v9c0 .5522847.4477153 1 1 1h4c.5522847 0 1-.4477153 1-1s-.4477153-1-1-1h-3v-8c0-.55228475-.4477153-1-1-1z" id="Shape"/><path data-cppathid="10002" d="m38 9.5c0-3.084-1.757-5.5-4-5.5s-4 2.416-4 5.5 1.757 5.5 4 5.5 4-2.416 4-5.5zm-6 0c0-2.062 1.054-3.5 2-3.5s2 1.438 2 3.5-1.054 3.5-2 3.5-2-1.437-2-3.5z" id="Shape"/><path data-cppathid="10003" d="m43.949 4.684c-.1348836-.41037454-.5180268-.6877501-.95-.6877501s-.8151164.27737556-.95.6877501l-3 9c-.174522.5246705.1093295 1.091478.634 1.266.5246705.1745219 1.091478-.1093295 1.266-.634l.439-1.316h3.224l.439 1.316c.174522.5246705.7413295.8085219 1.266.634.5246705-.174522.808522-.7413295.634-1.266zm-1.895 6.316.946-2.838.946 2.838z" id="Shape"/><path data-cppathid="10004" d="m51 14v-5.141l3.126 5.627c.1764353.3172782.5109644.514015.874.514.0846924.0001354.1690507-.0106194.251-.032.4410329-.1143603.7490059-.5123815.749-.968v-9c0-.55228475-.4477153-1-1-1s-1 .44771525-1 1v5.141l-3.126-5.627c-.2214016-.39821913-.6839956-.59643052-1.1250339-.48205239s-.7489999.5124241-.7489661.96805239v9c0 .5522847.4477153 1 1 1s1-.4477153 1-1z" id="Shape"/><path data-cppathid="10005" d="m24 24h13c.5522847 0 1-.4477153 1-1s-.4477153-1-1-1h-13c-.5522847 0-1 .4477153-1 1s.4477153 1 1 1z" id="Shape"/><path data-cppathid="10006" d="m38 28c0-.5522847-.4477153-1-1-1h-6.78c-.5522847 0-1 .4477153-1 1s.4477153 1 1 1h6.78c.5522847 0 1-.4477153 1-1z" id="Shape"/><path data-cppathid="10007" d="m34.31 34h2.69c.5522847 0 1-.4477153 1-1s-.4477153-1-1-1h-2.69c-.5522847 0-1 .4477153-1 1s.4477153 1 1 1z" id="Shape"/><path data-cppathid="10008" d="m36.37 39h.63c.5522847 0 1-.4477153 1-1s-.4477153-1-1-1h-.63c-.5522847 0-1 .4477153-1 1s.4477153 1 1 1z" id="Shape"/><path data-cppathid="10009" d="m41 23c0 .5522847.4477153 1 1 1h13c.5522847 0 1-.4477153 1-1s-.4477153-1-1-1h-13c-.5522847 0-1 .4477153-1 1z" id="Shape"/><path data-cppathid="10010" d="m55 27h-13c-.5522847 0-1 .4477153-1 1s.4477153 1 1 1h13c.5522847 0 1-.4477153 1-1s-.4477153-1-1-1z" id="Shape"/><path data-cppathid="10011" d="m55 32h-13c-.5522847 0-1 .4477153-1 1s.4477153 1 1 1h13c.5522847 0 1-.4477153 1-1s-.4477153-1-1-1z" id="Shape"/><path data-cppathid="10012" d="m55 37h-13c-.5522847 0-1 .4477153-1 1s.4477153 1 1 1h13c.5522847 0 1-.4477153 1-1s-.4477153-1-1-1z" id="Shape"/><path data-cppathid="10013" d="m0 43c0 9.3888407 7.61115925 17 17 17 9.3888407 0 17-7.6111593 17-17s-7.6111593-17-17-17c-9.38450009.010471-16.98952899 7.6154999-17 17zm32 0c0 8.2842712-6.7157288 15-15 15-8.28427125 0-15-6.7157288-15-15s6.71572875-15 15-15c8.2803876.0093685 14.9906315 6.7196124 15 15z" id="Shape"/><path data-cppathid="10014" d="m16 32v11c0 .5522847.4477153 1 1 1h9c.5522847 0 1-.4477153 1-1s-.4477153-1-1-1h-8v-10c0-.5522847-.4477153-1-1-1s-1 .4477153-1 1z" id="Shape"/><path data-cppathid="10015" d="m36 46c0 .5522847.4477153 1 1 1h3.25c.8037815.0007454 1.5545712-.4009272 2-1.07l.416-.625c.0738482-.1131839.1998551-.1814251.335-.1814251s.2611518.0682412.335.1814251l1.151 1.726c.4397266.6685636 1.1867909 1.070482 1.987 1.069.1275866-.0000845.2549725-.0101149.381-.03.9279251-.1379362 1.6877072-.8091619 1.939-1.713l.177-.618c.0434464-.161584.1828756-.279052.3494893-.294442s.3252011.0745503.3975107.225442c.4041803.8167887 1.2376831 1.3326373 2.149 1.33h3.133c.5522847 0 1-.4477153 1-1s-.4477153-1-1-1h-3.133c-.1527332.0004932-.292416-.0860325-.36-.223-.4411898-.888598-1.3836539-1.4141485-2.3715014-1.3224308-.9878476.0917176-1.8174454.7817968-2.0874986 1.7364308l-.176.619c-.0414443.1523546-.1686329.2660744-.3246577.2902777-.1560249.0242033-.3116885-.0456391-.3973423-.1782777l-1.15-1.722c-.4446589-.6703485-1.1955819-1.0733501-2-1.0733501s-1.5553411.4030016-2 1.0733501l-.417.624c-.0739845.1123441-.1994827.1799778-.334.18h-3.249c-.5507264-.0000044-.9977971.445278-1 .996z" id="Shape"/></g></g></svg>