<?xml version="1.0" encoding="UTF-8"?>
<svg xmlns="http://www.w3.org/2000/svg" onmouseup="{ if(window.parent.document.onmouseup) window.parent.document.onmouseup(arguments[0]);}" width="512" viewBox="0 0 512 512" height="512" enable-background="new 0 0 512 512" id="Capa_1"><g><path data-cppathid="10000" d="m382 158.787-14.393-14.393c-5.858-5.858-15.355-5.858-21.213 0-5.858 5.858-5.858 15.355 0 21.213l40 40c5.858 5.858 15.355 5.858 21.213 0l40-40c5.858-5.858 5.858-15.355 0-21.213-5.858-5.858-15.355-5.858-21.213 0l-14.394 14.393v-83.787c0-8.284-6.716-15-15-15h-120c-8.284 0-15 6.716-15 15s6.716 15 15 15h105z"/><path data-cppathid="10001" d="m235 422h-105v-68.787l14.393 14.393c5.858 5.858 15.355 5.858 21.213 0 5.858-5.858 5.858-15.355 0-21.213l-40-40c-5.858-5.858-15.355-5.858-21.213 0l-40 40c-5.858 5.858-5.858 15.355 0 21.213 5.858 5.858 15.355 5.858 21.213 0l14.394-14.393v83.787c0 8.284 6.716 15 15 15h120c8.284 0 15-6.716 15-15s-6.716-15-15-15z"/><path data-cppathid="10002" d="m497 482h-15v-100h-30v100h-40v-100h-30v100h-40v-100h-30v100h-15c-8.284 0-15 6.716-15 15s6.716 15 15 15h200c8.284 0 15-6.716 15-15s-6.716-15-15-15z"/><path data-cppathid="10003" d="m503.708 313.584-100-50c-4.223-2.111-9.193-2.111-13.416 0l-100 50c-5.082 2.541-8.292 7.734-8.292 13.416v10c0 8.284 6.716 15 15 15h200c8.284 0 15-6.716 15-15v-10c0-5.682-3.21-10.875-8.292-13.416z"/><path data-cppathid="10004" d="m230 235c0-8.284-6.716-15-15-15h-15v-100h-30v100h-40v-100h-30v100h-40v-100h-30v100h-15c-8.284 0-15 6.716-15 15s6.716 15 15 15h200c8.284 0 15-6.716 15-15z"/><path data-cppathid="10005" d="m15 90h200c8.284 0 15-6.716 15-15v-10c0-5.682-3.21-10.875-8.292-13.417l-100-50c-4.223-2.111-9.193-2.111-13.416 0l-100 50c-5.082 2.542-8.292 7.735-8.292 13.417v10c0 8.284 6.716 15 15 15z"/></g></svg>