<?xml version="1.0" encoding="UTF-8"?>
<svg xmlns="http://www.w3.org/2000/svg" onmouseup="{ if(window.parent.document.onmouseup) window.parent.document.onmouseup(arguments[0]);}" width="512" viewBox="0 0 512 512" height="512" id="Flat"><path data-cppathid="10000" transform="matrix(0 -1 1 0 320 584)" fill="#3ea7ff" d="m376 88h152v88h-152z"/><path data-cppathid="10001" fill="#a0cc00" d="m48 104h288v176h-288z"/><path data-cppathid="10002" fill="#f2e368" d="m168 104h48v176h-48z"/><g fill="#85b200"><path data-cppathid="10003" d="m112 104a63.99511 63.99511 0 0 1 -64 64v-64z"/><path data-cppathid="10004" d="m112 280h-64v-64a63.99511 63.99511 0 0 1 64 64z"/><path data-cppathid="10005" d="m336 104v64a63.99511 63.99511 0 0 1 -64-64z"/><path data-cppathid="10006" d="m336 216v64h-64a63.99511 63.99511 0 0 1 64-64z"/></g><path data-cppathid="10007" fill="#719600" d="m336 104h48v176h-48z"/><path data-cppathid="10008" fill="#ffc7cc" d="m254.05612 161.94112-4.11811 4.11776a33.94054 33.94054 0 0 0 -9.94192 24.00055v.00005a33.94052 33.94052 0 0 0 33.94052 33.94052h.00134a33.94051 33.94051 0 0 0 23.999-9.94036l30.06105-30.05964a45.25617 45.25617 0 0 0 64.00091.001l.00109-.001h16v-112l-132.56476-41.86148a43.72019 43.72019 0 0 0 -36.63748 4.80587l-50.55382 32.17061a43.72012 43.72012 0 0 0 -20.24785 36.885h62.06144a33.94051 33.94051 0 0 1 33.94047 33.94052v.00005a33.94054 33.94054 0 0 1 -9.94188 24.00055z"/><path data-cppathid="10009" fill="#ee818d" d="m232 384 10.09027-40.36112a22.564 22.564 0 0 1 29.0257-15.93355l1.30632.43544a22.564 22.564 0 0 1 13.4839 30.57025l-21.90619 49.28898h-40z"/><path data-cppathid="10010" fill="#fe99a0" d="m248 392 36.39091-60.65151a22.564 22.564 0 0 1 30.95759-7.7394 22.564 22.564 0 0 1 6.94288 32.19218l-58.29138 84.19873-40-24z"/><path data-cppathid="10011" fill="#ffc7cc" d="m372 340a28.27036 28.27036 0 0 0 -40 0l-60.67993 60.67993-17.65007 17.65015h-.00274a23.90318 23.90318 0 0 0 2.33274-10.33008 24 24 0 0 0 -24-24h-56l-8.00006-8a56.56854 56.56854 0 0 0 -79.99988 0h-.00006v72l13.41 9.58008a163.32623 163.32623 0 0 0 210.43012-17.42017l60.15988-60.15991a28.27639 28.27639 0 0 0 0-40z"/><path data-cppathid="10012" fill="#fe99a0" d="m272 408a40.04022 40.04022 0 0 1 -40 40h-72a8 8 0 0 1 0-16h72a24.025 24.025 0 0 0 21.66-13.66992h.01l17.65009-17.65015a39.24384 39.24384 0 0 1 .67991 7.32007z"/><path data-cppathid="10013" fill="#65dcff" d="m56 352h32v120h-32z"/><path data-cppathid="10014" fill="#3ea7ff" d="m16 344h40v144h-40z"/></svg>