<?xml version="1.0" encoding="UTF-8"?>
<svg xmlns="http://www.w3.org/2000/svg" onmouseup="{ if(window.parent.document.onmouseup) window.parent.document.onmouseup(arguments[0]);}" width="512" viewBox="0 0 512 512" height="512"><g id="FILLED_OUTLINE"><path data-cppathid="10000" fill="#575757" d="m441.52332 251.71368-17.52332-19.71368 4.895-29.36963a16.00018 16.00018 0 0 0 -15.78245-18.63037h-42.2251a16.00018 16.00018 0 0 0 -15.78245 18.63037l4.895 29.36963-17.52332 19.71368a183.99994 183.99994 0 0 0 -46.47668 122.24299v82.04333a32 32 0 0 0 32 32h128a32 32 0 0 0 32-32v-82.04333a183.99994 183.99994 0 0 0 -46.47668-122.24299z"/><path data-cppathid="10001" fill="#bebebe" d="m431.111 240-7.111-8 1.333-8h-66.666l1.333 8-7.111 8h21.138l-13.837 62.265 15.62 3.47 14.607-65.735h3.166l14.607 65.735 15.62-3.47-13.837-62.265z"/><path data-cppathid="10002" fill="#bebebe" d="m320 136h-288l-8-40 152-72 152 72z"/><circle data-cppathid="10003" r="16" fill="#dfdfdf" cy="88" cx="176"/><path data-cppathid="10004" fill="#bebebe" d="m24 312h280v48h-280z"/><g fill="#8c8c8c"><path data-cppathid="10005" d="m40 136h32v176h-32z"/><path data-cppathid="10006" d="m120 136h32v176h-32z"/><path data-cppathid="10007" d="m200 136h32v176h-32z"/><path data-cppathid="10008" d="m280 136v176h32v-176z"/></g><path data-cppathid="10009" fill="#4a7f38" d="m312 288h-144a16 16 0 0 0 -16 16v128a16 16 0 0 0 16 16h144z"/><rect data-cppathid="10010" y="328" x="136" width="256" rx="16" height="160" fill="#6bad55"/><path data-cppathid="10011" fill="#4a7f38" d="m349 384a13 13 0 0 1 -13-13v-11h-144v11a13 13 0 0 1 -13 13h-11v48h11a13 13 0 0 1 13 13v11h144v-11a13 13 0 0 1 13-13h11v-48z"/><circle data-cppathid="10012" r="32" fill="#ffc043" cy="408" cx="264"/><path data-cppathid="10013" fill="#6bad55" d="m320 400h16v16h-16z"/><path data-cppathid="10014" fill="#6bad55" d="m192 400h16v16h-16z"/><path data-cppathid="10015" fill="#f7750b" d="m480 120v28.686l-64-64-24 24-98.343-98.343-11.314 11.314 109.657 109.657 24-24 52.686 52.686h-28.686v16h56v-56z"/><path data-cppathid="10016" fill="#f7750b" d="m368 24h32v16h-32z"/><path data-cppathid="10017" fill="#f7750b" d="m448 56h32v16h-32z"/><path data-cppathid="10018" fill="#ef9d0c" d="m71.99994 392a47.99993 47.99993 0 0 0 -47.99994 47.99994v.00012a47.99993 47.99993 0 0 0 47.99994 47.99994h32.00006v-96z"/><circle data-cppathid="10019" r="48" fill="#ffc043" cy="440" cx="104"/><path data-cppathid="10020" d="m480 120v28.686l-64-64-24 24-98.343-98.343-11.314 11.314 109.657 109.657 24-24 52.686 52.686h-28.686v16h56v-56z"/><path data-cppathid="10021" d="m176 112a24 24 0 1 0 -24-24 24.02687 24.02687 0 0 0 24 24zm0-32a8 8 0 1 1 -8 8 8.00917 8.00917 0 0 1 8-8z"/><path data-cppathid="10022" d="m344 371v-19h-40v16h24v3a21.02359 21.02359 0 0 0 21 21h3v32h-3a21.02359 21.02359 0 0 0 -21 21v3h-24v16h40v-19a5.00588 5.00588 0 0 1 5-5h19v-64h-19a5.00588 5.00588 0 0 1 -5-5z"/><path data-cppathid="10023" d="m184 445v19h40v-16h-24v-3a21.02359 21.02359 0 0 0 -21-21h-3v-32h3a21.02359 21.02359 0 0 0 21-21v-3h24v-16h-40v19a5.00588 5.00588 0 0 1 -5 5h-19v64h19a5.00588 5.00588 0 0 1 5 5z"/><path data-cppathid="10024" d="m264 368a40 40 0 1 0 40 40 40.04521 40.04521 0 0 0 -40-40zm0 64a24 24 0 1 1 24-24 24.0275 24.0275 0 0 1 -24 24z"/><path data-cppathid="10025" d="m320 400h16v16h-16z"/><path data-cppathid="10026" d="m192 400h16v16h-16z"/><path data-cppathid="10027" d="m432.52 229.54346 4.26611-25.59766a24.00022 24.00022 0 0 0 -23.67332-27.9458h-42.22558a24.00022 24.00022 0 0 0 -23.67334 27.9458l4.26613 25.59766-14.98291 16.85547a191.033 191.033 0 0 0 -16.49709 21.48382v-123.88275h6.55859l10.51123-52.55615-161.06982-76.29585-161.06982 76.29585 10.51123 52.55615h6.55859v160h-16v64h112v21.41437a55.6582 55.6582 0 0 0 -24-5.41437h-32a56 56 0 0 0 0 112h32a55.64937 55.64937 0 0 0 29.66632-8.53613 23.95336 23.95336 0 0 0 18.33368 8.53613h304a40.04521 40.04521 0 0 0 40-40v-82.04346a191.80793 191.80793 0 0 0 -48.49707-127.55761zm-67.7368-34.71436a7.8813 7.8813 0 0 1 6.104-2.8291h42.22558a8.00022 8.00022 0 0 1 7.89112 9.31494l-3.781 22.68506h-50.4458l-3.781-22.68506a7.88055 7.88055 0 0 1 1.7871-6.48584zm-204.7832 125.1709v-13.7168a10.29518 10.29518 0 0 1 10.2832-10.2832h134.29956a191.881 191.881 0 0 0 -8.83606 24zm-48-176v160h-32v-160zm16 0h16v160h-16zm112 136v-136h32v136zm-16 0h-16v-136h16zm-32 0h-21.7168a26.13539 26.13539 0 0 0 -10.2832 2.097v-138.097h32zm112 0h-16v-136h16zm-128-247.14795 142.93018 67.7041-5.48877 27.44385h-274.88282l-5.48877-27.44385zm-128 111.14795h16v160h-16zm-16 208v-32h112v1.37622a24.03837 24.03837 0 0 0 -16 22.62378v8zm0 88a40.06627 40.06627 0 0 1 32.06531-39.20679 55.874 55.874 0 0 0 0 78.41358 40.06627 40.06627 0 0 1 -32.06531-39.20679zm32 0a40 40 0 1 1 40 40 40.04521 40.04521 0 0 1 -40-40zm88 40a7.98416 7.98416 0 0 1 -6.12976-2.869 55.861 55.861 0 0 0 -1.87024-76.26931v-56.86169a8.00917 8.00917 0 0 1 8-8h224a8.00917 8.00917 0 0 1 8 8v128a8.00917 8.00917 0 0 1 -8 8zm328-24a24.02687 24.02687 0 0 1 -24 24h-57.37622a23.88212 23.88212 0 0 0 1.37622-8v-128a24.0275 24.0275 0 0 0 -24-24h-63.52026a176.89507 176.89507 0 0 1 35.97631-62.97119l15.13648-17.02881h10.43457l-13.83667 62.26465 15.61914 3.4707 14.60791-65.73535h3.165l14.60791 65.73535 15.61914-3.4707-13.83663-62.26465h10.43457l15.137 17.02881a175.82481 175.82481 0 0 1 44.45553 116.92773z"/><path data-cppathid="10028" d="m368 24h32v16h-32z"/><path data-cppathid="10029" d="m448 56h32v16h-32z"/></g></svg>