<?xml version="1.0" encoding="UTF-8"?>
<svg xmlns="http://www.w3.org/2000/svg" onmouseup="{ if(window.parent.document.onmouseup) window.parent.document.onmouseup(arguments[0]);}" width="512" viewBox="0 0 512.396 512.396" height="512" enable-background="new 0 0 512.396 512.396" id="Capa_1"><g><path data-cppathid="10000" fill="#cdbfba" d="m97.714 99.149h321.905v321.905h-321.905z"/><g><path data-cppathid="10001" fill="#e1d3ce" d="m396.692 154.058h37.476v235.743h-37.476z"/></g><g><path data-cppathid="10002" fill="#e1d3ce" d="m80.905 158.001h37.476v209.568h-37.476z"/></g><g fill="#f3eae6"><path data-cppathid="10003" d="m380.643 130.487v17.872l7.696 26.058c1.394 4.721 5.73 7.961 10.652 7.961h32.878c4.922 0 9.258-3.24 10.652-7.961l7.696-26.058v-17.872z"/><path data-cppathid="10004" d="m64.856 132.465v15.894l7.696 26.058c1.394 4.721 5.73 7.961 10.652 7.961h32.878c4.922 0 9.258-3.24 10.652-7.961l7.696-26.058v-15.894z"/><path data-cppathid="10005" d="m479.136 99.149-213.505-89.769c-6.031-2.536-12.831-2.527-18.855.025l-211.838 89.744v24.605h444.198z"/><path data-cppathid="10006" d="m312.871 204.193c0-30.836-24.998-55.834-55.834-55.834-30.836 0-55.834 24.998-55.834 55.834v61.695h30v-61.695c0-14.245 11.589-25.834 25.834-25.834s25.834 11.589 25.834 25.834v61.695h30z"/></g><g><path data-cppathid="10007" fill="#efe2dd" d="m419.677 74.15h-177.192c-4.653 0-5.95-6.386-1.665-8.201l79.376-33.627-54.565-22.942c-6.031-2.536-12.831-2.527-18.855.025l-211.838 89.744v24.605h86.68v-7.306l31.246-13.237v20.543h326.272v-24.605z"/><path data-cppathid="10008" fill="#e1d3ce" d="m479.136 148.359h-444.198c-6.413 0-11.611-5.199-11.611-11.611v-25.987c0-6.413 5.199-11.611 11.611-11.611h444.198c6.413 0 11.611 5.199 11.611 11.611v25.987c0 6.413-5.199 11.611-11.611 11.611z"/><path data-cppathid="10009" fill="#cdbfba" d="m146.933 136.748v-25.987c0-6.413 5.199-11.611 11.611-11.611h-123.606c-6.413 0-11.611 5.198-11.611 11.611v25.987c0 6.413 5.199 11.611 11.611 11.611h123.607c-6.414 0-11.612-5.198-11.612-11.611z"/><path data-cppathid="10010" fill="#f3eae6" d="m126.734 358.521c-1.394-4.721-5.73-7.961-10.652-7.961h-32.878c-4.922 0-9.258 3.24-10.652 7.961l-7.696 26.057v10.409h69.574v-10.409z"/><path data-cppathid="10011" fill="#f3eae6" d="m442.522 358.521c-1.394-4.721-5.73-7.961-10.652-7.961h-32.878c-4.922 0-9.258 3.24-10.652 7.961l-7.696 26.057v15.842h69.574v-15.842z"/><path data-cppathid="10012" fill="#efe2dd" d="m448.606 384.578h-383.139c-9.396 0-17.013 7.617-17.013 17.013v53.48h417.165v-53.48c0-9.396-7.617-17.013-17.013-17.013z"/><path data-cppathid="10013" fill="#e1d3ce" d="m178.206 384.578h-112.739c-9.396 0-17.013 7.617-17.013 17.013v53.48h112.739v-53.48c0-9.396 7.617-17.013 17.013-17.013z"/><path data-cppathid="10014" fill="#e1d3ce" d="m468.092 435.071h-422.11c-9.396 0-17.013 7.617-17.013 17.013v52.628h456.136v-52.628c-.001-9.396-7.617-17.013-17.013-17.013z"/><path data-cppathid="10015" fill="#cdbfba" d="m158.721 435.071h-112.739c-9.396 0-17.013 7.617-17.013 17.013v52.628h112.739v-52.628c0-9.396 7.617-17.013 17.013-17.013z"/><path data-cppathid="10016" fill="#fef0ae" d="m313.06 384.578h-113.724c-15.025 0-27.206-12.18-27.206-27.206v-95.862c0-15.025 12.18-27.206 27.206-27.206h113.724c15.025 0 27.206 12.18 27.206 27.206v95.862c0 15.026-12.181 27.206-27.206 27.206z"/><path data-cppathid="10017" fill="#fee97d" d="m227.803 291.901c0-15.025 12.18-27.206 27.206-27.206h85.257v-3.184c0-15.025-12.18-27.206-27.206-27.206h-113.724c-15.025 0-27.206 12.18-27.206 27.206v95.861c0 15.025 12.18 27.206 27.206 27.206h28.467z"/><circle data-cppathid="10018" r="17.703" fill="#e1d3ce" cy="55.143" cx="257.537"/><path data-cppathid="10019" fill="#fedf30" d="m278.252 293.791c0-11.811-9.884-21.313-21.832-20.686-10.743.564-19.408 9.564-19.595 20.321-.095 5.468 1.947 10.444 5.323 14.197l-3.533 22.029c-.941 5.865 3.589 11.179 9.529 11.179h18.787c5.939 0 10.469-5.314 9.529-11.179l-3.533-22.029c3.299-3.669 5.325-8.508 5.325-13.832z"/></g><g><path data-cppathid="10020" d="m504.808 497.396h-12.204v-45.312c0-11.794-8.373-21.667-19.485-23.992v-26.501c0-10.875-7.12-20.113-16.942-23.311l-6.463-21.884c-1.317-4.459-4.255-8.151-8.046-10.513v-9.104c0-4.143-3.358-7.5-7.5-7.5s-7.5 3.357-7.5 7.5v6.279h-22.476v-6.279c0-4.143-3.358-7.5-7.5-7.5s-7.5 3.357-7.5 7.5v9.104c-3.791 2.361-6.729 6.053-8.046 10.512l-6.108 20.682h-33.432c3.879-5.602 6.159-12.391 6.159-19.706v-42.918h6.435c11.128 0 20.573-7.333 23.764-17.42h21.55c3.191 10.086 12.636 17.419 23.763 17.419h29.687c13.74 0 24.919-11.179 24.919-24.919s-11.179-24.919-24.919-24.919h-29.687c-11.128 0-20.573 7.333-23.763 17.419h-21.551c-3.191-10.086-12.636-17.418-23.763-17.418h-6.435v-3.105c0-16.629-11.758-30.558-27.395-33.925v-23.393c0-19.36-8.74-36.708-22.472-48.335h77.139l6.108 20.682c1.317 4.459 4.255 8.151 8.046 10.513v55.235c0 4.143 3.358 7.5 7.5 7.5s7.5-3.357 7.5-7.5v-52.411h22.476v52.411c0 4.143 3.358 7.5 7.5 7.5s7.5-3.357 7.5-7.5v-55.235c3.791-2.361 6.729-6.053 8.046-10.513l6.108-20.682h23.313c10.538 0 19.111-8.573 19.111-19.111v-25.986c0-9.957-7.657-18.15-17.391-19.024l-212.316-89.27c-7.85-3.3-16.848-3.287-24.688.033l-210.644 89.238c-9.729.879-17.38 9.07-17.38 19.024v25.986c0 10.538 8.573 19.111 19.111 19.111h24.313l6.108 20.682c1.317 4.46 4.255 8.152 8.046 10.513v55.235c0 4.143 3.358 7.5 7.5 7.5s7.5-3.357 7.5-7.5v-52.411h22.476v52.411c0 4.143 3.358 7.5 7.5 7.5s7.5-3.357 7.5-7.5v-55.235c3.791-2.361 6.729-6.053 8.046-10.513l6.108-20.682h20.801c4.142 0 7.5-3.357 7.5-7.5s-3.358-7.5-7.5-7.5h-125.897c-2.267 0-4.111-1.845-4.111-4.111v-25.986c0-2.262 1.838-4.104 4.099-4.11.021 0 .041-.001.062-.001h308.336c4.142 0 7.5-3.357 7.5-7.5s-3.358-7.5-7.5-7.5h-271.455l177.834-75.339c4.134-1.752 8.88-1.759 13.022-.017l179.222 75.356h-66.661c-4.142 0-7.5 3.357-7.5 7.5s3.358 7.5 7.5 7.5h103.806c.013 0 .027.002.04.002.004 0 .009-.001.013-.001 2.262.005 4.102 1.847 4.102 4.11v25.986c0 2.267-1.844 4.111-4.111 4.111h-286.337c-4.142 0-7.5 3.357-7.5 7.5s3.358 7.5 7.5 7.5h23.375c-13.731 11.627-22.472 28.975-22.472 48.335v23.075c-16.467 2.7-29.073 17.024-29.073 34.242v3.104h-7.757c-11.128 0-20.573 7.333-23.763 17.419h-21.551c-3.191-10.086-12.636-17.419-23.763-17.419h-29.687c-13.74 0-24.919 11.179-24.919 24.919s11.179 24.919 24.919 24.919h29.687c11.128 0 20.573-7.333 23.763-17.419h21.551c3.191 10.086 12.636 17.419 23.763 17.419h7.757v42.919c0 7.315 2.28 14.104 6.159 19.706h-30.754l-6.108-20.683c-1.317-4.459-4.256-8.15-8.046-10.512v-9.104c0-4.143-3.358-7.5-7.5-7.5s-7.5 3.357-7.5 7.5v6.279h-22.475v-6.279c0-4.143-3.358-7.5-7.5-7.5s-7.5 3.357-7.5 7.5v9.104c-3.791 2.361-6.729 6.053-8.046 10.513l-6.366 21.556c-10.384 2.847-18.039 12.363-18.039 23.638v26.501c-11.113 2.326-19.485 12.198-19.485 23.992v45.312h-13.882c-4.142 0-7.5 3.357-7.5 7.5s3.358 7.5 7.5 7.5h497.221c4.142 0 7.5-3.357 7.5-7.5s-3.358-7.498-7.5-7.498zm-69.479-325.104c-.45 1.522-1.872 2.585-3.459 2.585h-32.878c-1.587 0-3.01-1.063-3.459-2.585l-4.854-16.433h49.504zm-315.787 0c-.45 1.521-1.872 2.585-3.459 2.585h-32.879c-1.587 0-3.009-1.063-3.459-2.585l-4.854-16.433h49.504zm275.99 188.354c.45-1.522 1.872-2.586 3.459-2.586h32.878c1.587 0 3.009 1.063 3.459 2.585l4.854 16.434h-49.504zm27.746-81.031h29.687c5.469 0 9.919 4.449 9.919 9.919s-4.45 9.919-9.919 9.919h-29.687c-5.469 0-9.919-4.449-9.919-9.919s4.45-9.919 9.919-9.919zm-69.078.001c5.469 0 9.919 4.449 9.919 9.918 0 5.47-4.45 9.92-9.919 9.92h-6.435v-19.838zm-97.163-123.757c26.651 0 48.334 21.683 48.334 48.335v22.611h-15v-22.611c0-18.381-14.954-33.334-33.334-33.334s-33.334 14.953-33.334 33.334v22.611h-15v-22.611c0-26.653 21.682-48.335 48.334-48.335zm-18.334 70.946v-22.611c0-10.109 8.225-18.334 18.334-18.334s18.334 8.225 18.334 18.334v22.611zm-150.908 72.648h-29.687c-5.469 0-9.919-4.449-9.919-9.919s4.45-9.919 9.919-9.919h29.687c5.469 0 9.919 4.449 9.919 9.919s-4.449 9.919-9.919 9.919zm69.078 0c-5.469 0-9.919-4.449-9.919-9.919s4.45-9.919 9.919-9.919h7.757v19.838zm22.757 57.919v-95.861c0-10.866 8.84-19.706 19.706-19.706h113.724c10.866 0 19.706 8.84 19.706 19.706v95.861c0 10.866-8.84 19.706-19.706 19.706h-113.724c-10.866 0-19.706-8.84-19.706-19.706zm-99.885 3.273c.45-1.521 1.872-2.585 3.459-2.585h32.878c1.587 0 3.01 1.063 3.459 2.585l4.854 16.434h-49.504zm-43.276 91.439c0-5.245 4.268-9.513 9.513-9.513h54.648c4.142 0 7.5-3.357 7.5-7.5s-3.358-7.5-7.5-7.5h-44.676v-25.98c0-5.245 4.268-9.513 9.513-9.513h383.139c5.246 0 9.513 4.268 9.513 9.513v25.98h-325.527c-4.142 0-7.5 3.357-7.5 7.5s3.358 7.5 7.5 7.5h335.5c5.245 0 9.513 4.268 9.513 9.513v45.312h-441.136z"/><path data-cppathid="10021" d="m232.334 55.143c0 13.897 11.306 25.203 25.203 25.203s25.203-11.306 25.203-25.203-11.306-25.203-25.203-25.203-25.203 11.305-25.203 25.203zm35.406 0c0 5.626-4.577 10.203-10.203 10.203s-10.203-4.577-10.203-10.203 4.577-10.203 10.203-10.203 10.203 4.577 10.203 10.203z"/><path data-cppathid="10022" d="m276.956 273.322c-5.67-5.38-13.104-8.118-20.93-7.706-14.715.772-26.443 12.931-26.7 27.68-.102 5.871 1.62 11.559 4.9 16.359l-3.017 18.809c-.797 4.968.618 10.013 3.881 13.842s8.021 6.025 13.052 6.025h18.787c5.031 0 9.789-2.196 13.052-6.025s4.678-8.874 3.881-13.841l-3.017-18.812c3.184-4.662 4.905-10.174 4.905-15.862.002-7.704-3.205-15.165-8.794-20.469zm-11.436 35.489 3.533 22.03c.137.853-.246 1.453-.487 1.734-.24.282-.772.756-1.636.756h-18.787c-.864 0-1.396-.474-1.636-.756-.241-.281-.624-.882-.487-1.735l3.533-22.029c.359-2.238-.313-4.519-1.829-6.203-2.25-2.502-3.458-5.717-3.4-9.051.118-6.792 5.721-12.605 12.489-12.962.242-.013.483-.019.723-.019 3.409 0 6.615 1.273 9.095 3.627 2.658 2.521 4.121 5.927 4.121 9.588 0 3.247-1.208 6.378-3.402 8.815-1.516 1.686-2.189 3.966-1.83 6.205z"/></g></g></svg>