<?xml version="1.0" encoding="UTF-8"?>
<svg xmlns="http://www.w3.org/2000/svg" onmouseup="{ if(window.parent.document.onmouseup) window.parent.document.onmouseup(arguments[0]);}" width="512" viewBox="0 0 512 512" height="512" id="Flat"><path data-cppathid="10000" fill="#fff1d8" d="m288 328v160h-192v-168l88-64z"/><path data-cppathid="10001" fill="#eedbc4" d="m288 328h143.5v160h-143.5z"/><path data-cppathid="10002" fill="#fc7" d="m128 392h48v96h-48z"/><path data-cppathid="10003" fill="#fc7" d="m320 392h80v48h-80z"/><path data-cppathid="10004" fill="#fcb73f" d="m48 360 136-96 136 96 24-32-160-112-160 112z"/><path data-cppathid="10005" fill="#fc7" d="m488 328h-144l-160-112h152z"/><path data-cppathid="10006" fill="#fda725" d="m488 328-16 32h-152l24-32z"/><path data-cppathid="10007" fill="#fc7" d="m208 392h48v48h-48z"/><path data-cppathid="10008" fill="#87633e" d="m352 216h64v72h-64z"/><path data-cppathid="10009" fill="#bc8d5d" d="m352 216v72l-48-32v-40z"/><path data-cppathid="10010" fill="#3ea7ff" d="m312 183.862h-208v48.138l-48-48.138h-32v-159.862h288z"/><path data-cppathid="10011" fill="#a0cc00" d="m56 56h224v95.862h-224z"/><g fill="#85b200"><path data-cppathid="10012" d="m104 152a48 48 0 0 0 -48-48v48z"/><path data-cppathid="10013" d="m56 104a48 48 0 0 0 48-48h-48z"/><path data-cppathid="10014" d="m232 56a48 48 0 0 0 48 48v-48z"/><path data-cppathid="10015" d="m280 104a48 48 0 0 0 -48 48h48z"/></g><path data-cppathid="10016" fill="#f2e368" d="m192 80v-16h-16v-16h-16v16h-8a8.00008 8.00008 0 0 0 -8 8v32a8.00008 8.00008 0 0 0 8 8h24v16h-32v16h16v16h16v-16h8a8.00008 8.00008 0 0 0 8-8v-32a8.00008 8.00008 0 0 0 -8-8h-24v-16z"/></svg>