<?xml version="1.0" encoding="UTF-8"?>
<svg xmlns="http://www.w3.org/2000/svg" onmouseup="{ if(window.parent.document.onmouseup) window.parent.document.onmouseup(arguments[0]);}" width="512" viewBox="0 0 512 512" height="512"><g id="flat"><path data-cppathid="10000" fill="#0e3e86" d="m344 316v176h-80v-96h-16v96h-80v-176z"/><path data-cppathid="10001" fill="#092f6a" d="m168 316-6.757 2.7a106.456 106.456 0 0 1 -67.765 3.8l-5.478-1.5 9.9 8.66a106.459 106.459 0 0 0 70.1 26.34l24.01-40z"/><path data-cppathid="10002" fill="#855ef7" d="m425.95 136.94-9.82 47.08-72.13-12.02v144h-176v-144l-72.13 12.02-9.82-47.08 71.1-11.23a139.976 139.976 0 0 1 21.83-1.71h154.04a139.976 139.976 0 0 1 21.83 1.71z"/><path data-cppathid="10003" fill="#ffb3d0" d="m104.083 316.25 3.2 12.811a2.56 2.56 0 0 1 -2.49 3.181 13.005 13.005 0 0 1 -8.72-3.386l-7.993-7.276v31.79a3.987 3.987 0 0 1 -2.74 3.79l-17.25 5.75a3.986 3.986 0 0 1 -5.12-2.74l-45.457-166.69a40.452 40.452 0 0 1 32.73-50.62l35.89-5.67 9.82 47.08-23.87 3.98z"/><path data-cppathid="10004" fill="#ffb3d0" d="m272.015 124 .063-40h-32.078v40l16 12z"/><path data-cppathid="10005" fill="#e67199" d="m252 92h20a0 0 0 0 1 0 0v24a0 0 0 0 1 0 0 20 20 0 0 1 -20-20v-4a0 0 0 0 1 0 0z"/><path data-cppathid="10006" fill="#ffb3d0" d="m240 44.849h48v47.151a16 16 0 0 1 -16 16 32 32 0 0 1 -32-32z"/><path data-cppathid="10007" fill="#092f6a" d="m304 36v11.423a20.6 20.6 0 0 1 -20.721 20.6 20.6 20.6 0 0 1 -6.39-1.057l-20.889-6.966a20 20 0 0 1 -20 20h-4v-26.507a25.494 25.494 0 0 1 25.493-25.493 25.492 25.492 0 0 1 11 2.5l6.287 3.008a25.5 25.5 0 0 0 11 2.5z"/><circle data-cppathid="10008" r="12" fill="#ffb3d0" cy="80" cx="244"/><path data-cppathid="10009" fill="#603ec5" d="m271.93 148-7.93 16 12 152-20 32-20-32 12-152-8-16 16-8z"/><path data-cppathid="10010" fill="#7048e8" d="m288 160a4 4 0 0 1 -1.788-.422l-30.212-15.106-30.211 15.106a4 4 0 0 1 -4.618-.749l-16-16a4 4 0 0 1 5.658-5.658l13.961 13.962 29.421-14.711a4 4 0 0 1 3.578 0l29.421 14.711 13.961-13.962a4 4 0 0 1 5.658 5.658l-16 16a4 4 0 0 1 -2.829 1.171z"/><path data-cppathid="10011" fill="#092f6a" d="m418.522 322.506a106.456 106.456 0 0 1 -67.765-3.8l-6.757-2.706h-24l24 40a106.459 106.459 0 0 0 70.1-26.34l9.9-8.66z"/><g fill="#f5a000"><path data-cppathid="10012" d="m120 392a4 4 0 0 1 -2.829-6.829l8-8a4 4 0 0 1 5.658 5.658l-8 8a3.994 3.994 0 0 1 -2.829 1.171z"/><path data-cppathid="10013" d="m144 400a4 4 0 0 1 -4-4v-12a4 4 0 0 1 8 0v12a4 4 0 0 1 -4 4z"/><path data-cppathid="10014" d="m120 368h-12a4 4 0 0 1 0-8h12a4 4 0 0 1 0 8z"/><path data-cppathid="10015" d="m392 400a3.994 3.994 0 0 1 -2.829-1.171l-8-8a4 4 0 0 1 5.658-5.658l8 8a4 4 0 0 1 -2.829 6.829z"/><path data-cppathid="10016" d="m368 408a4 4 0 0 1 -4-4v-12a4 4 0 0 1 8 0v12a4 4 0 0 1 -4 4z"/><path data-cppathid="10017" d="m404 376h-12a4 4 0 0 1 0-8h12a4 4 0 0 1 0 8z"/></g><path data-cppathid="10018" fill="#ffb3d0" d="m496 182.58a40.321 40.321 0 0 1 -1.43 10.65l-45.46 166.69a3.986 3.986 0 0 1 -5.12 2.74l-17.25-5.75a3.987 3.987 0 0 1 -2.74-3.79v-31.79l-7.708 7.016a14 14 0 0 1 -9.39 3.647 2.26 2.26 0 0 1 -2.2-2.808l3.298-13.185 32-128-23.87-3.98 9.82-47.08 35.89 5.67a40.454 40.454 0 0 1 34.16 39.97z"/></g></svg>