<?xml version="1.0" encoding="UTF-8"?>
<svg xmlns="http://www.w3.org/2000/svg" onmouseup="{ if(window.parent.document.onmouseup) window.parent.document.onmouseup(arguments[0]);}" width="512" viewBox="0 0 512 512" height="512"><g id="FLAT"><rect data-cppathid="10000" y="152" x="360" width="128" rx="16" height="336" fill="#ffc043"/><g fill="#ef9d0c"><path data-cppathid="10001" d="m360 200h128v48h-128z"/><path data-cppathid="10002" d="m360 296h128v48h-128z"/><path data-cppathid="10003" d="m360 392h128v48h-128z"/></g><rect data-cppathid="10004" y="200" x="192" width="128" rx="16" height="288" fill="#ffc043"/><path data-cppathid="10005" fill="#ef9d0c" d="m192 248h128v48h-128z"/><path data-cppathid="10006" fill="#ef9d0c" d="m192 344h128v48h-128z"/><path data-cppathid="10007" fill="#ef9d0c" d="m192 440v32a16 16 0 0 0 16 16h96a16 16 0 0 0 16-16v-32z"/><rect data-cppathid="10008" y="296" x="24" width="128" rx="16" height="192" fill="#ffc043"/><path data-cppathid="10009" fill="#ef9d0c" d="m24 344h128v48h-128z"/><path data-cppathid="10010" fill="#ef9d0c" d="m24 440h128v32a16 16 0 0 1 -16 16h-96a16 16 0 0 1 -16-16z"/><circle data-cppathid="10011" r="64" fill="#ef9d0c" cy="88" cx="424"/><path data-cppathid="10012" fill="#6bad55" d="m280 16v16h28.686l-92.686 92.687-40-40-157.657 157.656 11.314 11.314 146.343-146.344 40 40 104-103.999v28.686h16v-56z"/><path data-cppathid="10013" fill="#f7750b" d="m104 120h-28.686l84.686-84.687 56 56 53.657-53.656-11.314-11.314-42.343 42.344-56-56-96 95.999v-28.686h-16v56h56z"/><path data-cppathid="10014" fill="#a6c699" d="m312 112h-16v16h-16v16h16v16h16v-16h16v-16h-16z"/><path data-cppathid="10015" fill="#ffa76c" d="m104 224h48v16h-48z"/><path data-cppathid="10016" fill="#d88b0f" d="m408 328h-40v160h40a80.00005 80.00005 0 0 0 80-80 80.00005 80.00005 0 0 0 -80-80z"/><path data-cppathid="10017" fill="#c17911" d="m481.32422 376a79.92435 79.92435 0 0 0 -9.32324-16h-40a79.92435 79.92435 0 0 1 9.32324 16z"/><circle data-cppathid="10018" r="80" fill="#f7ac06" cy="408" cx="368"/><path data-cppathid="10019" fill="#c17911" d="m488 408c0-2.70044-.13818-5.36841-.39941-8h-40c.26123 2.63159.39941 5.29956.39941 8s-.13818 5.36841-.39941 8h40c.26123-2.63159.39941-5.29956.39941-8z"/><path data-cppathid="10020" fill="#c17911" d="m481.32422 440h-40a79.92435 79.92435 0 0 1 -9.32324 16h40a79.92435 79.92435 0 0 0 9.32324-16z"/><circle data-cppathid="10021" r="80" fill="#f7ac06" cy="408" cx="368"/><path data-cppathid="10022" transform="matrix(.573 -.819 .819 .573 -178.989 472.211)" fill="#f4f4f4" d="m315.174 400h97.652v16h-97.652z"/><path data-cppathid="10023" fill="#f4f4f4" d="m344 368h16v16h-16z"/><path data-cppathid="10024" fill="#f4f4f4" d="m368 432h16v16h-16z"/></g></svg>