<?xml version="1.0" encoding="UTF-8"?>
<svg xmlns="http://www.w3.org/2000/svg" onmouseup="{ if(window.parent.document.onmouseup) window.parent.document.onmouseup(arguments[0]);}" width="512" viewBox="0 0 512 512" height="512"><g id="FLAT"><path data-cppathid="10000" fill="#575757" d="m441.52332 251.71368-17.52332-19.71368 4.895-29.36963a16.00018 16.00018 0 0 0 -15.78245-18.63037h-42.2251a16.00018 16.00018 0 0 0 -15.78245 18.63037l4.895 29.36963-17.52332 19.71368a183.99994 183.99994 0 0 0 -46.47668 122.24299v82.04333a32 32 0 0 0 32 32h128a32 32 0 0 0 32-32v-82.04333a183.99994 183.99994 0 0 0 -46.47668-122.24299z"/><path data-cppathid="10001" fill="#bebebe" d="m431.111 240-7.111-8 1.333-8h-66.666l1.333 8-7.111 8h21.138l-13.837 62.265 15.62 3.47 14.607-65.735h3.166l14.607 65.735 15.62-3.47-13.837-62.265z"/><path data-cppathid="10002" fill="#bebebe" d="m320 136h-288l-8-40 152-72 152 72z"/><circle data-cppathid="10003" r="16" fill="#dfdfdf" cy="88" cx="176"/><path data-cppathid="10004" fill="#bebebe" d="m24 312h304v48h-304z"/><g fill="#8c8c8c"><path data-cppathid="10005" d="m40 136h32v176h-32z"/><path data-cppathid="10006" d="m120 136h32v176h-32z"/><path data-cppathid="10007" d="m200 136h32v176h-32z"/><path data-cppathid="10008" d="m280 136v176h32v-176z"/></g><rect data-cppathid="10009" y="288" x="152" width="256" rx="16" height="160" fill="#4a7f38"/><rect data-cppathid="10010" y="328" x="136" width="256" rx="16" height="160" fill="#6bad55"/><path data-cppathid="10011" fill="#4a7f38" d="m349 384a13 13 0 0 1 -13-13v-11h-144v11a13 13 0 0 1 -13 13h-11v48h11a13 13 0 0 1 13 13v11h144v-11a13 13 0 0 1 13-13h11v-48z"/><circle data-cppathid="10012" r="32" fill="#ffc043" cy="408" cx="264"/><path data-cppathid="10013" fill="#6bad55" d="m320 400h16v16h-16z"/><path data-cppathid="10014" fill="#6bad55" d="m192 400h16v16h-16z"/><path data-cppathid="10015" fill="#f7750b" d="m480 120v28.686l-64-64-24 24-98.343-98.343-11.314 11.314 109.657 109.657 24-24 52.686 52.686h-28.686v16h56v-56z"/><path data-cppathid="10016" fill="#f7750b" d="m368 24h32v16h-32z"/><path data-cppathid="10017" fill="#f7750b" d="m448 56h32v16h-32z"/><path data-cppathid="10018" fill="#ef9d0c" d="m71.99994 392a47.99993 47.99993 0 0 0 -47.99994 47.99994v.00012a47.99993 47.99993 0 0 0 47.99994 47.99994h32.00006v-96z"/><circle data-cppathid="10019" r="48" fill="#ffc043" cy="440" cx="104"/></g></svg>