<?xml version="1.0" encoding="UTF-8"?>
<svg xmlns="http://www.w3.org/2000/svg" onmouseup="{ if(window.parent.document.onmouseup) window.parent.document.onmouseup(arguments[0]);}" width="512" viewBox="0 0 64 64" height="512" enable-background="new 0 0 64 64" id="Layer_35"><g><g><g><path data-cppathid="10000" fill="#ccd1d9" d="m28 24h8v32h-8z"/></g><g><path data-cppathid="10001" fill="#aab2bd" d="m62 60v2h-60v-2c0-2.21 1.79-4 4-4h14 8 4 4 8 14c2.21 0 4 1.79 4 4z"/></g><g><path data-cppathid="10002" fill="#ff826e" d="m33.85 2.53c-.56-.35-1.2-.53-1.85-.53s-1.29.18-1.85.53l-28.15 17.47c0 2.21 1.79 4 4 4h6 16 4 4 16 6c1.1 0 2.1-.45 2.83-1.17.72-.73 1.17-1.73 1.17-2.83z"/></g><g><path data-cppathid="10003" fill="#fc6e51" d="m54.42 20h-44.84l22.42-13.91z"/></g><g><circle data-cppathid="10004" r="2" fill="#69d6f4" cy="14" cx="32"/></g><g><path data-cppathid="10005" fill="#ffc729" d="m58 44h2c1.1 0 2 .9 2 2v2c0 1.1-.9 2-2 2h-2-4-4-4-2c-1.1 0-2-.9-2-2v-2c0-1.1.9-2 2-2h2 4 2 2z"/></g><g><path data-cppathid="10006" fill="#ffc729" d="m18 44h2c1.1 0 2 .9 2 2v2c0 1.1-.9 2-2 2h-2-4-4-4-2c-1.1 0-2-.9-2-2v-2c0-1.1.9-2 2-2h2 4 2 2z"/></g><g><path data-cppathid="10007" fill="#fcd770" d="m60 50c1.1 0 2 .9 2 2v2c0 1.1-.9 2-2 2h-2-14c-1.1 0-2-.9-2-2v-2c0-1.1.9-2 2-2h2 4 4 4z"/></g><g><circle data-cppathid="10008" r="10" fill="#fcd770" cy="34" cx="52"/></g><g><path data-cppathid="10009" fill="#fcd770" d="m20 50c1.1 0 2 .9 2 2v2c0 1.1-.9 2-2 2h-14-2c-1.1 0-2-.9-2-2v-2c0-1.1.9-2 2-2h2 4 4 4z"/></g><g><circle data-cppathid="10010" r="10" fill="#fcd770" cy="34" cx="12"/></g></g><g><path data-cppathid="10011" transform="matrix(.275 -.962 .962 .275 -23.988 36.207)" d="m4.72 33h14.56v2h-14.56z"/><circle data-cppathid="10012" r="1" cy="35" cx="16"/><circle data-cppathid="10013" r="1" cy="33" cx="8"/><path data-cppathid="10014" transform="matrix(.275 -.962 .962 .275 5.022 74.658)" d="m44.72 33h14.56v2h-14.56z"/><circle data-cppathid="10015" r="1" cy="35" cx="56"/><circle data-cppathid="10016" r="1" cy="33" cx="48"/><path data-cppathid="10017" d="m63 20v-.556l-28.623-17.766c-1.428-.887-3.326-.887-4.754 0l-28.623 17.766v.556c0 2.665 2.102 4.83 4.732 4.973-2.856 1.989-4.732 5.291-4.732 9.027 0 3.72 1.861 7.008 4.695 9h-1.695c-1.654 0-3 1.346-3 3v2c0 .771.301 1.468.78 2-.479.532-.78 1.229-.78 2v2c0 1.069.566 2.003 1.41 2.534-.869.9-1.41 2.119-1.41 3.466v3h62v-3c0-1.347-.541-2.566-1.41-3.466.844-.531 1.41-1.465 1.41-2.534v-2c0-.771-.301-1.468-.78-2 .48-.532.78-1.229.78-2v-2c0-1.654-1.346-3-3-3h-1.695c2.834-1.992 4.695-5.28 4.695-9 0-3.736-1.876-7.038-4.732-9.027 2.63-.143 4.732-2.308 4.732-4.973zm-32.322-16.623c.795-.493 1.85-.493 2.645 0l25.17 15.623h-3.793l-22.7-14.089-22.7 14.089h-3.793zm20.23 15.623h-37.816l18.908-11.736zm-47.908 15c0-4.962 4.038-9 9-9s9 4.038 9 9c0 4.963-4.038 9-9 9s-9-4.037-9-9zm41 9c-1.654 0-3 1.346-3 3v2c0 .771.301 1.468.78 2-.48.532-.78 1.229-.78 2v2c0 .352.072.686.184 1h-4.184v-30h8.695c-2.834 1.992-4.695 5.28-4.695 9s1.861 7.008 4.695 9zm3 10v-2h2v2h2v-2h2v2h2v-2h2v2h2v-2h1c.551 0 1 .448 1 1v2c0 .552-.449 1-1 1h-2-14c-.551 0-1-.448-1-1v-2c0-.552.449-1 1-1h1v2zm-12 2h-2v-30h2zm-4 0h-2v-30h2zm-4 0h-4.184c.112-.314.184-.648.184-1v-2c0-.771-.301-1.468-.78-2 .48-.532.78-1.229.78-2v-2c0-1.654-1.346-3-3-3h-1.695c2.834-1.992 4.695-5.28 4.695-9s-1.861-7.008-4.695-9h8.695zm-23 0c-.551 0-1-.448-1-1v-2c0-.552.449-1 1-1h1v2h2v-2h2v2h2v-2h2v2h2v-2h2v2h2v-2h1c.551 0 1 .448 1 1v2c0 .552-.449 1-1 1h-14zm-1-9c0-.552.449-1 1-1h1v2h2v-2h2v2h2v-2h2v2h2v-2h2v2h2v-2h1c.551 0 1 .448 1 1v2c0 .552-.449 1-1 1h-16c-.551 0-1-.448-1-1zm58 15h-58v-1c0-1.654 1.346-3 3-3h14 24 14c1.654 0 3 1.346 3 3zm0-15v2c0 .552-.449 1-1 1h-16c-.551 0-1-.448-1-1v-2c0-.552.449-1 1-1h1v2h2v-2h2v2h2v-2h2v2h2v-2h2v2h2v-2h1c.551 0 1 .448 1 1zm0-12c0 4.963-4.038 9-9 9s-9-4.037-9-9c0-4.962 4.038-9 9-9s9 4.038 9 9zm-3-11h-52c-1.303 0-2.412-.836-2.825-2h57.651c-.414 1.164-1.523 2-2.826 2z"/><path data-cppathid="10018" d="m29 14c0 1.654 1.346 3 3 3s3-1.346 3-3-1.346-3-3-3-3 1.346-3 3zm4 0c0 .551-.449 1-1 1s-1-.449-1-1 .449-1 1-1 1 .449 1 1z"/></g></g></svg>