<?xml version="1.0" encoding="UTF-8"?>
<svg xmlns="http://www.w3.org/2000/svg" onmouseup="{ if(window.parent.document.onmouseup) window.parent.document.onmouseup(arguments[0]);}" width="489pt" viewBox="-45 0 489 489.143" height="489pt"><path data-cppathid="10000" fill="#1f5c9c" d="m218.710938 411.246094c-85.515626-51.664063-155.089844-165.316406-155.089844-253.347656 0-.335938.019531-.65625.019531-.984376l-47.839844-15.175781c-.878906 7.152344-1.378906 14.570313-1.378906 22.308594 0 101.199219 75.953125 226.355469 172.910156 284.9375 11.007813 6.644531 24.820313 13.882813 40.289063 19.660156l12.300781-46.125c-7.03125-3.238281-14.128906-6.996093-21.210937-11.273437zm0 0"/><path data-cppathid="10001" fill="#ffd900" d="m192.0625 426.96875c-85.519531-51.667969-155.089844-165.320312-155.089844-253.351562 0-.332032.015625-.652344.019532-.984376l-35.539063-21.324218c-.882813 7.152344-1.3828125 14.574218-1.3828125 22.308594 0 101.199218 75.9531255 226.355468 172.9140625 284.9375 11.003906 6.644531 24.816406 13.882812 40.289063 19.660156v-39.976563c-7.03125-3.234375-14.132813-6.992187-21.210938-11.269531zm0 0"/><path data-cppathid="10002" fill="#0ec478" d="m.0703125 261.59375 278.8007815-153.75 120.949218 71.75-274.699218 153.75zm0 0"/><path data-cppathid="10003" fill="#089970" d="m.0703125 261.59375v118.898438l125.0507815 73.800781v-120.949219zm0 0"/><path data-cppathid="10004" fill="#107054" d="m125.121094 454.292969 274.699218-155.800781v-118.898438l-274.699218 153.75zm0 0"/><path data-cppathid="10005" fill="#fffbdb" d="m61.570312 259.824219c0-4.144531-3.148437-7.875-8.1875-10.539063l202.40625-112.445312c4.835938 2.691406 11.550782 4.367187 18.984376 4.367187 7.210937 0 13.742187-1.582031 18.539062-4.136719l51.589844 29.996094c-5.292969 2.671875-8.628906 6.496094-8.628906 10.757813 0 4.023437 3.410156 7.324219 8.199218 9.96875l-199.171875 111.691406c-4.886719-3.113281-12.105469-5.09375-20.179687-5.09375-8 0-15.160156 1.945313-20.042969 5.011719l-51.386719-29.195313c4.863282-2.652343 7.878906-6.324219 7.878906-10.382812zm0 0"/><path data-cppathid="10006" fill="#0ec478" d="m252.222656 218.542969c0-15.851563-23.40625-28.699219-52.277344-28.699219-28.871093 0-52.273437 12.847656-52.273437 28.699219 0 15.847656 23.402344 28.699219 52.273437 28.699219 28.871094 0 52.277344-12.851563 52.277344-28.699219zm0 0"/><path data-cppathid="10007" fill="#089970" d="m399.820312 202.140625-274.699218 153.75v20.5l274.699218-153.75zm0 0"/><path data-cppathid="10008" fill="#089970" d="m399.820312 239.042969-274.699218 153.75v20.5l274.699218-153.75zm0 0"/><path data-cppathid="10009" fill="#089970" d="m399.820312 280.042969-274.699218 153.75v20.5l274.699218-155.800781zm0 0"/><g fill="#0ec478"><path data-cppathid="10010" d="m125.121094 355.890625-125.0507815-71.75v20.5l125.0507815 71.75zm0 0"/><path data-cppathid="10011" d="m125.121094 392.792969-125.0507815-71.75v20.5l125.0507815 71.75zm0 0"/><path data-cppathid="10012" d="m125.121094 433.792969-125.0507815-71.75v18.449219l125.0507815 73.800781zm0 0"/></g><path data-cppathid="10013" fill="#1f5c9c" d="m260.421875 101.691406-96.351563-101.691406v41.242188c-11.171874-2.59375-34.390624 2.214843-44.996093 2.214843-20.148438 0-38.28125 4.75-53.898438 14.117188-27.570312 16.546875-44.65625 46.058593-49.375 84.292969l13.660157 4.332031-.6875.59375 12.300781 24.601562 14.347656 6.148438 8.199219-16.398438v-4.109375l.023437.007813c.214844-35.128907 11.839844-61.386719 32.820313-73.976563 9.796875-5.878906 21.542968-8.859375 34.914062-8.859375 10.191406 0 21.203125 1.816407 32.695313 5.261719v22.226562h96.347656zm0 0"/><path data-cppathid="10014" fill="#ffd900" d="m69.8125 98.660156c9.800781-5.878906 21.546875-8.859375 34.914062-8.859375 10.191407 0 21.203126 1.8125 32.695313 5.257813v23.035156h96.351563l-96.351563-102.5v41.242188c-11.171875-2.597657-22.09375-3.9375-32.695313-3.9375-20.148437 0-38.285156 4.75-53.898437 14.121093-27.574219 16.542969-44.660156 46.054688-49.375 84.292969l35.539063 21.324219c.214843-35.132813 11.839843-61.390625 32.820312-73.976563zm0 0"/><path data-cppathid="10015" fill="#1f5c9c" d="m137.421875 15.59375 26.648437-15.59375 96.351563 102.5-26.648437 15.59375zm0 0"/><path data-cppathid="10016" fill="#1f5c9c" d="m362.839844 349.742188c.019531 1.117187.082031 2.246093.082031 3.351562 0 35.632812-23.964844 68.867188-45.140625 81.570312-9.859375 5.917969-9.183594 3.230469-22.257812 3.230469h-.003907c-16.597656 0-35.757812-5.800781-55.476562-14.871093l-.121094-.503907-12.300781 3.074219s-6.148438 12.300781-6.148438 14.347656c0 2.050782 4.097656 10.25 6.148438 10.25.566406 0 2.398437.480469 4.730468 1.15625l-4.730468 17.742188c17.003906 6.347656 36.015625 11.851562 55.59375 11.851562h.011718c19.851563 0 50.164063-11.378906 65.839844-20.785156 28.765625-17.257812 46.160156-48.832031 49.957032-89.503906zm0 0"/><path data-cppathid="10017" fill="#ffd900" d="m336.1875 365.015625c.019531 1.117187.085938 2.246094.085938 3.351563 0 35.632812-11.664063 62.253906-32.84375 74.960937-9.859376 5.914063-21.484376 8.914063-34.554688 8.914063h-.003906c-16.632813-.003907-35.839844-4.898438-55.601563-14.003907v39.976563c17.007813 6.347656 36.015625 10.925781 55.597657 10.929687h.007812c19.851562 0 37.867188-4.769531 53.539062-14.175781 28.765626-17.257812 46.164063-48.601562 49.957032-89.273438zm0 0"/><path data-cppathid="10018" fill="#639deb" d="m336.1875 365.015625 26.652344-15.273437 36.183594 20.675781-26.648438 15.273437zm0 0"/></svg>