<?xml version="1.0" encoding="UTF-8"?>
<svg xmlns="http://www.w3.org/2000/svg" onmouseup="{ if(window.parent.document.onmouseup) window.parent.document.onmouseup(arguments[0]);}" width="512" viewBox="0 0 64 64" height="512" enable-background="new 0 0 64 64" id="Layer_1_1_"><path data-cppathid="10000" fill="#ffe5ca" d="m3 1h60v60h-60z"/><path data-cppathid="10001" fill="#f69489" d="m57 5c0-1.1.9-2 2-2 .55 0 1.05.22 1.41.59.37.36.59.86.59 1.41 0 1.1-.9 2-2 2-.55 0-1.05-.22-1.41-.59-.37-.36-.59-.86-.59-1.41z"/><circle data-cppathid="10002" r="2" fill="#f69489" cy="15" cx="55"/><circle data-cppathid="10003" r="2" fill="#f69489" cy="8" cx="51"/><path data-cppathid="10004" fill="#f69489" d="m47.41 16.59c.37.36.59.86.59 1.41 0 1.1-.9 2-2 2-.55 0-1.05-.22-1.41-.59-.37-.36-.59-.86-.59-1.41 0-1.1.9-2 2-2 .55 0 1.05.22 1.41.59z"/><circle data-cppathid="10005" r="2" fill="#f69489" cy="12" cx="41"/><circle data-cppathid="10006" r="2" fill="#f69489" cy="23" cx="37"/><circle data-cppathid="10007" r="2" fill="#f69489" cy="29" cx="43"/><circle data-cppathid="10008" r="2" fill="#f69489" cy="42" cx="38"/><path data-cppathid="10009" fill="#f69489" d="m30 32c0-1.1.9-2 2-2 .55 0 1.05.22 1.41.59.37.36.59.86.59 1.41 0 1.1-.9 2-2 2-.55 0-1.05-.22-1.41-.59-.37-.36-.59-.86-.59-1.41z"/><path data-cppathid="10010" fill="#f69489" d="m25.82 38.18c.69.31 1.18 1.01 1.18 1.82 0 1.1-.9 2-2 2-.81 0-1.51-.49-1.82-1.18-.12-.25-.18-.53-.18-.82 0-1.1.9-2 2-2 .29 0 .57.06.82.18z"/><circle data-cppathid="10011" r="2" fill="#f69489" cy="25" cx="25"/><circle data-cppathid="10012" r="2" fill="#f69489" cy="33" cx="16"/><circle data-cppathid="10013" r="2" fill="#f69489" cy="44" cx="13"/><path data-cppathid="10014" fill="#f69489" d="m10 52c0-1.1.9-2 2-2 .55 0 1.05.22 1.41.59.37.36.59.86.59 1.41 0 1.1-.9 2-2 2-.55 0-1.05-.22-1.41-.59-.37-.36-.59-.86-.59-1.41z"/><g fill="#68607c"><path data-cppathid="10015" d="m62 62h-60v-60h2v58h58z"/><path data-cppathid="10016" d="m10 58h2v3h-2z"/><path data-cppathid="10017" d="m16 58h2v3h-2z"/><path data-cppathid="10018" d="m22 58h2v3h-2z"/><path data-cppathid="10019" d="m28 58h2v3h-2z"/><path data-cppathid="10020" d="m34 58h2v3h-2z"/><path data-cppathid="10021" d="m40 58h2v3h-2z"/><path data-cppathid="10022" d="m46 58h2v3h-2z"/><path data-cppathid="10023" d="m52 58h2v3h-2z"/><path data-cppathid="10024" d="m58 58h2v3h-2z"/><path data-cppathid="10025" d="m3 52h3v2h-3z"/><path data-cppathid="10026" d="m3 46h3v2h-3z"/><path data-cppathid="10027" d="m3 40h3v2h-3z"/><path data-cppathid="10028" d="m3 34h3v2h-3z"/><path data-cppathid="10029" d="m3 28h3v2h-3z"/><path data-cppathid="10030" d="m3 22h3v2h-3z"/><path data-cppathid="10031" d="m3 16h3v2h-3z"/><path data-cppathid="10032" d="m3 10h3v2h-3z"/><path data-cppathid="10033" d="m3 4h3v2h-3z"/><path data-cppathid="10034" transform="matrix(.707 -.707 .707 .707 -10.255 33.243)" d="m-3.184 28h76.368v2h-76.368z"/></g></svg>