<?xml version="1.0" encoding="UTF-8"?>
<svg xmlns="http://www.w3.org/2000/svg" onmouseup="{ if(window.parent.document.onmouseup) window.parent.document.onmouseup(arguments[0]);}" width="512" viewBox="0 0 512 512" height="512"><g id="FILLED_OUTLINE"><rect data-cppathid="10000" y="24" x="24" width="464" rx="16" height="240" fill="#bebebe"/><path data-cppathid="10001" fill="#204272" d="m488 360v-16h-144-112v16l8 8v96l-8 8v16h256v-16l-8-8v-96z"/><path data-cppathid="10002" fill="#1568ba" d="m312 368h16v96h-16z"/><path data-cppathid="10003" fill="#1568ba" d="m352 368h16v96h-16z"/><path data-cppathid="10004" fill="#1568ba" d="m392 368h16v96h-16z"/><path data-cppathid="10005" fill="#1568ba" d="m432 368h16v96h-16z"/><path data-cppathid="10006" fill="#1568ba" d="m488 216v-16h-144-112v16l8 8v96l-8 8v16h256v-16l-8-8v-96z"/><path data-cppathid="10007" fill="#575757" d="m206.4295 240.02466-38.4295-32.02466 12.17242-60.8623a15.99986 15.99986 0 0 0 -15.68914-19.1377h-40.96643a15.99988 15.99988 0 0 0 -15.68927 19.1377l12.17242 60.8623-38.4295 32.02466a160.00081 160.00081 0 0 0 -57.5705 122.91577v93.05957a32.00018 32.00018 0 0 0 32 32h176a32.00018 32.00018 0 0 0 32-32v-93.05957a160.00081 160.00081 0 0 0 -57.5705-122.91577z"/><rect data-cppathid="10008" y="392" x="128" width="80" rx="16" height="96" fill="#ffc043"/><path data-cppathid="10009" fill="#ef9d0c" d="m128 424h80v32h-80z"/><path data-cppathid="10010" fill="#204272" d="m272 224h16v80h-16z"/><path data-cppathid="10011" fill="#204272" d="m312 224h16v96h-16z"/><path data-cppathid="10012" fill="#204272" d="m352 224h16v96h-16z"/><path data-cppathid="10013" fill="#204272" d="m392 224h16v96h-16z"/><path data-cppathid="10014" fill="#204272" d="m432 224h16v96h-16z"/><g fill="#f4f4f4"><path data-cppathid="10015" d="m48 56h48v16h-48z"/><path data-cppathid="10016" d="m120 56h48v16h-48z"/><path data-cppathid="10017" d="m192 56h48v16h-48z"/><path data-cppathid="10018" d="m48 88h48v16h-48z"/><path data-cppathid="10019" d="m120 88h48v16h-48z"/><path data-cppathid="10020" d="m192 88h48v16h-48z"/><path data-cppathid="10021" d="m48 120h32v16h-32z"/><path data-cppathid="10022" d="m208 120h32v16h-32z"/><path data-cppathid="10023" d="m48 152h32v16h-32z"/><path data-cppathid="10024" d="m208 152h32v16h-32z"/></g><path data-cppathid="10025" fill="#8c8c8c" d="m141.657 317.657-11.314-11.314-10.343 10.343-10.343-10.343-11.314 11.314 10.343 10.343-12.686 12.686-10.343-10.343-11.314 11.314 10.343 10.343-12.686 12.686-10.343-10.343-11.314 11.314 10.343 10.343-10.343 10.343 11.314 11.314 10.343-10.343 10.343 10.343 11.314-11.314-10.343-10.343 12.686-12.686 10.343 10.343 11.314-11.314-10.343-10.343 12.686-12.686 10.343 10.343 11.314-11.314-10.343-10.343z"/><path data-cppathid="10026" fill="#f7750b" d="m448 120v28.686l-64-63.999-32 32-66.343-66.344-11.314 11.314 77.657 77.656 32-32 52.686 52.687h-28.686v16h56v-56z"/><path data-cppathid="10027" fill="#f7f1ed" d="m416 72h40v16h-40z"/><path data-cppathid="10028" fill="#f7f1ed" d="m272 128h40v16h-40z"/><rect data-cppathid="10029" y="424" x="208" width="80" rx="16" height="64" fill="#ffc043"/><path data-cppathid="10030" fill="#ef9d0c" d="m288 456h-80v16a16 16 0 0 0 16 16h48a16 16 0 0 0 16-16z"/><path data-cppathid="10031" fill="#bebebe" d="m119.663 290.299 22.289-74.299h4.096l22.289 74.299 15.326-4.598-20.911-69.701h13.248v-1.333l-8-6.667 1.6-8h-51.2l1.6 8-8 6.667v1.333h13.248l-20.911 69.701z"/><path data-cppathid="10032" d="m272 224h16v80h-16z"/><path data-cppathid="10033" d="m312 224h16v96h-16z"/><path data-cppathid="10034" d="m352 224h16v96h-16z"/><path data-cppathid="10035" d="m392 224h16v96h-16z"/><path data-cppathid="10036" d="m432 224h16v96h-16z"/><path data-cppathid="10037" d="m472 16h-432a24.0275 24.0275 0 0 0 -24 24v224h16v-224a8.00917 8.00917 0 0 1 8-8h432a8.00917 8.00917 0 0 1 8 8v136h16v-136a24.0275 24.0275 0 0 0 -24-24z"/><path data-cppathid="10038" d="m48 56h48v16h-48z"/><path data-cppathid="10039" d="m120 56h48v16h-48z"/><path data-cppathid="10040" d="m192 56h48v16h-48z"/><path data-cppathid="10041" d="m48 88h48v16h-48z"/><path data-cppathid="10042" d="m120 88h48v16h-48z"/><path data-cppathid="10043" d="m192 88h48v16h-48z"/><path data-cppathid="10044" d="m48 120h32v16h-32z"/><path data-cppathid="10045" d="m208 120h32v16h-32z"/><path data-cppathid="10046" d="m48 152h32v16h-32z"/><path data-cppathid="10047" d="m208 152h32v16h-32z"/><path data-cppathid="10048" d="m120 339.314 10.343 10.343 11.314-11.314-10.343-10.343 10.343-10.343-11.314-11.314-10.343 10.343-10.343-10.343-11.314 11.314 10.343 10.343-12.686 12.686-10.343-10.343-11.314 11.314 10.343 10.343-12.686 12.686-10.343-10.343-11.314 11.314 10.343 10.343-10.343 10.343 11.314 11.314 10.343-10.343 10.343 10.343 11.314-11.314-10.343-10.343 12.686-12.686 10.343 10.343 11.314-11.314-10.343-10.343z"/><path data-cppathid="10049" d="m352 116.687-66.343-66.344-11.314 11.314 77.657 77.656 32-32 52.686 52.687h-28.686v16h56v-56h-16v28.686l-64-63.999z"/><path data-cppathid="10050" d="m416 72h40v16h-40z"/><path data-cppathid="10051" d="m272 128h40v16h-40z"/><path data-cppathid="10052" d="m224 219.31348 8 8v26.80029a168.91369 168.91369 0 0 0 -20.44873-20.23486l-34.77295-28.97754 11.23877-56.19532a24.00024 24.00024 0 0 0 -23.53418-28.70605h-40.96582a24.0005 24.0005 0 0 0 -23.53418 28.707l11.23877 56.19434-34.773 28.97754a167.55183 167.55183 0 0 0 -60.44868 129.06155v93.05957a40.04552 40.04552 0 0 0 40 40h136a23.89959 23.89959 0 0 0 16-6.13086 23.89959 23.89959 0 0 0 16 6.13086h272v-27.31348l-8-8v-89.373l8-8v-38.627l-8-8v-89.373l8-8v-27.31352h-272zm-106.66992-80.38575a7.97376 7.97376 0 0 1 6.18701-2.92773h40.96582a7.9992 7.9992 0 0 1 7.84473 9.56836l-10.88623 54.43164h-34.88282l-10.88623-54.43066a7.97232 7.97232 0 0 1 1.65772-6.64161zm-85.33008 317.07227v-93.05957a151.59777 151.59777 0 0 1 54.69189-116.77051l36.20466-30.16992h2.35119l-20.91034 69.70117 15.3252 4.59766 22.28967-74.29883h4.09546l22.28967 74.29883 15.3252-4.59766-20.91034-69.70117h2.35119l36.20466 30.16992a151.59777 151.59777 0 0 1 54.69189 116.77051v53.05957h-32a23.894 23.894 0 0 0 -8 1.376v-9.376a24.02718 24.02718 0 0 0 -24-24h-48a24.02718 24.02718 0 0 0 -24 24v64a23.88426 23.88426 0 0 0 1.37616 8h-65.37616a24.02718 24.02718 0 0 1 -24-24zm248-8h-64v-8a8.00917 8.00917 0 0 1 8-8h48a8.00917 8.00917 0 0 1 8 8zm-80-32h-64v-8a8.00917 8.00917 0 0 1 8-8h48a8.00917 8.00917 0 0 1 8 8zm-64 16h64v16h-64zm56 48h-48a8.00917 8.00917 0 0 1 -8-8v-8h64v8a8.00917 8.00917 0 0 1 -8 8zm48 0h-16a8.00917 8.00917 0 0 1 -8-8v-8h64v8a8.00917 8.00917 0 0 1 -8 8zm240-123.31348-8 8v102.627l8 8v4.68648h-185.37622a23.88129 23.88129 0 0 0 1.37622-8v-32a24.02718 24.02718 0 0 0 -24-24v-53.05957c0-3.665-.13269-7.312-.36719-10.94043h208.36719zm-240-148.68652h240v4.68652l-8 8v102.627l8 8v4.68648h-210.16528a167.28027 167.28027 0 0 0 -21.83472-59.65674v-55.65674l-8-8z"/><path data-cppathid="10053" d="m312 368h16v96h-16z"/><path data-cppathid="10054" d="m352 368h16v96h-16z"/><path data-cppathid="10055" d="m392 368h16v96h-16z"/><path data-cppathid="10056" d="m432 368h16v96h-16z"/></g></svg>