<?xml version="1.0" encoding="UTF-8"?>
<svg xmlns="http://www.w3.org/2000/svg" onmouseup="{ if(window.parent.document.onmouseup) window.parent.document.onmouseup(arguments[0]);}" data-name="line icons" width="512" viewBox="0 0 74 74" height="512" id="line_icons"><path data-cppathid="10000" d="m60.661 25.336h-12.342a1 1 0 0 1 -1-1v-12.336a1 1 0 0 1 1.707-.707l12.342 12.336a1 1 0 0 1 -.707 1.707zm-11.342-2h8.928l-8.928-8.927z"/><path data-cppathid="10001" d="m60.659 72h-47.32a1 1 0 0 1 -1-1l.02-59.01a1 1 0 0 1 1-1h5.85a1 1 0 0 1 0 2h-4.85l-.02 57.01h45.32v-45.253l-11.754-11.754h-20.856a1 1 0 0 1 0-2h21.27a1 1 0 0 1 .707.293l12.34 12.339a1 1 0 0 1 .293.708v46.667a1 1 0 0 1 -1 1z"/><path data-cppathid="10002" d="m54.49 39.683h-34.982a1 1 0 0 1 0-2h34.982a1 1 0 0 1 0 2z"/><path data-cppathid="10003" d="m54.49 47.683h-34.982a1 1 0 0 1 0-2h34.982a1 1 0 0 1 0 2z"/><path data-cppathid="10004" d="m54.49 55.683h-34.982a1 1 0 0 1 0-2h34.982a1 1 0 0 1 0 2z"/><path data-cppathid="10005" d="m54.49 63.683h-34.982a1 1 0 0 1 0-2h34.982a1 1 0 0 1 0 2z"/><path data-cppathid="10006" d="m19.1 23.6a1 1 0 0 1 -.986-.83 8.752 8.752 0 0 1 5.59-9.357 8.752 8.752 0 0 1 10.53 2.815 1 1 0 0 1 -.449 1.492l-14.308 5.81a1.006 1.006 0 0 1 -.377.07zm8.17-8.887a7.477 7.477 0 0 0 -2.814.554 6.942 6.942 0 0 0 -4.445 5.884l11.735-4.762a6.578 6.578 0 0 0 -4.475-1.673z"/><path data-cppathid="10007" d="m21.021 17.461a1 1 0 0 1 -.926-.624l-2.606-6.42a1 1 0 0 1 .551-1.3l6.727-2.73a1 1 0 0 1 1.3.551l2.6 6.413a1 1 0 0 1 -1.854.752l-2.221-5.49-4.873 1.978 2.229 5.494a1 1 0 0 1 -.927 1.376z"/><path data-cppathid="10008" d="m30.768 31.817a1 1 0 0 1 -.8-.395l-7.518-9.9a1 1 0 0 1 .42-1.532l6.011-2.439a1 1 0 0 1 1.368.8l1.511 12.349a1 1 0 0 1 -.616 1.048 1.014 1.014 0 0 1 -.376.069zm-5.932-10.463 4.49 5.913-.9-7.37z"/><path data-cppathid="10009" d="m18.418 11.04a.994.994 0 0 1 -.446-.1l-4.088-2.046a1 1 0 0 1 .07-1.822l12.324-5a1 1 0 0 1 1.322 1.256l-1.51 4.313a1 1 0 0 1 -.567.6l-6.727 2.73a1 1 0 0 1 -.378.069zm-1.66-2.947 1.7.85 5.889-2.39.629-1.8z"/></svg>