<?xml version="1.0" encoding="UTF-8"?>
<svg xmlns="http://www.w3.org/2000/svg" onmouseup="{ if(window.parent.document.onmouseup) window.parent.document.onmouseup(arguments[0]);}" width="512" viewBox="0 0 24 24" height="512" enable-background="new 0 0 24 24" id="light"><g><path data-cppathid="10000" d="m7.5 6h-6c-.827 0-1.5-.673-1.5-1.5v-3c0-.827.673-1.5 1.5-1.5h6c.827 0 1.5.673 1.5 1.5v3c0 .827-.673 1.5-1.5 1.5zm-6-5c-.275 0-.5.224-.5.5v3c0 .276.225.5.5.5h6c.275 0 .5-.224.5-.5v-3c0-.276-.225-.5-.5-.5z"/></g><g><path data-cppathid="10001" d="m7.5 15h-6c-.827 0-1.5-.673-1.5-1.5v-3c0-.827.673-1.5 1.5-1.5h6c.827 0 1.5.673 1.5 1.5v3c0 .827-.673 1.5-1.5 1.5zm-6-5c-.275 0-.5.224-.5.5v3c0 .276.225.5.5.5h6c.275 0 .5-.224.5-.5v-3c0-.276-.225-.5-.5-.5z"/></g><g><path data-cppathid="10002" d="m7.5 24h-6c-.827 0-1.5-.673-1.5-1.5v-3c0-.827.673-1.5 1.5-1.5h6c.827 0 1.5.673 1.5 1.5v3c0 .827-.673 1.5-1.5 1.5zm-6-5c-.275 0-.5.224-.5.5v3c0 .276.225.5.5.5h6c.275 0 .5-.224.5-.5v-3c0-.276-.225-.5-.5-.5z"/></g><g><path data-cppathid="10003" d="m23.5 2h-12c-.276 0-.5-.224-.5-.5s.224-.5.5-.5h12c.276 0 .5.224.5.5s-.224.5-.5.5z"/></g><g><path data-cppathid="10004" d="m23.5 5h-12c-.276 0-.5-.224-.5-.5s.224-.5.5-.5h12c.276 0 .5.224.5.5s-.224.5-.5.5z"/></g><g><path data-cppathid="10005" d="m23.5 11h-12c-.276 0-.5-.224-.5-.5s.224-.5.5-.5h12c.276 0 .5.224.5.5s-.224.5-.5.5z"/></g><g><path data-cppathid="10006" d="m23.5 14h-12c-.276 0-.5-.224-.5-.5s.224-.5.5-.5h12c.276 0 .5.224.5.5s-.224.5-.5.5z"/></g><g><path data-cppathid="10007" d="m23.5 20h-12c-.276 0-.5-.224-.5-.5s.224-.5.5-.5h12c.276 0 .5.224.5.5s-.224.5-.5.5z"/></g><g><path data-cppathid="10008" d="m23.5 23h-12c-.276 0-.5-.224-.5-.5s.224-.5.5-.5h12c.276 0 .5.224.5.5s-.224.5-.5.5z"/></g></svg>