<?xml version="1.0" encoding="UTF-8"?>
<svg xmlns="http://www.w3.org/2000/svg" onmouseup="{ if(window.parent.document.onmouseup) window.parent.document.onmouseup(arguments[0]);}" width="512" viewBox="0 0 60 60" height="512" id="Icons"><path data-cppathid="10000" fill="#d6dbe3" d="m29.861 37.475a.5.5 0 0 1 -.264-.925l3.53-2.2-5.291 3.054a.5.5 0 0 1 -.517-.855l9.175-5.774-11.483 6.632a.5.5 0 0 1 -.521-.853l16.3-10.463-18.273 10.552a.5.5 0 0 1 -.517-.858l11.6-7.228-12.423 7.172a.5.5 0 0 1 -.512-.859l6.325-3.882-6.911 3.99a.5.5 0 0 1 -.513-.859l9.562-5.893-9.848 5.685a.5.5 0 0 1 -.517-.855l18.959-11.989-18.442 10.647a.5.5 0 0 1 -.516-.856l18.656-11.782-18.14 10.472a.5.5 0 0 1 -.514-.857l15.66-9.786-15.146 8.744a.5.5 0 0 1 -.511-.859l8.406-5.162-7.9 4.559a.5.5 0 0 1 -.514-.857l14.721-9.2-14.207 8.2a.5.5 0 0 1 -.517-.854l16.012-10.163-15.491 8.943a.5.5 0 0 1 -.511-.859l3.481-2.143-2.97 1.715a.5.5 0 0 1 -.511-.859l1.379-.85-.868.5a.5.5 0 0 1 -.524-.851l13.5-8.886-12.98 7.494a.5.5 0 0 1 -.521-.853l8.319-5.385-7.8 4.5a.5.5 0 0 1 -.525-.851l7.633-5.028-7.1 4.1a.5.5 0 0 1 -.524-.851l4.474-2.936-3.952 2.287a.5.5 0 0 1 -.526-.851l3.052-2.02-2.526 1.458a.5.5 0 0 1 -.526-.849l1.088-.722-.562.324a.5.5 0 0 1 -.538-.84l2.785-1.96-2.247 1.3a.5.5 0 0 1 -.562-.824l3.434-2.747-2.872 1.653a.5.5 0 0 1 -.574-.814l1.656-1.408-1.082.625a.5.5 0 0 1 -.683-.683l1-1.732-.019.011a.5.5 0 0 1 -.5-.866l1.63-.947a.5.5 0 0 1 .684.683l-1 1.732 4.209-2.423a.5.5 0 0 1 .574.813l-1.659 1.409 3.853-2.222a.5.5 0 0 1 .563.823l-3.431 2.745 6.182-3.568a.5.5 0 0 1 .538.841l-2.788 1.959 4.856-2.8a.5.5 0 0 1 .526.849l-1.087.722 2.721-1.571a.5.5 0 0 1 .527.85l-3.05 2.018 4.975-2.868a.5.5 0 0 1 .524.851l-4.476 2.93 6.552-3.781a.5.5 0 0 1 .525.851l-7.625 5.026 10.183-5.877a.5.5 0 0 1 .521.853l-8.321 5.383 10.808-6.236a.5.5 0 0 1 .524.851l-13.5 8.884 16.86-9.735a.5.5 0 0 1 .511.859l-1.386.847 2.965-1.706a.5.5 0 0 1 .512.859l-3.472 2.133 5.195-2.992a.5.5 0 0 1 .517.855l-16.017 10.166 18.509-10.687a.5.5 0 0 1 .514.857l-14.723 9.199 15.047-8.69a.5.5 0 0 1 .512.86l-8.399 5.16 7.96-4.6a.5.5 0 0 1 .514.857l-15.66 9.787 15.146-8.741a.5.5 0 0 1 .516.856l-18.656 11.783 18.14-10.473a.5.5 0 0 1 .517.856l-18.96 11.989 18.444-10.648a.5.5 0 0 1 .512.859l-9.565 5.9 9.053-5.227a.5.5 0 0 1 .511.859l-6.315 3.876 5.8-3.351a.5.5 0 0 1 .514.857l-11.591 7.224 11.081-6.4a.5.5 0 0 1 .52.854l-16.31 10.47 15.79-9.116a.5.5 0 0 1 .516.856l-9.172 5.772 8.656-5a.5.5 0 0 1 .514.857l-3.516 2.189 3-1.733a.5.5 0 0 1 .522.852l-10.035 6.531 9.515-5.493a.5.5 0 0 1 .522.852l-7.143 4.649 6.621-3.823a.5.5 0 0 1 .536.843l-9.42 6.576 8.884-5.13a.5.5 0 0 1 .524.851l-1.954 1.28 1.43-.826a.5.5 0 0 1 .546.836l-5.775 4.236 5.229-3.019a.5.5 0 0 1 .535.844l-1.034.717.5-.288a.5.5 0 0 1 .578.81l-3.356 2.92 2.778-1.6a.5.5 0 0 1 .573.814l-.7.592.126-.072a.5.5 0 0 1 .664.713l-.763 1.128a.531.531 0 0 1 .481.248.5.5 0 0 1 -.183.683l-1.619.935a.5.5 0 0 1 -.664-.713l.7-1.044-3.064 1.766a.5.5 0 0 1 -.573-.814l.7-.586-2.438 1.4a.5.5 0 0 1 -.578-.809l3.354-2.92-6.462 3.729a.5.5 0 0 1 -.535-.843l1.035-.718-2.705 1.561a.5.5 0 0 1 -.546-.836l5.775-4.229-8.782 5.07a.5.5 0 0 1 -.525-.85l1.964-1.288-3.7 2.138a.5.5 0 0 1 -.536-.842l9.419-6.575-12.85 7.418a.5.5 0 0 1 -.522-.851l7.146-4.655-9.534 5.5a.5.5 0 0 1 -.523-.851l10.033-6.519-12.779 7.377a.5.5 0 0 1 -.25.068z"/><path data-cppathid="10001" fill="#fccb55" d="m12.815 59.351a.5.5 0 0 1 -.278-.915l1.107-.743-2.332 1.346a.5.5 0 0 1 -.542-.838l7.872-5.69-9.818 5.668a.5.5 0 0 1 -.519-.854l.325-.209-.855.493a.5.5 0 0 1 -.524-.85l4.749-3.116-5.473 3.157a.5.5 0 0 1 -.518-.855l1.409-.9-1.774 1.025a.5.5 0 0 1 -.519-.854l1.275-.808-1.561.9a.5.5 0 0 1 -.526-.85l7.712-5.109-8.2 4.733a.5.5 0 0 1 -.526-.85l8.165-5.42-8.492 4.9a.5.5 0 0 1 -.525-.851l6.8-4.456-6.964 4.023a.5.5 0 0 1 -.522-.853l5.153-3.341-5.031 2.905a.5.5 0 0 1 -.529-.847l8.577-5.787-8.454 4.881a.5.5 0 0 1 -.524-.852l4.634-3.034-4.254 2.46a.5.5 0 0 1 -.533-.845l7.36-5.039-6.732 3.887a.5.5 0 0 1 -.528-.846l5.333-3.649-4.445 2.563a.5.5 0 0 1 -.55-.833l6.024-4.509-4.307 2.487a.5.5 0 0 1 -.572-.815l3.149-2.661a.5.5 0 0 1 -.2-.93l4.168-2.401a.5.5 0 0 1 .572.815l-2.742 2.311 6.7-3.869a.5.5 0 0 1 .55.833l-6.021 4.509 8.482-4.9a.5.5 0 0 1 .532.846l-5.33 3.646 6.7-3.868a.5.5 0 0 1 .533.845l-7.363 5.041 8.565-4.944a.5.5 0 0 1 .523.851l-4.639 3.033 5.256-3.034a.5.5 0 0 1 .53.847l-8.573 5.783 9.393-5.414a.5.5 0 0 1 .522.853l-5.148 3.338 5.476-3.161a.5.5 0 0 1 .524.85l-6.8 4.455 7.1-4.095a.5.5 0 0 1 .526.849l-8.168 5.418 8.412-4.856a.5.5 0 0 1 .527.849l-7.715 5.111 7.7-4.445a.5.5 0 0 1 .519.855l-1.281.814 1.086-.627a.5.5 0 0 1 .519.855l-1.395.889 1-.578a.5.5 0 0 1 .525.851l-4.753 3.121 4.375-2.525a.5.5 0 0 1 .519.853l-.534.343a.5.5 0 0 1 .442.883l-7.875 5.692 6.826-3.94a.5.5 0 0 1 .528.847l-1.1.741h.009a.5.5 0 0 1 .561.825l-3.914 3.094 1.247-.72a.5.5 0 1 1 .5.865l-7.195 4.154a.5.5 0 0 1 -.561-.825l3.915-3.1-7.015 4.05a.5.5 0 0 1 -.257.068z"/><g fill="#262626"><path data-cppathid="10002" d="m55.6.509h-12.2a1.009 1.009 0 0 0 -.636 0h-7.489c-.04 0-.083 0-.126 0h-12.749c-1.816 0-3.954.27-4.129 2.56-.1 1.325 0 2.7 0 4.025v12.689l-1.157-.98c-.671-.567-1.168-1.082-2.144-.927-1.359.217-1.692 1.056-1.692 2.241v12.645a14.6 14.6 0 0 0 -9.714 4.738 13.194 13.194 0 0 0 -1.045 16 13.581 13.581 0 0 0 14.281 5.414 13.683 13.683 0 0 0 10.924-13.108 13.323 13.323 0 0 0 -3.062-8.315h10.062a1.128 1.128 0 0 0 .13 0h7.746a1.009 1.009 0 0 0 .636 0h10.532a13.354 13.354 0 0 0 4.078-.173c2.08-.724 1.885-2.6 1.885-4.354v-26.442a30.046 30.046 0 0 0 -.02-3.878c-.295-2.224-2.426-2.135-4.111-2.135zm-5.326 36h-6.539v-8.009h6.541v8.011zm-30.543-13.847c.165.15.285.258.343.307l3.687 3.12c.535.453 1.067 1.005 1.649 1.413h-5.679zm0-12.149h6.545v8.03h-6.545zm7.993 0h6.545v8.03h-6.545zm8.007-9.022h6.534v8h-6.534zm6.534 9.022v6.437c-.534-.664-1.06-1.334-1.608-1.983-1.523-1.8-3.2.106-4.243 1.323l-.683.8v-6.577zm16 .628v7.4h-6.274l3.668-4.585c.306-.382-1.086-.206-1.318.084l-2.617 3.27v-6.8h6.545zm-22.538 7.4.914-1.066a13.828 13.828 0 0 1 2.029-2.367c.331-.23.022-.346.4.091.182.209.347.434.52.65l2.155 2.694h-6.02zm0 .916h6.534v8.043h-6.53zm-1.458 8.043h-6.406a13.677 13.677 0 0 0 2.407-2.59l4-4.666zm16.007-8.959h-6.541v-8.03h6.541zm-.267.914-.494.617-1.323 1.654a5.25 5.25 0 0 1 -.92 1.15c-.3.179.035.3-.391-.131a10.7 10.7 0 0 1 -.693-.867c-.642-.8-1.277-1.614-1.913-2.423zm-16.309 0-3.632 4.236-2.344 2.735v-6.969zm.569 9.041v8.011h-6.545v-8.007zm1.462 0h6.534v8.011h-6.534zm8-1v-6.473l1.369 1.708a2.07 2.07 0 0 0 3.112.459 14.418 14.418 0 0 0 1.988-2.406l.077-.1v6.816zm7.989-8.045h6.545v8.049h-6.541zm4.749-17.96c1.783.063 1.8 1.5 1.8 2.843v5.153h-6.545v-8.06c1.584-.002 3.167.007 4.745.064zm-6.193-.06v8.056h-6.541v-8c2.176-.006 4.358-.04 6.541-.056zm-16.007.06v8h-6.545v-8zm-13.385 0a32 32 0 0 1 4.313 0h1.079v8h-6.545v-4.661c0-1.095-.319-3.13 1.153-3.339zm-1.153 17.966h6.545v7.116c-2.028-1.634-3.977-3.38-5.964-5.061l-.581-.492zm-4.971-.722c.237-.225 2.056 1.317 3.509 2.609v11.916c-.036-.01-.071-.025-.108-.035a13.581 13.581 0 0 0 -3.437-.5v-11.6c0-.353-.265-2.103.036-2.39zm3.357 39.37c-5.06 1.807-10.9-.46-13.961-4.728a13.045 13.045 0 0 1 -.723-13.977 11.8 11.8 0 0 1 13.533-5.635 12.37 12.37 0 0 1 1.355.484.579.579 0 0 0 .563.242 12.624 12.624 0 0 1 3.8 2.788.217.217 0 0 0 .161.171 13.332 13.332 0 0 1 3.432 8.743 12.789 12.789 0 0 1 -8.16 11.912zm1.614-24.311v-5.294h6.545v8.011h-2.506a13.043 13.043 0 0 0 -4.039-2.717zm38.538.969c-.035 1.781-1.1 1.746-2.426 1.746h-4.119v-8.009h6.545v1.091c0 1.722.031 3.449 0 5.172z"/><path data-cppathid="10003" d="m14.724 38.646c.039.011.078.014.117.027a3.658 3.658 0 0 1 2.427 3.389c.02.73 1.48.487 1.464-.124a4.489 4.489 0 0 0 -4.008-4.388v-.744c0-.353-1.448-.111-1.448.388v.39a4.778 4.778 0 0 0 -3.985 4.043 4.47 4.47 0 0 0 3.985 4.846v6.881c-.039-.011-.078-.014-.117-.027a3.658 3.658 0 0 1 -2.427-3.389c-.02-.73-1.48-.487-1.464.124a4.489 4.489 0 0 0 4.008 4.388v.744c0 .353 1.448.111 1.448-.388v-.39a4.776 4.776 0 0 0 3.984-4.043 4.469 4.469 0 0 0 -3.984-4.846zm-2 6.5a3.63 3.63 0 0 1 -1.4-1.267 3.676 3.676 0 0 1 -.185-3.651 3.135 3.135 0 0 1 2.141-1.647v6.762a2.614 2.614 0 0 1 -.556-.194zm2.552 1.7a3.63 3.63 0 0 1 1.4 1.267 3.676 3.676 0 0 1 .185 3.651 3.135 3.135 0 0 1 -2.141 1.647v-6.757a2.614 2.614 0 0 1 .556.197z"/></g></svg>