<?xml version="1.0" encoding="UTF-8"?>
<svg xmlns="http://www.w3.org/2000/svg" onmouseup="{ if(window.parent.document.onmouseup) window.parent.document.onmouseup(arguments[0]);}" data-name="Layer 3" width="512" viewBox="0 0 64 64" height="512" id="Layer_3"><path data-cppathid="10000" fill="#f8d859" d="m32 2-30 30 30 18 30-18z"/><path data-cppathid="10001" fill="#518c46" d="m32 50 16-9.6v-38.4h-32v38.4z"/><path data-cppathid="10002" fill="#67ac5c" d="m32 50 12-7.2v-32.8a4 4 0 0 1 -4-4h-16a4 4 0 0 1 -4 4v32.8z"/><circle data-cppathid="10003" r="12" fill="#7bb873" cy="28" cx="32"/><path data-cppathid="10004" fill="#518c46" d="m39.293 26.293-4.293 4.293v-.586a5.009 5.009 0 0 0 -4-4.9v-3.1h-2v3.1a4.954 4.954 0 0 0 -2 .925v-4.025h-2v12h2v-4a3 3 0 0 1 2-2.816v6.816h2v-6.816a3 3 0 0 1 2 2.816v3a1 1 0 0 0 1.707.707l6-6z"/><path data-cppathid="10005" fill="#f3c14f" d="m2 32v30h60v-30l-30 18z"/><g fill="#f8d859"><path data-cppathid="10006" d="m32 50-5-3-25 15h60l-25-15z"/><path data-cppathid="10007" d="m2 55h3a3 3 0 0 0 3-3v-11a3 3 0 0 0 -3-3h-3z"/><path data-cppathid="10008" d="m62 55h-3a3 3 0 0 1 -3-3v-11a3 3 0 0 1 3-3h3z"/></g></svg>