<?xml version="1.0" encoding="UTF-8"?>
<svg xmlns="http://www.w3.org/2000/svg" onmouseup="{ if(window.parent.document.onmouseup) window.parent.document.onmouseup(arguments[0]);}" width="512" viewBox="0 0 100 100" height="512"><g fill-rule="evenodd" fill="none" id="Artboard"><path data-cppathid="10000" fill="rgb(0,0,0)" d="m67.5 19c.8284271 0 1.5.6715729 1.5 1.5v3.5h12c1.1045695 0 2 .8954305 2 2v54c0 1.1045695-.8954305 2-2 2h-61c-1.1045695 0-2-.8954305-2-2v-54c0-1.1045695.8954305-2 2-2h12v-3.5c0-.8284271.6715729-1.5 1.5-1.5s1.5.6715729 1.5 1.5v3.5h14v-3.5c0-.8284271.6715729-1.5 1.5-1.5s1.5.6715729 1.5 1.5v3.5h14v-3.5c0-.8284271.6715729-1.5 1.5-1.5zm12.5 19h-59v41h59zm-43 23c1.1045695 0 2 .8954305 2 2v9c0 1.1045695-.8954305 2-2 2h-9c-1.1045695 0-2-.8954305-2-2v-9c0-1.1045695.8954305-2 2-2zm18 0c1.1045695 0 2 .8954305 2 2v9c0 1.1045695-.8954305 2-2 2h-9c-1.1045695 0-2-.8954305-2-2v-9c0-1.1045695.8954305-2 2-2zm18 0c1.1045695 0 2 .8954305 2 2v9c0 1.1045695-.8954305 2-2 2h-9c-1.1045695 0-2-.8954305-2-2v-9c0-1.1045695.8954305-2 2-2zm-37 3h-7v7h7zm18 0h-7v7h7zm18 0h-7v7h7zm-32.9393398-21.0606602c.5491748.5491748.5834982 1.4182372.1029702 2.007398l-.1029702.1139224-4.4396602 4.4393398 4.4396602 4.4393398c.5857864.5857865.5857864 1.5355339 0 2.1213204-.5491748.5491748-1.4182372.5834982-2.007398.1029702l-.1139224-.1029702-4.4393398-4.4396602-4.4393398 4.4396602c-.5857865.5857864-1.5355339.5857864-2.1213204 0-.5491748-.5491748-.5834982-1.4182372-.1029702-2.007398l.1029702-.1139224 4.4396602-4.4393398-4.4396602-4.4393398c-.5857864-.5857865-.5857864-1.5355339 0-2.1213204.5491748-.5491748 1.4182372-.5834982 2.007398-.1029702l.1139224.1029702 4.4393398 4.4396602 4.4393398-4.4396602c.5857865-.5857864 1.5355339-.5857864 2.1213204 0zm33.9393398.0606602c1.1045695 0 2 .8954305 2 2v9c0 1.1045695-.8954305 2-2 2h-9c-1.1045695 0-2-.8954305-2-2v-9c0-1.1045695.8954305-2 2-2zm-18 0c1.1045695 0 2 .8954305 2 2v9c0 1.1045695-.8954305 2-2 2h-9c-1.1045695 0-2-.8954305-2-2v-9c0-1.1045695.8954305-2 2-2zm17 3h-7v7h7zm-18 0h-7v7h7zm-22-19h-11v8h59v-8h-11v3.5c0 .8284271-.6715729 1.5-1.5 1.5s-1.5-.6715729-1.5-1.5v-3.5h-14v3.5c0 .8284271-.6715729 1.5-1.5 1.5s-1.5-.6715729-1.5-1.5v-3.5h-14v3.5c0 .8284271-.6715729 1.5-1.5 1.5s-1.5-.6715729-1.5-1.5z" id="calendar"/></g></svg>