<?xml version="1.0" encoding="UTF-8"?>
<svg xmlns="http://www.w3.org/2000/svg" onmouseup="{ if(window.parent.document.onmouseup) window.parent.document.onmouseup(arguments[0]);}" width="512" viewBox="0 0 64 64" height="512" enable-background="new 0 0 64 64" id="Layer_1_1_"><path data-cppathid="10000" fill="#ffdbac" d="m42.841 16.841-.21-.21c-.861-.861-2.284-.76-3.014.214l-1.617 2.155v-13c0-1.105-.895-2-2-2h-2c0-1.105-.895-2-2-2s-2 .895-2 2h-2c-1.105 0-2 .895-2 2v2h-1c-1.105 0-2 .895-2 2v9.416c0 1.708.313 3.402.922 4.997l.756 1.979c.187.935 1.008 1.608 1.962 1.608h10.218c.708 0 1.363-.374 1.723-.984l4.51-7.651c.528-.794.424-1.85-.25-2.524z"/><path data-cppathid="10001" fill="#ff8088" d="m50 40 5-6h-3v-9h-4v9h-3z"/><path data-cppathid="10002" fill="#ff8088" d="m14 40 5-6h-3v-9h-4v9h-3z"/><path data-cppathid="10003" fill="#ffdbac" d="m47 47c0 2.207-1.793 4-4 4s-4-1.793-4-4c0-.067 0-.133.007-.2.106-2.113 1.853-3.8 3.993-3.8s3.887 1.687 3.993 3.8c.007.067.007.133.007.2z"/><path data-cppathid="10004" fill="#ffdbac" d="m59 47c0 2.207-1.793 4-4 4s-4-1.793-4-4c0-.067 0-.133.007-.2.106-2.113 1.853-3.8 3.993-3.8s3.887 1.687 3.993 3.8c.007.067.007.133.007.2z"/><path data-cppathid="10005" fill="#526273" d="m42.99 45.982c1.441 0 2.876.543 3.957 1.497.192-1.495-.547-3.07-1.82-3.877-1.858-1.179-4.425-.565-5.548 1.317-.455.762-.666 1.675-.547 2.558 1.081-.953 2.516-1.495 3.958-1.495z"/><path data-cppathid="10006" fill="#526273" d="m54.99 45.982c1.441 0 2.876.543 3.957 1.497.192-1.495-.547-3.07-1.82-3.877-1.858-1.179-4.425-.565-5.548 1.317-.455.762-.666 1.675-.547 2.558 1.081-.953 2.516-1.495 3.958-1.495z"/><path data-cppathid="10007" fill="#ffdbac" d="m13 47c0 2.207-1.793 4-4 4s-4-1.793-4-4c0-.067 0-.133.007-.2.106-2.113 1.853-3.8 3.993-3.8s3.887 1.687 3.993 3.8c.007.067.007.133.007.2z"/><path data-cppathid="10008" fill="#ffdbac" d="m25 47c0 2.207-1.793 4-4 4s-4-1.793-4-4c0-.067 0-.133.007-.2.106-2.113 1.853-3.8 3.993-3.8s3.887 1.687 3.993 3.8c.007.067.007.133.007.2z"/><path data-cppathid="10009" fill="#526273" d="m8.99 45.982c1.441 0 2.876.543 3.957 1.497.192-1.495-.547-3.07-1.82-3.877-1.858-1.179-4.425-.565-5.548 1.317-.455.762-.666 1.675-.547 2.558 1.081-.953 2.516-1.495 3.958-1.495z"/><path data-cppathid="10010" fill="#526273" d="m20.99 45.982c1.441 0 2.876.543 3.957 1.497.192-1.495-.547-3.07-1.82-3.877-1.858-1.179-4.425-.565-5.548 1.317-.455.762-.666 1.675-.547 2.558 1.081-.953 2.516-1.495 3.958-1.495z"/><path data-cppathid="10011" fill="#adc4e6" d="m15 61h-12v-6c0-2.209 1.791-4 4-4h4c2.209 0 4 1.791 4 4z"/><path data-cppathid="10012" fill="#adc4e6" d="m27 61h-12v-6c0-2.209 1.791-4 4-4h4c2.209 0 4 1.791 4 4z"/><path data-cppathid="10013" fill="#759acc" d="m49 61h-12v-6c0-2.209 1.791-4 4-4h4c2.209 0 4 1.791 4 4z"/><path data-cppathid="10014" fill="#759acc" d="m61 61h-12v-6c0-2.209 1.791-4 4-4h4c2.209 0 4 1.791 4 4z"/><path data-cppathid="10015" d="m30.126 44.329 1.16-3.329h6.259v-2h-5.562l.697-2h4.865v-2h-4.168l.931-2.671-1.889-.658-1.16 3.329h-6.259v2h5.562l-.697 2h-4.865v2h4.168l-.931 2.671z"/><path data-cppathid="10016" d="m23.717 26.679c.314 1.35 1.528 2.321 2.923 2.321h10.218c1.057 0 2.047-.566 2.584-1.477l4.481-7.604c.791-1.186.633-2.778-.375-3.785l-.21-.21c-.615-.615-1.461-.926-2.333-.871-.771.055-1.487.404-2.004.971v-10.024c0-1.654-1.346-3-3-3h-1.184c-.415-1.161-1.515-2-2.817-2s-2.402.839-2.816 2h-1.184c-1.654 0-3 1.346-3 3v1c-1.654 0-3 1.346-3 3v9.416c0 1.837.333 3.639.988 5.354zm.283-16.679c0-.551.449-1 1-1v6h2v-9c0-.551.449-1 1-1h1v10h2v-11c0-.551.449-1 1-1s1 .449 1 1v11h2v-10h1c.551 0 1 .449 1 1v13c0 .431.275.812.684.949.41.137.858-.004 1.116-.349l1.616-2.155c.177-.235.436-.376.729-.397.296-.021.57.082.778.29l.21.21c.335.336.388.866.095 1.309l-4.51 7.651c-.178.304-.508.492-.861.492h-10.217c-.475 0-.888-.338-.981-.804-.011-.055-.026-.108-.046-.161l-.756-1.979c-.569-1.486-.857-3.048-.857-4.64z"/><path data-cppathid="10017" d="m44.094 33.576c-.165.352-.111.767.138 1.064l5 6c.19.228.471.36.768.36s.578-.132.768-.36l5-6c.249-.298.302-.713.138-1.064-.165-.351-.518-.576-.906-.576h-2v-8c0-.552-.448-1-1-1h-4c-.552 0-1 .448-1 1v8h-2c-.388 0-.741.225-.906.576zm3.906 1.424c.552 0 1-.448 1-1v-8h2v8c0 .552.448 1 1 1h.865l-2.865 3.438-2.865-3.438z"/><path data-cppathid="10018" d="m13.232 40.64c.19.228.471.36.768.36s.578-.132.768-.36l5-6c.249-.298.302-.713.138-1.064-.165-.351-.518-.576-.906-.576h-2v-8c0-.552-.448-1-1-1h-4c-.552 0-1 .448-1 1v8h-2c-.388 0-.741.225-.906.576-.165.352-.111.767.138 1.064zm-1.232-5.64c.552 0 1-.448 1-1v-8h2v8c0 .552.448 1 1 1h.865l-2.865 3.438-2.865-3.438z"/><path data-cppathid="10019" d="m24.71 50.321c.793-.886 1.29-2.042 1.29-3.321 0-.101-.002-.201-.008-.25-.134-2.664-2.327-4.75-4.992-4.75s-4.858 2.086-4.988 4.698c-.01.101-.012.201-.012.302 0 1.279.497 2.435 1.29 3.321-.922.338-1.713.935-2.29 1.71-.577-.775-1.368-1.372-2.29-1.71.793-.886 1.29-2.042 1.29-3.321 0-.101-.002-.201-.008-.25-.134-2.664-2.327-4.75-4.992-4.75s-4.858 2.086-4.988 4.698c-.01.101-.012.201-.012.302 0 1.279.497 2.435 1.29 3.321-1.913.702-3.29 2.525-3.29 4.679v6c0 .552.448 1 1 1h24c.552 0 1-.448 1-1v-6c0-2.154-1.377-3.977-3.29-4.679zm-15.71-6.321c1.095 0 2.046.595 2.571 1.496-.812-.323-1.683-.496-2.571-.496-.893 0-1.767.175-2.583.501.521-.896 1.479-1.501 2.583-1.501zm2.841 3.92c-.391 1.203-1.51 2.08-2.841 2.08s-2.45-.877-2.841-2.08c1.678-1.148 4.004-1.148 5.682 0zm2.159 12.08h-10v-5c0-1.654 1.346-3 3-3h4c1.654 0 3 1.346 3 3zm7-16c1.095 0 2.046.595 2.571 1.496-.812-.323-1.683-.496-2.571-.496-.893 0-1.767.175-2.583.501.521-.896 1.479-1.501 2.583-1.501zm2.841 3.92c-.391 1.203-1.51 2.08-2.841 2.08s-2.45-.877-2.841-2.08c1.678-1.148 4.004-1.148 5.682 0zm2.159 12.08h-10v-5c0-1.654 1.346-3 3-3h4c1.654 0 3 1.346 3 3z"/><path data-cppathid="10020" d="m50.012 46.698c-.01.101-.012.201-.012.302 0 1.279.497 2.435 1.29 3.321-.922.338-1.713.935-2.29 1.71-.577-.775-1.368-1.372-2.29-1.71.793-.886 1.29-2.042 1.29-3.321 0-.101-.002-.201-.008-.25-.134-2.664-2.327-4.75-4.992-4.75s-4.858 2.086-4.988 4.698c-.01.101-.012.201-.012.302 0 1.279.497 2.435 1.29 3.321-1.913.702-3.29 2.525-3.29 4.679v6c0 .552.448 1 1 1h24c.552 0 1-.448 1-1v-6c0-2.154-1.377-3.977-3.29-4.679.793-.886 1.29-2.042 1.29-3.321 0-.101-.002-.201-.008-.25-.134-2.664-2.327-4.75-4.992-4.75s-4.858 2.086-4.988 4.698zm-7.012-2.698c1.095 0 2.046.595 2.571 1.496-.812-.323-1.683-.496-2.571-.496-.893 0-1.767.175-2.583.501.521-.896 1.479-1.501 2.583-1.501zm2.841 3.92c-.391 1.203-1.51 2.08-2.841 2.08s-2.45-.877-2.841-2.08c1.678-1.148 4.004-1.148 5.682 0zm2.159 12.08h-10v-5c0-1.654 1.346-3 3-3h4c1.654 0 3 1.346 3 3zm12-5v5h-10v-5c0-1.654 1.346-3 3-3h4c1.654 0 3 1.346 3 3zm-5-5c-1.331 0-2.45-.877-2.841-2.08 1.677-1.148 4.004-1.148 5.681 0-.39 1.203-1.509 2.08-2.84 2.08zm2.571-4.504c-.812-.323-1.683-.496-2.571-.496-.893 0-1.767.175-2.583.501.521-.896 1.479-1.501 2.583-1.501 1.095 0 2.046.595 2.571 1.496z"/></svg>