<?xml version="1.0" encoding="UTF-8"?>
<svg xmlns="http://www.w3.org/2000/svg" onmouseup="{ if(window.parent.document.onmouseup) window.parent.document.onmouseup(arguments[0]);}" width="512" viewBox="0 0 512 512" height="512" enable-background="new 0 0 512 512" id="Capa_1"><g><path data-cppathid="10000" fill-rule="evenodd" fill="#365e7d" d="m361.564 33.194v56.807l-175.864 14.514-185.7-14.514v-56.807c0-4.394 3.6-7.994 7.994-7.994h345.575c4.394 0 7.995 3.6 7.995 7.994z" clip-rule="evenodd"/><path data-cppathid="10001" fill-rule="evenodd" fill="#2b4d66" d="m361.564 33.194v56.807h-25.002v-56.807c0-4.395-3.6-7.994-7.993-7.994h25.001c4.393 0 7.994 3.6 7.994 7.994z" clip-rule="evenodd"/><path data-cppathid="10002" fill="#80b4fb" d="m331.572 50.117c4.139 0 7.484 3.346 7.484 7.484 0 4.139-3.346 7.512-7.484 7.512h-11.395c-4.139 0-7.512-3.373-7.512-7.512s3.373-7.484 7.512-7.484z"/><path data-cppathid="10003" fill="#95d6a4" d="m293.899 50.117c4.14 0 7.513 3.346 7.513 7.484 0 4.139-3.373 7.512-7.513 7.512h-11.396c-4.139 0-7.483-3.373-7.483-7.512s3.345-7.484 7.483-7.484z"/><path data-cppathid="10004" fill="#e27f84" d="m256.227 50.117c4.139 0 7.512 3.346 7.512 7.484 0 4.139-3.373 7.512-7.512 7.512h-11.367c-4.167 0-7.512-3.373-7.512-7.512s3.345-7.484 7.512-7.484z"/><g fill-rule="evenodd" clip-rule="evenodd"><path data-cppathid="10005" fill="#bed8fb" d="m0 90.001h361.564v323.21h-353.57c-5.641 0-7.994-2.806-7.994-7.993z"/><path data-cppathid="10006" fill="#9dc6fb" d="m336.561 90.001h25.002v323.21h-25.002z"/><path data-cppathid="10007" fill="#365e7d" d="m487.196 293.445v-81.411c0-42.804-35.009-77.84-77.811-77.84-42.805 0-77.812 35.036-77.812 77.84v81.411h29.991v-81.411c0-26.25 21.571-47.82 47.821-47.82 26.249 0 47.82 21.57 47.82 47.82v81.411z"/><path data-cppathid="10008" fill="#80b4fb" d="m512 296.422v87.762c0 56.439-46.178 102.616-102.615 102.616-56.439 0-102.615-46.177-102.615-102.616v-87.762c0-4.394 3.6-7.994 7.994-7.994h189.242c4.393 0 7.994 3.6 7.994 7.994z"/><path data-cppathid="10009" fill="#61a2f9" d="m512 296.422v87.762c0 56.439-46.178 102.616-102.615 102.616-4.224 0-8.391-.255-12.501-.766 50.599-6.207 90.114-49.636 90.114-101.851v-87.762c0-4.394-3.6-7.994-7.993-7.994h25.001c4.393.001 7.994 3.601 7.994 7.995z"/><path data-cppathid="10010" fill="#2b4d66" d="m487.196 288.428v-76.394c0-42.804-35.009-77.84-77.811-77.84-4.252 0-8.419.369-12.501 1.02 36.907 6.038 65.311 38.268 65.311 76.819v76.394h25.001z"/><path data-cppathid="10011" fill="#f9f7f8" d="m66.956 134.704h175.353c16.498 0 29.99 13.493 29.99 29.991 0 16.497-13.492 30.019-29.99 30.019h-175.353c-16.498 0-29.991-13.521-29.991-30.019-.001-16.498 13.493-29.991 29.991-29.991zm0 90.001h175.353c16.498 0 29.99 13.493 29.99 29.991 0 16.497-13.492 30.019-29.99 30.019h-175.353c-16.498 0-29.991-13.521-29.991-30.019-.001-16.498 13.493-29.991 29.991-29.991z"/><path data-cppathid="10012" fill="#ebe8fa" d="m217.307 134.704h25.002c16.498 0 29.99 13.493 29.99 29.991 0 16.497-13.492 30.019-29.99 30.019h-25.002c16.498 0 29.991-13.521 29.991-30.019s-13.494-29.991-29.991-29.991zm0 90.001h25.002c16.498 0 29.99 13.493 29.99 29.991 0 16.497-13.492 30.019-29.99 30.019h-25.002c16.498 0 29.991-13.521 29.991-30.019s-13.494-29.991-29.991-29.991z"/><path data-cppathid="10013" fill="#e27f84" d="m174.616 314.706h82.688c8.249 0 14.995 6.747 14.995 14.996 0 8.248-6.746 14.995-14.995 14.995h-82.688c-8.248 0-14.995-6.747-14.995-14.995 0-8.249 6.747-14.996 14.995-14.996z"/><path data-cppathid="10014" fill="#c9646d" d="m232.302 314.706h25.002c8.249 0 14.995 6.747 14.995 14.996 0 8.248-6.746 14.995-14.995 14.995h-25.002c8.249 0 14.996-6.747 14.996-14.995 0-8.249-6.747-14.996-14.996-14.996z"/></g><path data-cppathid="10015" fill="#80b4fb" d="m66.956 172.207c-4.139 0-7.484-3.374-7.484-7.512 0-4.139 3.345-7.483 7.484-7.483h120.303c4.139 0 7.484 3.345 7.484 7.483s-3.345 7.512-7.484 7.512z"/><path data-cppathid="10016" fill="#80b4fb" d="m76.452 262.208c-4.139 0-7.512-3.374-7.512-7.512 0-4.139 3.373-7.483 7.512-7.483h7.257c4.166 0 7.512 3.345 7.512 7.483s-3.345 7.512-7.512 7.512zm149.075 0c-4.138 0-7.483-3.374-7.483-7.512 0-4.139 3.345-7.483 7.483-7.483h7.285c4.139 0 7.484 3.345 7.484 7.483s-3.345 7.512-7.484 7.512zm-37.248 0c-4.167 0-7.512-3.374-7.512-7.512 0-4.139 3.345-7.483 7.512-7.483h7.257c4.139 0 7.512 3.345 7.512 7.483s-3.373 7.512-7.512 7.512zm-37.275 0c-4.139 0-7.512-3.374-7.512-7.512 0-4.139 3.373-7.483 7.512-7.483h7.257c4.138 0 7.512 3.345 7.512 7.483s-3.374 7.512-7.512 7.512zm-37.276 0c-4.138 0-7.512-3.374-7.512-7.512 0-4.139 3.374-7.483 7.512-7.483h7.257c4.139 0 7.512 3.345 7.512 7.483s-3.373 7.512-7.512 7.512z"/><path data-cppathid="10017" fill-rule="evenodd" fill="#365e7d" d="m409.385 331.714c16.696 0 30.245 13.551 30.245 30.246 0 8.334-3.401 15.874-8.844 21.374-4.393 4.451-6.406 6.719-6.406 12.898v23.131c0 8.248-6.746 15.023-14.995 15.023s-14.995-6.747-14.995-15.023v-23.131c0-6.152-2.069-8.59-6.35-12.842-5.501-5.472-8.902-13.068-8.902-21.431 0-16.694 13.551-30.245 30.247-30.245z" clip-rule="evenodd"/></g></svg>