<?xml version="1.0" encoding="UTF-8"?>
<svg xmlns="http://www.w3.org/2000/svg" onmouseup="{ if(window.parent.document.onmouseup) window.parent.document.onmouseup(arguments[0]);}" width="512" viewBox="0 0 64 64" height="512" id="line"><g fill="#c4a2fc"><path data-cppathid="10000" d="m60.026 27.942c-.6-1.854.243-4.733-1.227-6.751s-4.493-2.121-6.043-3.248c-1.511-1.1-2.562-3.97-4.956-4.747-2.346-.76-4.82.929-6.8.929s-4.458-1.69-6.8-.929c-2.465.8-3.375 3.6-4.957 4.747-1.539 1.121-4.565 1.22-6.042 3.248s-.619 4.877-1.227 6.751c-.574 1.758-2.974 3.621-2.974 6.183s2.409 4.439 2.974 6.182c.614 1.891-.248 4.724 1.227 6.751s4.49 2.118 6.043 3.248c1.511 1.1 2.562 3.97 4.956 4.747s4.784-.928 6.8-.928c1.991 0 4.463 1.686 6.8.928 2.465-.8 3.375-3.6 4.957-4.747 1.54-1.121 4.565-1.219 6.042-3.248 1.508-2.073.6-4.832 1.227-6.751.574-1.762 2.974-3.621 2.974-6.182s-2.409-4.443-2.974-6.183zm-19.026 19.183a13 13 0 1 1 13-13 13.015 13.015 0 0 1 -13 13z"/><path data-cppathid="10001" d="m33.584 56.956a8.995 8.995 0 0 1 -4.232-3.529l-3.281 8.2a1 1 0 0 0 .929 1.373h10a1 1 0 0 0 .929-.628l2.471-6.165c-1.78.371-4.191 1.593-6.816.749z"/><path data-cppathid="10002" d="m48.416 56.956a8.995 8.995 0 0 0 4.232-3.529l3.281 8.2a1 1 0 0 1 -.929 1.373h-10a1 1 0 0 1 -.929-.628l-2.466-6.165c1.755.367 4.17 1.602 6.811.749z"/><path data-cppathid="10003" d="m41 23.125a11 11 0 1 0 11 11 11.012 11.012 0 0 0 -11-11zm0 19a1 1 0 0 1 0-2 6.007 6.007 0 0 0 6-6 1 1 0 0 1 2 0 8.009 8.009 0 0 1 -8 8z"/></g><path data-cppathid="10004" fill="#151a6a" d="m16.293 37.389a1 1 0 0 0 1.414 0l15.121-15.121a1 1 0 0 0 0-1.414l-4.242-4.243a1 1 0 0 0 -1.414 0l-10.172 10.171-4.172-4.171a1 1 0 0 0 -1.414 0l-4.242 4.243a1 1 0 0 0 0 1.414zm-4.172-12.657 4.172 4.168a1 1 0 0 0 1.414 0l10.172-10.168 2.828 2.829-13.707 13.707-7.707-7.707z"/><path data-cppathid="10005" fill="#151a6a" d="m36 1h-26a1.012 1.012 0 0 0 -.708.294l-8 8a1.014 1.014 0 0 0 -.292.706v38a3 3 0 0 0 3 3h32a3 3 0 0 0 3-3v-44a3 3 0 0 0 -3-3zm-27 3.414v4.586h-4.586zm28 43.586a1 1 0 0 1 -1 1h-32a1 1 0 0 1 -1-1v-37h7a1 1 0 0 0 1-1v-7h25a1 1 0 0 1 1 1z"/><path data-cppathid="10006" fill="#151a6a" d="m33 44h-26a1 1 0 0 0 0 2h26a1 1 0 0 0 0-2z"/></svg>