<?xml version="1.0" encoding="UTF-8"?>
<svg xmlns="http://www.w3.org/2000/svg" onmouseup="{ if(window.parent.document.onmouseup) window.parent.document.onmouseup(arguments[0]);}" width="512" viewBox="0 0 64 64" height="512" enable-background="new 0 0 64 64" id="_x33_0"><g><g><path data-cppathid="10000" fill="#e6e9ed" d="m3 2h30c.55 0 1 .45 1 1v19.34c-.63-.22-1.3-.34-2-.34-1.1 0-2 .9-2 2v2h-6v4.76c0 .69-.55 1.24-1.24 1.24-.46 0-.89-.26-1.1-.68l-2.66-5.32h-16c-.55 0-1-.45-1-1v-22c0-.55.45-1 1-1z"/><g fill="#b27946"><path data-cppathid="10001" d="m30 14v3c0 .55-.45 1-1 1h-6c-.55 0-1-.45-1-1v-3z"/><path data-cppathid="10002" d="m14 14v3c0 .55-.45 1-1 1h-6c-.55 0-1-.45-1-1v-3z"/><path data-cppathid="10003" d="m18 35v4c0 .55-.45 1-1 1h-1-12-1c-.55 0-1-.45-1-1v-4c0-.55.45-1 1-1h14c.55 0 1 .45 1 1z"/><path data-cppathid="10004" d="m18 57v4c0 .55-.45 1-1 1h-14c-.55 0-1-.45-1-1v-4c0-.55.45-1 1-1h1 12 1c.55 0 1 .45 1 1z"/></g><path data-cppathid="10005" fill="#d3a06c" d="m16 51v5h-12v-16h12v5z"/><path data-cppathid="10006" fill="#cf9e76" d="m36 47v4h-20v-6h18.45l.01-.01c.47.7.99 1.37 1.54 2.01z"/><path data-cppathid="10007" fill="#b4dd7f" d="m58 47v15h-22v-11-4z"/><path data-cppathid="10008" fill="#f0d0b4" d="m56 17c0-1.66 1.34-3 3-3 .83 0 1.58.34 2.12.88s.88 1.29.88 2.12v9.14 7.65c0 4.7-1.39 9.3-4 13.21h-22c-.55-.64-1.07-1.31-1.54-2.01-2.89-4.15-4.46-9.11-4.46-14.21v-4.78-2c0-1.1.9-2 2-2 .7 0 1.37.12 2 .34l2.24 1.42c1.09 1.08 1.76 2.58 1.76 4.24v-19c0-1.66 1.34-3 3-3 .83 0 1.58.34 2.12.88s.88 1.29.88 2.12v-4c0-1.66 1.34-3 3-3 .83 0 1.58.34 2.12.88s.88 1.29.88 2.12v4c0-.83.34-1.58.88-2.12s1.29-.88 2.12-.88c1.66 0 3 1.34 3 3z"/></g><g><path data-cppathid="10009" d="m63 17c0-2.206-1.794-4-4-4-.732 0-1.409.212-2 .556v-4.556c0-2.206-1.794-4-4-4-.732 0-1.409.212-2 .556v-.556c0-2.206-1.794-4-4-4s-4 1.794-4 4v.556c-.591-.344-1.268-.556-2-.556-2.206 0-4 1.794-4 4v14.111c-.574-.587-1.251-1.068-2-1.425v-18.686c0-1.103-.897-2-2-2h-30c-1.103 0-2 .897-2 2v22c0 1.103.897 2 2 2h15.382l2.382 4.764c.381.763 1.148 1.236 2 1.236 1.233 0 2.236-1.003 2.236-2.236v-3.764h4v3.781c0 4.677 1.272 9.24 3.631 13.219h-15.631v-3c1.103 0 2-.897 2-2v-4c0-1.103-.897-2-2-2h-14c-1.103 0-2 .897-2 2v4c0 1.103.897 2 2 2v14c-1.103 0-2 .897-2 2v4c0 1.103.897 2 2 2h14c1.103 0 2-.897 2-2v-4c0-1.103-.897-2-2-2v-3h18v11h24v-15.718c2.612-4.029 4-8.684 4-13.492zm-40 8v5.764c0 .221-.349.304-.447.105l-2.935-5.869h-16.618v-22h30v18.08c-.328-.047-.66-.08-1-.08-1.654 0-3 1.346-3 3v1zm-20 10h14l.001 4h-14.001zm14.001 26h-14.001v-4h14zm-12.001-6v-14h10v14zm12-5v-4h16.949c.333.459.686.904 1.051 1.342v2.658zm20 11v-13.001l20 .001v13zm24-27.211c0 4.343-1.223 8.553-3.542 12.211l-20.992-.001c-3.528-4.278-5.466-9.664-5.466-15.218v-6.781c0-.552.449-1 1-1 2.757 0 5 2.243 5 5v6h2v-25c0-1.103.897-2 2-2s2 .897 2 2v19.304h2v-23.304c0-1.103.897-2 2-2s2 .897 2 2v23h2v-19c0-1.103.897-2 2-2s2 .897 2 2v19h2v-11c0-1.103.897-2 2-2s2 .897 2 2z"/><path data-cppathid="10010" d="m21 17c0 1.103.897 2 2 2h6c1.103 0 2-.897 2-2v-3.303l-4.465-6.697h-7.535v-2h-2v2h-7.535l-4.465 6.697v3.303c0 1.103.897 2 2 2h6c1.103 0 2-.897 2-2v-3.303l-3.131-4.697h5.131v12h-4v2h10v-2h-4v-12h5.131l-3.131 4.697zm-14 0v-2h6v2zm5.132-4h-4.264l2.132-3.197zm10.868 4v-2h6v2zm3-7.197 2.132 3.197h-4.263z"/></g></g></svg>