<?xml version="1.0" encoding="UTF-8"?>
<svg xmlns="http://www.w3.org/2000/svg" onmouseup="{ if(window.parent.document.onmouseup) window.parent.document.onmouseup(arguments[0]);}" width="512" viewBox="0 0 58 51" height="512"><g fill-rule="evenodd" fill="none" id="Page-1"><g fill-rule="nonzero" id="015---Points-Wallet"><path data-cppathid="10000" fill="#805333" d="m48 0h-42c-2.209139 0-4 1.790861-4 4v34c0 2.209139 1.790861 4 4 4h42c2.209139 0 4-1.790861 4-4v-34c0-2.209139-1.790861-4-4-4z" id="Shape"/><path data-cppathid="10001" fill="#603e26" d="m52 4c.0013291 1.06127285-.4196715 2.07946091-1.1701053 2.82989472-.7504338.75043382-1.7686219 1.17143436-2.8298947 1.17010528h-42c-2.209139 0-4 1.790861-4 4v-8c0-2.209139 1.790861-4 4-4h42c2.209139 0 4 1.790861 4 4z" id="Shape"/><path data-cppathid="10002" transform="matrix(-1 0 0 -1 18 50)" fill="#a56a43" d="m6 19h10c1.1045695 0 2 .8954305 2 2v8c0 1.1045695-.8954305 2-2 2h-10c-3.3137085 0-6-2.6862915-6-6s2.6862915-6 6-6z" id="Shape"/><circle data-cppathid="10003" r="2" fill="#f0c419" cy="25" cx="12" id="Oval"/><g fill="#e4c05c"><path data-cppathid="10004" d="m38 13h-1c-.5522847 0-1-.4477153-1-1s.4477153-1 1-1h1c.5522847 0 1 .4477153 1 1s-.4477153 1-1 1z" id="Shape"/><path data-cppathid="10005" d="m33 13h-1c-.5522847 0-1-.4477153-1-1s.4477153-1 1-1h1c.5522847 0 1 .4477153 1 1s-.4477153 1-1 1z" id="Shape"/><path data-cppathid="10006" d="m28 13h-1c-.5522847 0-1-.4477153-1-1s.4477153-1 1-1h1c.5522847 0 1 .4477153 1 1s-.4477153 1-1 1z" id="Shape"/><path data-cppathid="10007" d="m23 13h-1c-.5522847 0-1-.4477153-1-1s.4477153-1 1-1h1c.5522847 0 1 .4477153 1 1s-.4477153 1-1 1z" id="Shape"/><path data-cppathid="10008" d="m18 13h-1c-.5522847 0-1-.4477153-1-1s.4477153-1 1-1h1c.5522847 0 1 .4477153 1 1s-.4477153 1-1 1z" id="Shape"/><path data-cppathid="10009" d="m13 13h-1c-.5522847 0-1-.4477153-1-1s.4477153-1 1-1h1c.5522847 0 1 .4477153 1 1s-.4477153 1-1 1z" id="Shape"/><path data-cppathid="10010" d="m8 13h-1c-.55228475 0-1-.4477153-1-1s.44771525-1 1-1h1c.55228475 0 1 .4477153 1 1s-.44771525 1-1 1z" id="Shape"/><path data-cppathid="10011" d="m43 13h-1c-.5522847 0-1-.4477153-1-1s.4477153-1 1-1h1c.5522847 0 1 .4477153 1 1s-.4477153 1-1 1z" id="Shape"/><path data-cppathid="10012" d="m48 13h-1c-.5522847 0-1-.4477153-1-1s.4477153-1 1-1h1c.5522847 0 1 .4477153 1 1s-.4477153 1-1 1z" id="Shape"/><path data-cppathid="10013" d="m28 39h-1c-.5522847 0-1-.4477153-1-1s.4477153-1 1-1h1c.5522847 0 1 .4477153 1 1s-.4477153 1-1 1z" id="Shape"/><path data-cppathid="10014" d="m23 39h-1c-.5522847 0-1-.4477153-1-1s.4477153-1 1-1h1c.5522847 0 1 .4477153 1 1s-.4477153 1-1 1z" id="Shape"/><path data-cppathid="10015" d="m18 39h-1c-.5522847 0-1-.4477153-1-1s.4477153-1 1-1h1c.5522847 0 1 .4477153 1 1s-.4477153 1-1 1z" id="Shape"/><path data-cppathid="10016" d="m13 39h-1c-.5522847 0-1-.4477153-1-1s.4477153-1 1-1h1c.5522847 0 1 .4477153 1 1s-.4477153 1-1 1z" id="Shape"/><path data-cppathid="10017" d="m8 39h-1c-.55228475 0-1-.4477153-1-1s.44771525-1 1-1h1c.55228475 0 1 .4477153 1 1s-.44771525 1-1 1z" id="Shape"/></g><path data-cppathid="10018" fill="#f3d55b" d="m44.962 22.279 2.951 6.215c.3070671.6677127.9264927 1.1386562 1.652 1.256l6.545.989c.8488525.1691521 1.5361083.7910402 1.7889773 1.6188205s.0304484 1.7275549-.5789773 2.3421795l-4.7 4.758c-.5301708.5479136-.7684669 1.315138-.642 2.067l1.122 6.753c.1802884.8371032-.1362581 1.7033388-.8137961 2.2269685-.6775379.5236297-1.5955988.6115503-2.3602039.2260315l-5.917-3.231c-.6293744-.345475-1.3916256-.345475-2.021 0l-5.913 3.232c-.7648647.3863094-1.6836674.2986157-2.361647-.2254039-.6779797-.5240196-.994416-1.3910586-.813353-2.2285961l1.114-6.752c.1264669-.751862-.1118292-1.5190864-.642-2.067l-4.7-4.758c-.6099885-.6145769-.8327707-1.5147111-.5798541-2.342856.2529165-.8281449.9405853-1.4502262 1.7898541-1.619144l6.545-.989c.7255073-.1173438 1.3449329-.5882873 1.652-1.256l2.951-6.215c.3424356-.780268 1.1138965-1.2841831 1.966-1.2841831s1.6235644.5039151 1.966 1.2841831z" id="Shape"/><path data-cppathid="10019" fill="#f0c419" d="m52.627 39.458c-.5315605.5481324-.7725931 1.3153577-.65 2.069l1.12 6.75c.1794522.838278-.137745 1.7051892-.8158323 2.2296991-.6780874.5245098-1.5968915.6136625-2.3631677.2293009l-5.91-3.236c-.630071-.3399484-1.388929-.3399484-2.019 0l-5.91 3.239c-.7668221.3849836-1.6865465.2956361-2.3649305-.2297435-.678384-.5253795-.9949767-1.3935067-.8140695-2.2322565l.25-1.49c14.85-8.979 12.538-21.148 11.188-25.317.2639569.2208924.4756971.4975206.62.81l2.95 6.219c.3146297.6638695.9350415 1.1310471 1.66 1.25l6.539.99c.8488754.1683926 1.5364041.7898984 1.7893532 1.6175229.2529492.8276245.0303425 1.7272974-.5793532 2.3414771z" id="Shape"/></g></g></svg>