<?xml version="1.0" encoding="UTF-8"?>
<svg xmlns="http://www.w3.org/2000/svg" onmouseup="{ if(window.parent.document.onmouseup) window.parent.document.onmouseup(arguments[0]);}" xml:space="preserve" style="enable-background:new 0 0 512.002 512.002;" viewBox="0 0 512.002 512.002" y="0px" x="0px" id="Capa_1" version="1.1" xmlns:xlink="http://www.w3.org/1999/xlink"><path data-cppathid="10000" d="M194.316,38.081v417.74h301.818c4.627,0,8.377-3.751,8.377-8.377V105.705l-76.002-76.002H202.693  C198.067,29.703,194.316,33.454,194.316,38.081z" style="fill:#E1EFFB;"/><path data-cppathid="10001" d="M430.698,323.435h-51.059c14.944,0,26.996-12.38,26.46-27.443  c-0.51-14.348-12.738-25.512-27.095-25.512H194.316V204.1l-68.642,34.709l-50.159,58.148H16.437v158.864h59.079l29.188,11.046  c26.962,10.203,55.552,15.432,84.38,15.432h168.465c14.357,0,26.585-11.164,27.095-25.512c0.535-15.063-11.517-27.443-26.46-27.443  h37.752c14.357,0,26.585-11.164,27.095-25.512c0.535-15.063-11.517-27.443-26.46-27.443h34.763c14.944,0,26.996-12.38,26.46-27.443  C457.283,334.599,445.055,323.435,430.698,323.435z" style="fill:#FFD9A0;"/><g><path data-cppathid="10002" d="M379.639,270.48H194.316l0,0c0,14.623,11.854,26.477,26.477,26.477h158.846   c9.798,0,18.347,5.327,22.926,13.239c2.254-3.895,3.551-8.414,3.551-13.239l0,0C406.116,282.334,394.262,270.48,379.639,270.48z" style="fill:#F4CE9E;"/><path data-cppathid="10003" d="M431.333,323.435H308.471l0,0c0,14.623,11.854,26.477,26.477,26.477h96.384   c9.799,0,18.348,5.327,22.926,13.239c2.254-3.895,3.551-8.414,3.551-13.239l0,0C457.81,335.289,445.956,323.435,431.333,323.435z" style="fill:#F4CE9E;"/><path data-cppathid="10004" d="M396.57,376.389h-88.099l0,0c0,14.623,11.854,26.477,26.477,26.477h61.622   c9.799,0,18.348,5.327,22.926,13.239c2.254-3.895,3.551-8.414,3.551-13.239l0,0C423.047,388.244,411.193,376.389,396.57,376.389z" style="fill:#F4CE9E;"/><path data-cppathid="10005" d="M358.184,429.344h-49.712l0,0c0,14.623,11.854,26.477,26.477,26.477h23.235   c9.799,0,18.348,5.327,22.926,13.239c2.254-3.895,3.551-8.414,3.551-13.239l0,0C384.661,441.198,372.807,429.344,358.184,429.344z" style="fill:#F4CE9E;"/></g><path data-cppathid="10006" d="M20.472,476.796h42.061c7.17,0,12.983-5.813,12.983-12.983V288.076  c0-7.17-5.813-12.983-12.983-12.983H20.472c-7.17,0-12.983,5.813-12.983,12.983v175.737  C7.489,470.983,13.302,476.796,20.472,476.796z" style="fill:#FF4C4C;"/><path data-cppathid="10007" d="M428.508,29.703l76.002,76.002h-67.888c-4.481,0-8.114-3.633-8.114-8.114V29.703z" style="fill:#61AFF6;"/><path data-cppathid="10008" d="M382.218,145.499H242.783c-3.126,0-5.659-2.534-5.659-5.659V73.364c0-3.126,2.534-5.659,5.659-5.659  h139.435c3.126,0,5.659,2.534,5.659,5.659v66.476C387.878,142.965,385.344,145.499,382.218,145.499z" style="fill:#BAD5E5;"/><path data-cppathid="10009" d="M459.756,227.464H239.07c-4.149,0-7.512,3.363-7.512,7.512c0,4.149,3.363,7.512,7.512,7.512h220.687  c4.149,0,7.512-3.363,7.512-7.512C467.269,230.826,463.906,227.464,459.756,227.464z"/><path data-cppathid="10010" d="M260.507,86.238c-4.149,0-7.512,3.363-7.512,7.512v27.711c0,4.149,3.363,7.512,7.512,7.512s7.512-3.363,7.512-7.512V93.75  C268.019,89.601,264.656,86.238,260.507,86.238z"/><path data-cppathid="10011" d="M286.299,86.238c-4.149,0-7.512,3.363-7.512,7.512v27.711c0,4.149,3.363,7.512,7.512,7.512s7.512-3.363,7.512-7.512V93.75  C293.811,89.601,290.448,86.238,286.299,86.238z"/><path data-cppathid="10012" d="M312.09,86.238c-4.149,0-7.512,3.363-7.512,7.512v27.711c0,4.149,3.363,7.512,7.512,7.512s7.512-3.363,7.512-7.512V93.75  C319.602,89.601,316.239,86.238,312.09,86.238z"/><path data-cppathid="10013" d="M337.881,86.238c-4.149,0-7.512,3.363-7.512,7.512v27.711c0,4.149,3.363,7.512,7.512,7.512s7.512-3.363,7.512-7.512V93.75  C345.393,89.601,342.03,86.238,337.881,86.238z"/><path data-cppathid="10014" d="M363.672,86.238c-4.149,0-7.512,3.363-7.512,7.512v27.711c0,4.149,3.363,7.512,7.512,7.512s7.512-3.363,7.512-7.512V93.75  C371.184,89.601,367.821,86.238,363.672,86.238z"/><path data-cppathid="10015" d="M292.727,195.287c0,4.136,3.352,7.489,7.489,7.489h159.541c4.136,0,7.489-3.352,7.489-7.489  c0-4.136-3.352-7.489-7.489-7.489H300.216C296.079,187.798,292.727,191.15,292.727,195.287z"/><path data-cppathid="10016" d="M239.07,187.798c-4.136,0-7.489,3.352-7.489,7.489c0,4.136,3.352,7.489,7.489,7.489h26.194c4.136,0,7.489-3.352,7.489-7.489  c0-4.136-3.352-7.489-7.489-7.489H239.07z"/><path data-cppathid="10017" d="M511.988,105.452c-0.003-0.084-0.007-0.167-0.012-0.25c-0.022-0.322-0.057-0.641-0.119-0.955c0-0.001,0-0.002,0-0.003  c-0.063-0.319-0.154-0.63-0.258-0.936c-0.026-0.076-0.053-0.15-0.081-0.225c-0.11-0.294-0.232-0.582-0.378-0.86  c-0.006-0.011-0.01-0.022-0.016-0.033c-0.153-0.289-0.332-0.563-0.523-0.831c-0.045-0.064-0.092-0.126-0.14-0.189  c-0.202-0.265-0.416-0.523-0.654-0.761l-76.002-76.001c-0.237-0.237-0.492-0.449-0.755-0.65c-0.066-0.05-0.132-0.1-0.2-0.148  c-0.264-0.188-0.536-0.365-0.821-0.516c-0.02-0.01-0.04-0.018-0.06-0.028c-0.268-0.14-0.545-0.258-0.827-0.364  c-0.082-0.031-0.164-0.061-0.248-0.089c-0.296-0.1-0.596-0.187-0.903-0.249c-0.024-0.005-0.048-0.008-0.072-0.012  c-0.293-0.056-0.59-0.09-0.89-0.111c-0.095-0.007-0.19-0.011-0.285-0.014c-0.078-0.003-0.156-0.012-0.235-0.012H202.693  c-8.749,0-15.866,7.117-15.866,15.866v161.414l-64.533,32.632c-0.873,0.442-1.652,1.051-2.291,1.792l-39.055,45.276  c-3.316-6.846-10.313-11.589-18.416-11.589H20.473C9.184,267.604,0,276.788,0,288.076v175.737c0,11.288,9.184,20.472,20.473,20.472  h42.061c10.346,0,18.903-7.723,20.262-17.702l19.259,7.288c27.908,10.561,57.19,15.917,87.03,15.917h168.466  c16.24,0,30.211-11.412,33.737-26.477h104.847c8.749,0,15.867-7.117,15.867-15.866v-341.74  C512,105.62,511.99,105.537,511.988,105.452z M435.998,47.783l50.434,50.434h-49.809c-0.344,0-0.625-0.281-0.625-0.625V47.783z   M308.471,436.833h49.712c5.213,0,9.941,2.116,13.375,5.532c0.015,0.015,0.031,0.029,0.047,0.044  c0.399,0.399,0.776,0.82,1.138,1.253c0.032,0.038,0.067,0.075,0.099,0.113c0.368,0.447,0.715,0.912,1.042,1.392  c0.014,0.021,0.029,0.041,0.044,0.061c0.333,0.493,0.643,1.003,0.929,1.528c0.006,0.01,0.012,0.021,0.018,0.031  c0.282,0.519,0.539,1.054,0.772,1.601c0.011,0.025,0.023,0.05,0.033,0.075c0.22,0.521,0.413,1.056,0.586,1.599  c0.02,0.064,0.042,0.126,0.062,0.19c0.154,0.502,0.282,1.014,0.395,1.532c0.025,0.117,0.053,0.232,0.076,0.35  c0.093,0.473,0.163,0.955,0.22,1.44c0.019,0.166,0.042,0.332,0.057,0.499c0.042,0.455,0.061,0.916,0.07,1.38  c0.007,0.356,0.028,0.709,0.015,1.067c-0.359,10.085-9.155,18.289-19.611,18.289H189.084c-28.023,0-55.521-5.029-81.729-14.948  l-24.35-9.214v-5.426c0-4.136-3.352-7.489-7.489-7.489c-4.136,0-7.489,3.352-7.489,7.489v18.592c0,3.03-2.464,5.494-5.494,5.494  h-42.06c-3.03,0-5.495-2.464-5.495-5.494V288.076c0-3.03,2.465-5.494,5.495-5.494h42.061c3.03,0,5.494,2.464,5.494,5.494V410.27  c0,4.136,3.352,7.489,7.489,7.489c4.136,0,7.489-3.352,7.489-7.489V299.74l47.371-54.917l56.451-28.546v54.202  c0,4.136,3.352,7.489,7.489,7.489h184.688c10.455,0,19.252,8.205,19.611,18.289c0.185,5.212-1.701,10.142-5.309,13.883  c-3.613,3.743-8.466,5.805-13.666,5.805h-71.168c-4.136,0-7.489,3.352-7.489,7.489s3.352,7.489,7.489,7.489H430.7l0,0  c10.455,0,19.253,8.205,19.612,18.289c0.185,5.212-1.701,10.143-5.31,13.883c-3.613,3.743-8.466,5.805-13.666,5.805l0,0H308.471  c-4.136,0-7.489,3.352-7.489,7.489s3.352,7.489,7.489,7.489h88.099c5.2,0,10.053,2.061,13.665,5.805  c3.611,3.741,5.497,8.671,5.311,13.883c-0.359,10.085-9.156,18.289-19.612,18.289l0,0H308.47c-4.136,0-7.489,3.352-7.489,7.489  S304.335,436.833,308.471,436.833z M497.022,447.444c0,0.49-0.399,0.888-0.889,0.888H391.31c-0.919-4.106-2.577-7.997-4.951-11.5  h9.576c2.303,0,4.561-0.229,6.75-0.666c15.322-3.057,27.268-16.274,27.83-32.068c0.26-7.309-1.763-14.31-5.769-20.22h6.587  c9.302,0,17.982-3.687,24.443-10.381c6.458-6.692,9.833-15.505,9.502-24.817c-0.627-17.639-15.458-32.057-33.33-32.704  c-0.203-0.017-0.407-0.031-0.615-0.031h-0.635h-22.883c4.006-5.91,6.028-12.911,5.768-20.22  c-0.642-18.049-16.154-32.735-34.579-32.735H201.805l0,0V38.081c0-0.49,0.399-0.888,0.888-0.888H421.02v60.4  c0,8.603,6.999,15.603,15.603,15.603h60.4L497.022,447.444L497.022,447.444z"/><path data-cppathid="10018" d="M242.783,152.988h139.435c7.25,0,13.148-5.898,13.148-13.148V73.363c0-7.25-5.898-13.147-13.148-13.147H242.783  c-7.25,0-13.148,5.897-13.148,13.147v66.477C229.635,147.09,235.533,152.988,242.783,152.988z M244.613,75.194h135.776v62.817  H244.613V75.194z"/><g/><g/><g/><g/><g/><g/><g/><g/><g/><g/><g/><g/><g/><g/><g/></svg>