<?xml version="1.0" encoding="UTF-8"?>
<svg xmlns="http://www.w3.org/2000/svg" onmouseup="{ if(window.parent.document.onmouseup) window.parent.document.onmouseup(arguments[0]);}" width="512" viewBox="0 0 64 64" height="512" enable-background="new 0 0 64 64" id="Layer_5"><g><g><g><path data-cppathid="10000" fill="#969faa" d="m32 2c2.21 0 4 1.79 4 4v4h-30v-4c0-2.21 1.79-4 4-4z"/></g><g><path data-cppathid="10001" fill="#969faa" d="m15.84 50.1-1.11-6.1h5.27 4 4 4 4v4c0 2.21-1.79 4-4 4h-16c0-.03 0-.05 0-.08 0-.61-.05-1.22-.16-1.82z"/></g><g><path data-cppathid="10002" fill="#969faa" d="m10 44v4.76c0 1.37-.77 2.63-2 3.24-1.1 0-2-.9-2-2v-6z"/></g><g><path data-cppathid="10003" fill="#f0d0b4" d="m58 38 2.49.62c.89.22 1.51 1.02 1.51 1.94v10.34c0 1.36-.46 2.68-1.31 3.74l-2.69 3.36h-12l-2.69-3.36c-.85-1.06-1.31-2.38-1.31-3.74v-4.48c0-.94-.22-1.85-.63-2.69l-1.2-2.39c-.11-.22-.17-.47-.17-.72 0-.9.72-1.62 1.62-1.62 1.21 0 2.3.49 3.1 1.28.79.8 1.28 1.89 1.28 3.1v-13.38c0-1.1.9-2 2-2 .55 0 1.05.22 1.41.59.37.36.59.86.59 1.41v6l4 1z"/></g><g><path data-cppathid="10004" fill="#fcd770" d="m60 60v2h-16v-2c0-1.1.9-2 2-2h12c1.1 0 2 .9 2 2z"/></g><g><path data-cppathid="10005" fill="#fcd770" d="m16 60v2h-14v-2c0-1.1.9-2 2-2h10c1.1 0 2 .9 2 2z"/></g><g><path data-cppathid="10006" fill="#f0d0b4" d="m6 39v5 6c0 1.1.9 2 2 2 1.23-.61 2-1.87 2-3.24v-4.76-.83c0-1.69 1.33-3.08 3-3.16.05-.01.11-.01.17-.01.48 0 .89.35.98.82l.58 3.18 1.11 6.1c.11.6.16 1.21.16 1.82v.08c-.02 1.98-.6 3.91-1.71 5.56l-.29.44h-10l-1.52-6.83c-.32-1.44-.48-2.92-.48-4.39 0-3.14.73-6.24 2.14-9.05l1.86-3.73z"/></g><g><path data-cppathid="10007" fill="#69d6f4" d="m6 34v-24h30v17l-9-9-21 21z"/></g><g><path data-cppathid="10008" fill="#ffeaa7" d="m32 31-4-4-1-1-3 3-4 4-7 7v.01c.05-.01.11-.01.17-.01.48 0 .89.35.98.82l.58 3.18h5.27 4 4 4 4v-9z"/></g><g><path data-cppathid="10009" fill="#ff826e" d="m61 6-2 14-4-4-19 19-4-4-4-4-1-1-3 3-4 4-7 7v.01c-1.67.08-3 1.47-3 3.16v.83h-4v-5l21-21 9 9 15-15-4-4z"/></g></g><g><path data-cppathid="10010" d="m60.728 37.651-1.728-.431v-.001l-4-1-2-.5-2-.5v-5.219c0-1.654-1.346-3-3-3s-3 1.346-3 3v9.23c-.927-.757-2.094-1.23-3.382-1.23-1.443 0-2.618 1.175-2.618 2.618 0 .404.096.81.276 1.171l1.195 2.392c.346.69.529 1.463.529 2.235v4.479c0 1.583.545 3.137 1.533 4.373l1.794 2.242c-.8.54-1.327 1.455-1.327 2.49v3h18v-3c0-1.035-.527-1.95-1.327-2.489l1.794-2.242c.988-1.237 1.533-2.79 1.533-4.373v-10.334c0-1.379-.935-2.577-2.272-2.911zm-1.728 23.349h-14v-1c0-.552.448-1 1-1h12c.552 0 1 .448 1 1zm2-10.104c0 1.131-.389 2.24-1.096 3.123l-2.385 2.981h-11.038l-2.385-2.981c-.707-.883-1.096-1.993-1.096-3.123v-4.479c0-1.081-.256-2.164-.739-3.13l-1.195-2.392c-.044-.085-.066-.181-.066-.277 0-.341.277-.618.618-.618 1.864 0 3.382 1.518 3.382 3.382v1.618 3h2v-3-1.618-13.382c0-.552.448-1 1-1s1 .448 1 1v4.719 13.281h2v-10.719l2 .5v10.219h2v-9.719l2 .5v9.219h2v-8.72l1.242.311c.446.112.758.511.758.971z"/><circle data-cppathid="10011" r="1" cy="6" cx="10"/><circle data-cppathid="10012" r="1" cy="6" cx="14"/><path data-cppathid="10013" d="m18 47h6v2h-6z"/><path data-cppathid="10014" d="m55 17.414 4.707 4.707 2.472-17.3-17.3 2.472 4.707 4.707-12.586 12.586v-18.586c0-2.757-2.243-5-5-5h-22c-2.757 0-5 2.243-5 5v27.764l-1.758 3.516c-1.467 2.933-2.242 6.218-2.242 9.498 0 1.546.17 3.096.506 4.607l1.303 5.864c-1.063.463-1.809 1.52-1.809 2.751v3h16v-3c0-1.089-.589-2.035-1.46-2.561.778-1.367 1.25-2.876 1.401-4.439h15.059c2.757 0 5-2.243 5-5v-12.586zm-39.867 23.228c-.064-.351-.219-.667-.435-.925l4.302-4.303v7.586h-3.438zm5.867-7.228 2-2v11.586h-2zm4-4 2-2v15.586h-2zm4 0 2 2v11.586h-2zm4 4 2 2v7.586h-2zm16.121-24.707 10.7-1.528-1.528 10.7-3.293-3.293-19 19-9-9-14.479 14.479c-1.936.304-3.424 1.935-3.504 3.935h-2.017v-3.586l20-20 9 9 16.414-16.414zm-22.121 7.879-20 20v-25.586h28v13.586zm-20 28.414h2v3.764c0 .909-.46 1.735-1.218 2.213-.447-.1-.782-.5-.782-.977zm3-42h22c1.654 0 3 1.346 3 3v3h-28v-3c0-1.654 1.346-3 3-3zm-5 35.241v11.759c0 1.654 1.346 3 3 3h.236l.211-.105c1.574-.789 2.553-2.372 2.553-4.131v-5.599c0-1.193.971-2.165 2.165-2.165h.001l1.687 9.275c.097.539.147 1.092.147 1.643 0 1.815-.532 3.571-1.536 5.082h-8.661l-1.344-6.048c-.305-1.369-.459-2.773-.459-4.174 0-2.947.692-5.896 2-8.537zm10 22.759h-12v-1c0-.552.448-1 1-1h10c.552 0 1 .448 1 1zm17-10h-15.041c-.03-.364-.074-.725-.139-1.082l-.895-4.918h19.075v3c0 1.654-1.346 3-3 3z"/><path data-cppathid="10015" d="m25 5h8v2h-8z"/><path data-cppathid="10016" d="m9 13h10v2h-10z"/><path data-cppathid="10017" d="m9 17h10v2h-10z"/><path data-cppathid="10018" d="m9 21h10v2h-10z"/></g></g></svg>