<?xml version="1.0" encoding="UTF-8"?>
<svg xmlns="http://www.w3.org/2000/svg" onmouseup="{ if(window.parent.document.onmouseup) window.parent.document.onmouseup(arguments[0]);}" width="512" viewBox="0 0 64 64" height="512" enable-background="new 0 0 64 64" id="Layer_5"><g><g><g><path data-cppathid="10000" fill="#fcd770" d="m56 17.24v44.76h-20v-34l2-2 5 5z"/></g><g><path data-cppathid="10001" fill="#d3a06c" d="m29 27c0 .65-.21 1.28-.6 1.8l-5.4 7.2h-8l-5.4-7.2c-.39-.52-.6-1.15-.6-1.8 0-.83.34-1.58.88-2.12s1.29-.88 2.12-.88c1.75 0 1.75 2 3.5 2s1.75-2 3.49-2c1.76 0 1.76 2 3.51 2 .88 0 1.31-.5 1.75-1s.87-1 1.75-1c.83 0 1.58.34 2.12.88s.88 1.29.88 2.12z"/></g><g><path data-cppathid="10002" fill="#cf9e76" d="m30.91 44.49c.71 1.58 1.09 3.31 1.09 5.09 0 6.86-5.56 12.42-12.42 12.42h-1.16c-3.43 0-6.54-1.39-8.78-3.64-2.25-2.24-3.64-5.35-3.64-8.78 0-3.55 1.52-6.93 4.17-9.29l4.83-4.29h8l2.65 2.35 2.18 1.94c1.33 1.18 2.37 2.61 3.08 4.2z"/></g><g><circle data-cppathid="10003" r="2" fill="#fcd770" cy="51" cx="24"/></g><g><circle data-cppathid="10004" r="2" fill="#fcd770" cy="47" cx="14"/></g><g><path data-cppathid="10005" fill="#b4dd7f" d="m25 12h4c0 1.66-.67 3.16-1.76 4.24-1.08 1.09-2.58 1.76-4.24 1.76h-4c0-1.66.67-3.16 1.76-4.24 1.08-1.09 2.58-1.76 4.24-1.76z"/></g><g><path data-cppathid="10006" fill="#b4dd7f" d="m18.99 19.59v.41h-3.99c-2.21 0-4.21-.9-5.66-2.34-1.44-1.45-2.34-3.45-2.34-5.66h4c2.21 0 4.21.9 5.66 2.34 1.17 1.18 1.98 2.72 2.33 5.25z"/></g><g><path data-cppathid="10007" fill="#a0d468" d="m19.15 9.95-.15.05h-.01l-.14-.05c-1.7-.57-2.85-2.16-2.85-3.95 0-.9.29-1.74.79-2.43s1.21-1.23 2.06-1.52l.15-.05.15.05c1.7.57 2.85 2.16 2.85 3.95 0 .9-.29 1.74-.79 2.43s-1.21 1.23-2.06 1.52z"/></g></g><g><path data-cppathid="10008" d="m57 61v-43.367l2-2.118v5.485h2v-9h-9v2h5.68l-14.701 15.565-4.979-4.979-12.393 12.393-1.255-1.115 4.848-6.464c.516-.688.8-1.54.8-2.4 0-2.206-1.794-4-4-4-1.329 0-2.036.807-2.504 1.341-.436.498-.609.659-.999.659s-.563-.161-.999-.659c-.333-.38-.792-.893-1.504-1.161v-2.18h.006v-1c0-.039-.005-.077-.006-.116v-.884h3.006c3.86 0 7-3.14 7-7v-1h-5c-1.961 0-3.734.813-5.006 2.117v-2.442c1.815-.835 3.006-2.642 3.006-4.675 0-2.226-1.418-4.194-3.53-4.897l-.47-.157-.47.157c-2.112.703-3.53 2.671-3.53 4.897 0 2.029 1.186 3.832 2.994 4.67v3.677c-1.651-2.039-4.172-3.347-6.994-3.347h-5v1c0 4.962 4.038 9 9 9h2.994v2.181c-.712.268-1.17.781-1.502 1.161-.434.497-.608.658-.995.658s-.561-.161-.996-.658c-.467-.534-1.173-1.342-2.501-1.342-2.206 0-4 1.794-4 4 0 .86.284 1.713.8 2.4l4.848 6.464-4.143 3.683c-2.863 2.544-4.505 6.201-4.505 10.031 0 4.829 2.571 9.057 6.408 11.422h-8.408v-52h-2v54h17.422 1.156 43.422v-2zm-32-48h2.899c-.464 2.279-2.485 4-4.899 4h-2.899c.464-2.279 2.484-4 4.899-4zm-10 6c-3.521 0-6.442-2.612-6.929-6h2.929c3.521 0 6.442 2.612 6.929 6zm2-13c0-1.306.797-2.466 2-2.941 1.203.475 2 1.635 2 2.941s-.797 2.466-2 2.941c-1.203-.475-2-1.635-2-2.941zm38 55h-2v-39.132l2-2.118zm-10-30.661 2-2.118v32.779h-2zm4-4.236 2-2.118v37.015h-2zm-6 6.311v28.586h-2v-30.586zm-4-4v32.586h-2v-32.586l1-1zm-29-1.414c0-1.103.897-2 2-2 .387 0 .561.161.995.658.467.534 1.173 1.342 2.502 1.342 1.328 0 2.034-.808 2.501-1.342.435-.497.608-.658.996-.658.39 0 .563.161.999.659.468.534 1.175 1.341 2.504 1.341s2.036-.807 2.504-1.341c.436-.498.609-.659.999-.659 1.103 0 2 .897 2 2 0 .43-.142.856-.4 1.2l-5.1 6.8h-7l-5.1-6.801c-.258-.343-.4-.769-.4-1.199zm8.422 34c-6.298 0-11.422-5.124-11.422-11.422 0-3.26 1.397-6.371 3.834-8.537l4.546-4.041h7.239l4.546 4.042c2.438 2.165 3.835 5.276 3.835 8.536 0 6.298-5.124 11.422-11.422 11.422zm14.578-11.422c0-3.831-1.642-7.487-4.505-10.032l-1.391-1.236 7.896-7.896v30.586h-8.408c3.837-2.365 6.408-6.593 6.408-11.422z"/><path data-cppathid="10009" transform="matrix(.316 -.949 .949 .316 -33.494 51.53)" d="m9.513 48h18.974v2h-18.974z"/><path data-cppathid="10010" d="m21 51c0 1.654 1.346 3 3 3s3-1.346 3-3-1.346-3-3-3-3 1.346-3 3zm3-1c.551 0 1 .449 1 1s-.449 1-1 1-1-.449-1-1 .449-1 1-1z"/><path data-cppathid="10011" d="m17 47c0-1.654-1.346-3-3-3s-3 1.346-3 3 1.346 3 3 3 3-1.346 3-3zm-3 1c-.551 0-1-.449-1-1s.449-1 1-1 1 .449 1 1-.449 1-1 1z"/></g></g></svg>